Lateef-ExtraBold.ufo
<glyph name="exclam" format="2">
  <advance width="474"/>
  <unicode hex="0021"/>
  <outline>
    <component base="_dot_punct" yOffset="116"/>
    <contour>
      <point x="353" y="1100" type="curve"/>
      <point x="88" y="961" type="line"/>
      <point x="104" y="717"/>
      <point x="135" y="563"/>
      <point x="224" y="328" type="curve"/>
      <point x="249" y="334" type="line"/>
      <point x="243" y="593"/>
      <point x="281" y="825"/>
    </contour>
  </outline>
</glyph>
<glyph name="numbersign" format="2">
  <advance width="860"/>
  <unicode hex="0023"/>
  <note>
numbersign
</note>
  <outline>
    <contour>
      <point x="404" y="0" type="line"/>
      <point x="524" y="0" type="line"/>
      <point x="719" y="942" type="line"/>
      <point x="601" y="942" type="line"/>
    </contour>
    <contour>
      <point x="59" y="260" type="line"/>
      <point x="773" y="260" type="line"/>
      <point x="773" y="367" type="line"/>
      <point x="59" y="367" type="line"/>
    </contour>
    <contour>
      <point x="141" y="0" type="line"/>
      <point x="258" y="0" type="line"/>
      <point x="455" y="942" type="line"/>
      <point x="337" y="942" type="line"/>
    </contour>
    <contour>
      <point x="86" y="574" type="line"/>
      <point x="800" y="574" type="line"/>
      <point x="800" y="682" type="line"/>
      <point x="86" y="682" type="line"/>
    </contour>
  </outline>
</glyph>
<glyph name="quotesingle" format="2">
  <advance width="487"/>
  <unicode hex="0027"/>
  <note>
quotesingle
</note>
  <outline>
    <contour>
      <point x="243" y="1120" type="curve" smooth="yes"/>
      <point x="157" y="1120"/>
      <point x="94" y="1052"/>
      <point x="94" y="942" type="curve" smooth="yes"/>
      <point x="94" y="844"/>
      <point x="168" y="613"/>
      <point x="203" y="484" type="curve"/>
      <point x="284" y="484" type="line"/>
      <point x="317" y="613"/>
      <point x="393" y="844"/>
      <point x="393" y="942" type="curve" smooth="yes"/>
      <point x="393" y="1052"/>
      <point x="327" y="1120"/>
    </contour>
  </outline>
</glyph>
<glyph name="parenleft" format="2">
  <advance width="607"/>
  <unicode hex="0028"/>
  <outline>
    <contour>
      <point x="527" y="-15" type="line"/>
      <point x="207" y="350"/>
      <point x="217" y="762"/>
      <point x="457" y="1087" type="curve"/>
      <point x="422" y="1116" type="line"/>
      <point x="93" y="793"/>
      <point x="48" y="238"/>
      <point x="368" y="-130" type="curve"/>
    </contour>
  </outline>
</glyph>
<glyph name="comma" format="2">
  <advance width="487"/>
  <unicode hex="002C"/>
  <note>
comma
</note>
  <outline>
    <contour>
      <point x="80" y="-357" type="line"/>
      <point x="316" y="-261"/>
      <point x="422" y="-105"/>
      <point x="422" y="83" type="curve" smooth="yes"/>
      <point x="422" y="253"/>
      <point x="324" y="312"/>
      <point x="237" y="312" type="curve" smooth="yes"/>
      <point x="144" y="312"/>
      <point x="73" y="248"/>
      <point x="73" y="165" type="curve" smooth="yes"/>
      <point x="73" y="25"/>
      <point x="229" y="36"/>
      <point x="229" y="-89" type="curve" smooth="yes"/>
      <point x="229" y="-162"/>
      <point x="186" y="-226"/>
      <point x="48" y="-282" type="curve"/>
    </contour>
  </outline>
</glyph>
<glyph name="hyphen" format="2">
  <advance width="638"/>
  <unicode hex="002D"/>
  <note>
hyphen
</note>
  <outline>
    <contour>
      <point x="117" y="240" type="line"/>
      <point x="521" y="296" type="line"/>
      <point x="521" y="476" type="line"/>
      <point x="117" y="418" type="line"/>
    </contour>
  </outline>
</glyph>
<glyph name="period" format="2">
  <advance width="487"/>
  <unicode hex="002E"/>
  <note>
period
</note>
  <outline>
    <contour>
      <point x="243" y="-16" type="curve" smooth="yes"/>
      <point x="335" y="-16"/>
      <point x="410" y="54"/>
      <point x="410" y="146" type="curve" smooth="yes"/>
      <point x="410" y="239"/>
      <point x="335" y="312"/>
      <point x="243" y="312" type="curve" smooth="yes"/>
      <point x="152" y="312"/>
      <point x="75" y="239"/>
      <point x="75" y="146" type="curve" smooth="yes"/>
      <point x="75" y="54"/>
      <point x="152" y="-16"/>
    </contour>
  </outline>
</glyph>
<glyph name="slash" format="2">
  <advance width="695"/>
  <unicode hex="002F"/>
  <note>
slash
</note>
  <outline>
    <contour>
      <point x="52" y="-288" type="line"/>
      <point x="223" y="-288" type="line"/>
      <point x="706" y="1168" type="line"/>
      <point x="536" y="1168" type="line"/>
    </contour>
  </outline>
</glyph>
<glyph name="zero" format="2">
  <advance width="853"/>
  <unicode hex="0030"/>
  <note>
zero
</note>
  <outline>
    <contour>
      <point x="437" y="-14" type="curve" smooth="yes"/>
      <point x="648" y="-14"/>
      <point x="819" y="200"/>
      <point x="819" y="486" type="curve" smooth="yes"/>
      <point x="819" y="775"/>
      <point x="664" y="956"/>
      <point x="438" y="956" type="curve" smooth="yes"/>
      <point x="200" y="956"/>
      <point x="35" y="759"/>
      <point x="35" y="455" type="curve" smooth="yes"/>
      <point x="35" y="173"/>
      <point x="203" y="-14"/>
    </contour>
    <contour>
      <point x="454" y="112" type="curve" smooth="yes"/>
      <point x="364" y="112"/>
      <point x="300" y="271"/>
      <point x="300" y="508" type="curve" smooth="yes"/>
      <point x="300" y="731"/>
      <point x="346" y="845"/>
      <point x="421" y="845" type="curve" smooth="yes"/>
      <point x="505" y="845"/>
      <point x="559" y="688"/>
      <point x="559" y="444" type="curve" smooth="yes"/>
      <point x="559" y="205"/>
      <point x="527" y="112"/>
    </contour>
  </outline>
</glyph>
<glyph name="one" format="2">
  <advance width="853"/>
  <unicode hex="0031"/>
  <note>
one
</note>
  <outline>
    <contour>
      <point x="560" y="364" type="curve" smooth="yes"/>
      <point x="560" y="547" type="line" smooth="yes"/>
      <point x="560" y="714"/>
      <point x="566" y="863"/>
      <point x="574" y="964" type="curve"/>
      <point x="144" y="802" type="line"/>
      <point x="150" y="694" type="line"/>
      <point x="308" y="728" type="line"/>
      <point x="312" y="699"/>
      <point x="316" y="598"/>
      <point x="316" y="503" type="curve" smooth="yes"/>
      <point x="316" y="364" type="line" smooth="yes"/>
      <point x="316" y="251"/>
      <point x="311" y="130"/>
      <point x="306" y="113" type="curve"/>
      <point x="166" y="86" type="line"/>
      <point x="171" y="0" type="line"/>
      <point x="706" y="0" type="line"/>
      <point x="710" y="86" type="line"/>
      <point x="572" y="113" type="line"/>
      <point x="566" y="131"/>
      <point x="560" y="255"/>
    </contour>
  </outline>
</glyph>
<glyph name="two" format="2">
  <advance width="853"/>
  <unicode hex="0032"/>
  <note>
two
</note>
  <outline>
    <contour>
      <point x="81" y="-6" type="line"/>
      <point x="123" y="-1"/>
      <point x="168" y="0"/>
      <point x="207" y="0" type="curve" smooth="yes"/>
      <point x="524" y="0" type="line" smooth="yes"/>
      <point x="564" y="0"/>
      <point x="699" y="-4"/>
      <point x="760" y="-9" type="curve"/>
      <point x="816" y="285" type="line"/>
      <point x="706" y="300" type="line"/>
      <point x="659" y="189" type="line"/>
      <point x="621" y="184"/>
      <point x="605" y="182"/>
      <point x="560" y="182" type="curve" smooth="yes"/>
      <point x="298" y="182" type="line"/>
      <point x="300" y="168" type="line"/>
      <point x="558" y="309"/>
      <point x="707" y="484"/>
      <point x="707" y="658" type="curve" smooth="yes"/>
      <point x="707" y="832"/>
      <point x="576" y="956"/>
      <point x="391" y="956" type="curve" smooth="yes"/>
      <point x="232" y="956"/>
      <point x="104" y="871"/>
      <point x="38" y="717" type="curve"/>
      <point x="117" y="661" type="line"/>
      <point x="163" y="738"/>
      <point x="226" y="776"/>
      <point x="301" y="776" type="curve" smooth="yes"/>
      <point x="394" y="776"/>
      <point x="457" y="712"/>
      <point x="457" y="616" type="curve" smooth="yes"/>
      <point x="457" y="457"/>
      <point x="345" y="298"/>
      <point x="77" y="91" type="curve"/>
    </contour>
  </outline>
</glyph>
<glyph name="three" format="2">
  <advance width="853"/>
  <unicode hex="0033"/>
  <note>
three
</note>
  <outline>
    <contour>
      <point x="408" y="481" type="line"/>
      <point x="583" y="521"/>
      <point x="708" y="605"/>
      <point x="708" y="741" type="curve" smooth="yes"/>
      <point x="708" y="858"/>
      <point x="606" y="956"/>
      <point x="431" y="956" type="curve" smooth="yes"/>
      <point x="283" y="956"/>
      <point x="158" y="874"/>
      <point x="97" y="749" type="curve"/>
      <point x="174" y="694" type="line"/>
      <point x="208" y="747"/>
      <point x="272" y="781"/>
      <point x="343" y="781" type="curve" smooth="yes"/>
      <point x="415" y="781"/>
      <point x="464" y="744"/>
      <point x="464" y="678" type="curve" smooth="yes"/>
      <point x="464" y="593"/>
      <point x="378" y="526"/>
      <point x="253" y="513" type="curve"/>
      <point x="264" y="410" type="line"/>
      <point x="283" y="414"/>
      <point x="307" y="415"/>
      <point x="334" y="415" type="curve" smooth="yes"/>
      <point x="448" y="415"/>
      <point x="521" y="354"/>
      <point x="521" y="255" type="curve" smooth="yes"/>
      <point x="521" y="144"/>
      <point x="444" y="69"/>
      <point x="344" y="104" type="curve"/>
      <point x="399" y="73" type="line"/>
      <point x="283" y="178" type="line" smooth="yes"/>
      <point x="243" y="213"/>
      <point x="219" y="227"/>
      <point x="176" y="227" type="curve" smooth="yes"/>
      <point x="123" y="227"/>
      <point x="87" y="187"/>
      <point x="87" y="136" type="curve" smooth="yes"/>
      <point x="87" y="49"/>
      <point x="198" y="-14"/>
      <point x="349" y="-14" type="curve" smooth="yes"/>
      <point x="615" y="-14"/>
      <point x="766" y="138"/>
      <point x="766" y="280" type="curve" smooth="yes"/>
      <point x="766" y="423"/>
      <point x="652" y="515"/>
      <point x="452" y="516" type="curve"/>
    </contour>
  </outline>
</glyph>
<glyph name="four" format="2">
  <advance width="853"/>
  <unicode hex="0034"/>
  <note>
four
</note>
  <outline>
    <contour>
      <point x="691" y="231" type="curve"/>
      <point x="690" y="669" type="line"/>
      <point x="690" y="770"/>
      <point x="693" y="871"/>
      <point x="699" y="948" type="curve"/>
      <point x="556" y="948" type="line"/>
      <point x="27" y="311" type="line"/>
      <point x="41" y="231" type="line"/>
      <point x="826" y="231" type="line"/>
      <point x="826" y="378" type="line"/>
      <point x="202" y="378" type="line"/>
      <point x="211" y="345" type="line"/>
      <point x="476" y="707" type="line"/>
      <point x="452" y="712" type="line"/>
      <point x="452" y="231" type="line"/>
      <point x="452" y="157"/>
      <point x="452" y="136"/>
      <point x="450" y="113" type="curve"/>
      <point x="311" y="86" type="line"/>
      <point x="316" y="0" type="line"/>
      <point x="797" y="0" type="line"/>
      <point x="802" y="86" type="line"/>
      <point x="694" y="113" type="line"/>
      <point x="693" y="136"/>
      <point x="691" y="157"/>
    </contour>
  </outline>
</glyph>
<glyph name="five" format="2">
  <advance width="853"/>
  <unicode hex="0035"/>
  <note>
five
</note>
  <outline>
    <contour>
      <point x="349" y="-14" type="curve" smooth="yes"/>
      <point x="615" y="-14"/>
      <point x="766" y="134"/>
      <point x="766" y="293" type="curve" smooth="yes"/>
      <point x="766" y="481"/>
      <point x="597" y="587"/>
      <point x="270" y="605" type="curve"/>
      <point x="315" y="550" type="line"/>
      <point x="337" y="747" type="line"/>
      <point x="700" y="747" type="line"/>
      <point x="716" y="942" type="line"/>
      <point x="247" y="942" type="line"/>
      <point x="186" y="409" type="line"/>
      <point x="418" y="394"/>
      <point x="520" y="343"/>
      <point x="520" y="229" type="curve" smooth="yes"/>
      <point x="520" y="146"/>
      <point x="443" y="69"/>
      <point x="345" y="105" type="curve"/>
      <point x="400" y="73" type="line"/>
      <point x="283" y="178" type="line" smooth="yes"/>
      <point x="238" y="216"/>
      <point x="214" y="227"/>
      <point x="177" y="227" type="curve" smooth="yes"/>
      <point x="124" y="227"/>
      <point x="87" y="187"/>
      <point x="87" y="136" type="curve" smooth="yes"/>
      <point x="87" y="49"/>
      <point x="199" y="-14"/>
    </contour>
  </outline>
</glyph>
<glyph name="six" format="2">
  <advance width="853"/>
  <unicode hex="0036"/>
  <note>
six
</note>
  <outline>
    <contour>
      <point x="267" y="430" type="curve"/>
      <point x="267" y="349" type="line"/>
      <point x="291" y="378"/>
      <point x="359" y="428"/>
      <point x="428" y="428" type="curve" smooth="yes"/>
      <point x="510" y="428"/>
      <point x="559" y="357"/>
      <point x="559" y="243" type="curve" smooth="yes"/>
      <point x="559" y="160"/>
      <point x="511" y="91"/>
      <point x="447" y="91" type="curve" smooth="yes"/>
      <point x="370" y="91"/>
      <point x="307" y="207"/>
      <point x="307" y="345" type="curve" smooth="yes"/>
      <point x="307" y="645"/>
      <point x="434" y="797"/>
      <point x="734" y="865" type="curve"/>
      <point x="705" y="971" type="line"/>
      <point x="293" y="942"/>
      <point x="57" y="662"/>
      <point x="57" y="375" type="curve" smooth="yes"/>
      <point x="57" y="163"/>
      <point x="211" y="-14"/>
      <point x="429" y="-14" type="curve" smooth="yes"/>
      <point x="641" y="-14"/>
      <point x="795" y="130"/>
      <point x="795" y="317" type="curve" smooth="yes"/>
      <point x="795" y="473"/>
      <point x="677" y="597"/>
      <point x="526" y="597" type="curve" smooth="yes"/>
      <point x="442" y="597"/>
      <point x="344" y="523"/>
    </contour>
  </outline>
</glyph>
<glyph name="seven" format="2">
  <advance width="853"/>
  <unicode hex="0037"/>
  <note>
seven
</note>
  <outline>
    <contour>
      <point x="427" y="0" type="line"/>
      <point x="768" y="855" type="line"/>
      <point x="762" y="943" type="line"/>
      <point x="722" y="943"/>
      <point x="679" y="942"/>
      <point x="643" y="942" type="curve" smooth="yes"/>
      <point x="353" y="942" type="line" smooth="yes"/>
      <point x="305" y="942"/>
      <point x="178" y="945"/>
      <point x="115" y="945" type="curve"/>
      <point x="85" y="643" type="line"/>
      <point x="192" y="635" type="line"/>
      <point x="216" y="738" type="line"/>
      <point x="245" y="741"/>
      <point x="285" y="743"/>
      <point x="309" y="743" type="curve" smooth="yes"/>
      <point x="635" y="743" type="line"/>
      <point x="635" y="810" type="line"/>
      <point x="236" y="67" type="line"/>
      <point x="236" y="0" type="line"/>
    </contour>
  </outline>
</glyph>
<glyph name="eight" format="2">
  <advance width="853"/>
  <unicode hex="0038"/>
  <note>
eight
</note>
  <outline>
    <contour>
      <point x="416" y="-14" type="curve" smooth="yes"/>
      <point x="666" y="-14"/>
      <point x="833" y="97"/>
      <point x="833" y="276" type="curve" smooth="yes"/>
      <point x="833" y="587"/>
      <point x="300" y="521"/>
      <point x="300" y="739" type="curve" smooth="yes"/>
      <point x="300" y="805"/>
      <point x="350" y="845"/>
      <point x="430" y="845" type="curve" smooth="yes"/>
      <point x="516" y="845"/>
      <point x="568" y="791"/>
      <point x="568" y="691" type="curve" smooth="yes"/>
      <point x="568" y="616"/>
      <point x="551" y="566"/>
      <point x="501" y="489" type="curve"/>
      <point x="514" y="471" type="line"/>
      <point x="692" y="499"/>
      <point x="793" y="584"/>
      <point x="793" y="706" type="curve" smooth="yes"/>
      <point x="793" y="852"/>
      <point x="676" y="956"/>
      <point x="451" y="956" type="curve" smooth="yes"/>
      <point x="212" y="956"/>
      <point x="60" y="841"/>
      <point x="60" y="677" type="curve" smooth="yes"/>
      <point x="60" y="341"/>
      <point x="589" y="409"/>
      <point x="589" y="207" type="curve" smooth="yes"/>
      <point x="589" y="149"/>
      <point x="532" y="107"/>
      <point x="442" y="107" type="curve" smooth="yes"/>
      <point x="341" y="107"/>
      <point x="265" y="157"/>
      <point x="265" y="256" type="curve" smooth="yes"/>
      <point x="265" y="312"/>
      <point x="284" y="364"/>
      <point x="331" y="436" type="curve"/>
      <point x="310" y="475" type="line"/>
      <point x="137" y="442"/>
      <point x="21" y="362"/>
      <point x="21" y="240" type="curve" smooth="yes"/>
      <point x="21" y="93"/>
      <point x="175" y="-14"/>
    </contour>
  </outline>
</glyph>
<glyph name="nine" format="2">
  <advance width="853"/>
  <unicode hex="0039"/>
  <note>
nine
</note>
  <outline>
    <contour>
      <point x="586" y="511" type="curve"/>
      <point x="587" y="595" type="line"/>
      <point x="563" y="563"/>
      <point x="496" y="513"/>
      <point x="424" y="513" type="curve" smooth="yes"/>
      <point x="343" y="513"/>
      <point x="294" y="584"/>
      <point x="294" y="698" type="curve" smooth="yes"/>
      <point x="294" y="781"/>
      <point x="342" y="850"/>
      <point x="406" y="850" type="curve" smooth="yes"/>
      <point x="483" y="850"/>
      <point x="547" y="735"/>
      <point x="547" y="597" type="curve" smooth="yes"/>
      <point x="547" y="295"/>
      <point x="419" y="144"/>
      <point x="119" y="77" type="curve"/>
      <point x="147" y="-30" type="line"/>
      <point x="558" y="0"/>
      <point x="794" y="279"/>
      <point x="794" y="566" type="curve" smooth="yes"/>
      <point x="794" y="778"/>
      <point x="643" y="956"/>
      <point x="424" y="956" type="curve" smooth="yes"/>
      <point x="213" y="956"/>
      <point x="58" y="812"/>
      <point x="58" y="624" type="curve" smooth="yes"/>
      <point x="58" y="468"/>
      <point x="176" y="345"/>
      <point x="327" y="345" type="curve" smooth="yes"/>
      <point x="412" y="345"/>
      <point x="509" y="418"/>
    </contour>
  </outline>
</glyph>
<glyph name="less" format="2">
  <advance width="866"/>
  <unicode hex="003C"/>
  <outline>
    <contour>
      <point x="85" y="327" type="line"/>
      <point x="781" y="46" type="line"/>
      <point x="781" y="210" type="line"/>
      <point x="141" y="462" type="line"/>
      <point x="141" y="353" type="line"/>
      <point x="781" y="609" type="line"/>
      <point x="781" y="775" type="line"/>
      <point x="85" y="494" type="line"/>
    </contour>
  </outline>
</glyph>
<glyph name="greater" format="2">
  <advance width="866"/>
  <unicode hex="003E"/>
  <outline>
    <contour>
      <point x="781" y="327" type="line"/>
      <point x="781" y="494" type="line"/>
      <point x="85" y="775" type="line"/>
      <point x="85" y="609" type="line"/>
      <point x="725" y="353" type="line"/>
      <point x="725" y="462" type="line"/>
      <point x="85" y="210" type="line"/>
      <point x="85" y="46" type="line"/>
    </contour>
  </outline>
</glyph>
<glyph name="at" format="2">
  <advance width="1599"/>
  <unicode hex="0040"/>
  <note>
at
</note>
  <outline>
    <contour>
      <point x="820" y="-364" type="curve" smooth="yes"/>
      <point x="944" y="-364"/>
      <point x="1053" y="-341"/>
      <point x="1149" y="-301" type="curve"/>
      <point x="1117" y="-211" type="line"/>
      <point x="1035" y="-243"/>
      <point x="945" y="-260"/>
      <point x="833" y="-260" type="curve" smooth="yes"/>
      <point x="499" y="-260"/>
      <point x="286" y="-69"/>
      <point x="286" y="285" type="curve" smooth="yes"/>
      <point x="286" y="638"/>
      <point x="504" y="853"/>
      <point x="865" y="853" type="curve" smooth="yes"/>
      <point x="1172" y="853"/>
      <point x="1361" y="739"/>
      <point x="1361" y="452" type="curve" smooth="yes"/>
      <point x="1361" y="223"/>
      <point x="1271" y="110"/>
      <point x="1162" y="110" type="curve"/>
      <point x="1152" y="131"/>
      <point x="1149" y="157"/>
      <point x="1149" y="245" type="curve"/>
      <point x="1154" y="479" type="line"/>
      <point x="1154" y="629"/>
      <point x="1029" y="723"/>
      <point x="828" y="723" type="curve"/>
      <point x="737" y="712"/>
      <point x="517" y="609"/>
      <point x="517" y="520" type="curve" smooth="yes"/>
      <point x="517" y="463"/>
      <point x="568" y="431"/>
      <point x="645" y="431" type="curve" smooth="yes"/>
      <point x="666" y="431"/>
      <point x="688" y="433"/>
      <point x="713" y="438" type="curve"/>
      <point x="724" y="547" type="line" smooth="yes"/>
      <point x="727" y="585"/>
      <point x="737" y="598"/>
      <point x="767" y="598" type="curve" smooth="yes"/>
      <point x="839" y="598"/>
      <point x="912" y="534"/>
      <point x="912" y="468" type="curve" smooth="yes"/>
      <point x="912" y="420" type="line"/>
      <point x="656" y="349" type="line" smooth="yes"/>
      <point x="557" y="321"/>
      <point x="510" y="269"/>
      <point x="510" y="187" type="curve" smooth="yes"/>
      <point x="510" y="107"/>
      <point x="599" y="-12"/>
      <point x="754" y="-12" type="curve" smooth="yes"/>
      <point x="817" y="-12"/>
      <point x="891" y="38"/>
      <point x="957" y="123" type="curve"/>
      <point x="918" y="131" type="line"/>
      <point x="952" y="54" type="line" smooth="yes"/>
      <point x="969" y="9"/>
      <point x="1001" y="-12"/>
      <point x="1075" y="-12" type="curve" smooth="yes"/>
      <point x="1303" y="-12"/>
      <point x="1531" y="207"/>
      <point x="1531" y="457" type="curve" smooth="yes"/>
      <point x="1531" y="781"/>
      <point x="1231" y="951"/>
      <point x="868" y="951" type="curve" smooth="yes"/>
      <point x="428" y="951"/>
      <point x="77" y="694"/>
      <point x="77" y="269" type="curve" smooth="yes"/>
      <point x="77" y="-126"/>
      <point x="398" y="-364"/>
    </contour>
    <contour>
      <point x="849" y="147" type="curve" smooth="yes"/>
      <point x="799" y="147"/>
      <point x="754" y="195"/>
      <point x="754" y="243" type="curve" smooth="yes"/>
      <point x="754" y="282"/>
      <point x="775" y="309"/>
      <point x="828" y="314" type="curve" smooth="yes"/>
      <point x="913" y="325" type="line"/>
      <point x="913" y="173" type="line"/>
      <point x="896" y="155"/>
      <point x="870" y="147"/>
    </contour>
  </outline>
</glyph>
<glyph name="C" format="2">
  <advance width="1012"/>
  <unicode hex="0043"/>
  <note>
C
</note>
  <anchor x="568" y="942" name="above"/>
  <anchor x="568" y="0" name="below"/>
  <outline>
    <contour>
      <point x="605" y="-14" type="curve" smooth="yes"/>
      <point x="735" y="-14"/>
      <point x="861" y="24"/>
      <point x="929" y="70" type="curve"/>
      <point x="975" y="288" type="line"/>
      <point x="857" y="301" type="line"/>
      <point x="802" y="152" type="line"/>
      <point x="763" y="120"/>
      <point x="707" y="105"/>
      <point x="648" y="105" type="curve" smooth="yes"/>
      <point x="489" y="105"/>
      <point x="361" y="255"/>
      <point x="361" y="495" type="curve" smooth="yes"/>
      <point x="361" y="717"/>
      <point x="463" y="842"/>
      <point x="630" y="842" type="curve" smooth="yes"/>
      <point x="675" y="842"/>
      <point x="719" y="832"/>
      <point x="760" y="813" type="curve"/>
      <point x="821" y="640" type="line"/>
      <point x="929" y="646" type="line"/>
      <point x="918" y="900" type="line"/>
      <point x="853" y="932"/>
      <point x="746" y="956"/>
      <point x="645" y="956" type="curve" smooth="yes"/>
      <point x="322" y="956"/>
      <point x="70" y="776"/>
      <point x="70" y="452" type="curve" smooth="yes"/>
      <point x="70" y="158"/>
      <point x="280" y="-14"/>
    </contour>
  </outline>
</glyph>
<glyph name="F" format="2">
  <advance width="887"/>
  <unicode hex="0046"/>
  <note>
F
</note>
  <anchor x="426" y="942" name="above"/>
  <anchor x="287" y="0" name="below"/>
  <outline>
    <contour>
      <point x="62" y="0" type="line"/>
      <point x="547" y="0" type="line"/>
      <point x="552" y="89" type="line"/>
      <point x="422" y="113" type="line"/>
      <point x="418" y="126"/>
      <point x="410" y="231"/>
      <point x="410" y="261" type="curve"/>
      <point x="409" y="643" type="line"/>
      <point x="409" y="815"/>
      <point x="407" y="812"/>
      <point x="409" y="834" type="curve"/>
      <point x="431" y="839"/>
      <point x="468" y="842"/>
      <point x="507" y="842" type="curve" smooth="yes"/>
      <point x="609" y="842" type="line" smooth="yes"/>
      <point x="635" y="842"/>
      <point x="654" y="841"/>
      <point x="685" y="834" type="curve"/>
      <point x="749" y="690" type="line"/>
      <point x="849" y="704" type="line"/>
      <point x="802" y="951" type="line"/>
      <point x="749" y="948"/>
      <point x="603" y="942"/>
      <point x="528" y="942" type="curve" smooth="yes"/>
      <point x="59" y="942" type="line"/>
      <point x="54" y="855" type="line"/>
      <point x="157" y="828" type="line"/>
      <point x="162" y="816"/>
      <point x="168" y="702"/>
      <point x="168" y="569" type="curve"/>
      <point x="166" y="367" type="line"/>
      <point x="166" y="240"/>
      <point x="160" y="126"/>
      <point x="155" y="113" type="curve"/>
      <point x="57" y="86" type="line"/>
    </contour>
    <contour>
      <point x="627" y="298" type="line"/>
      <point x="728" y="298" type="line"/>
      <point x="728" y="637" type="line"/>
      <point x="627" y="637" type="line"/>
      <point x="613" y="532" type="line"/>
      <point x="597" y="532"/>
      <point x="560" y="529"/>
      <point x="516" y="529" type="curve" smooth="yes"/>
      <point x="439" y="529" type="line" smooth="yes"/>
      <point x="399" y="529"/>
      <point x="362" y="532"/>
      <point x="341" y="534" type="curve"/>
      <point x="341" y="410" type="line"/>
      <point x="361" y="412"/>
      <point x="396" y="417"/>
      <point x="439" y="417" type="curve" smooth="yes"/>
      <point x="516" y="417" type="line" smooth="yes"/>
      <point x="545" y="417"/>
      <point x="582" y="415"/>
      <point x="613" y="412" type="curve"/>
    </contour>
  </outline>
</glyph>
<glyph name="G" format="2">
  <advance width="1069"/>
  <unicode hex="0047"/>
  <note>
G
</note>
  <anchor x="564" y="942" name="above"/>
  <anchor x="564" y="0" name="below"/>
  <outline>
    <contour>
      <point x="595" y="-14" type="curve" smooth="yes"/>
      <point x="715" y="-14"/>
      <point x="839" y="12"/>
      <point x="935" y="70" type="curve"/>
      <point x="932" y="131"/>
      <point x="930" y="179"/>
      <point x="930" y="208" type="curve" smooth="yes"/>
      <point x="930" y="251"/>
      <point x="929" y="303"/>
      <point x="930" y="330" type="curve"/>
      <point x="1014" y="359" type="line"/>
      <point x="1009" y="446" type="line"/>
      <point x="574" y="446" type="line"/>
      <point x="569" y="356" type="line"/>
      <point x="685" y="329" type="line"/>
      <point x="688" y="300"/>
      <point x="693" y="242"/>
      <point x="693" y="205" type="curve" smooth="yes"/>
      <point x="693" y="33" type="line"/>
      <point x="728" y="120" type="line"/>
      <point x="702" y="109"/>
      <point x="664" y="104"/>
      <point x="643" y="104" type="curve" smooth="yes"/>
      <point x="483" y="104"/>
      <point x="353" y="255"/>
      <point x="353" y="495" type="curve" smooth="yes"/>
      <point x="353" y="717"/>
      <point x="460" y="842"/>
      <point x="627" y="842" type="curve" smooth="yes"/>
      <point x="667" y="842"/>
      <point x="714" y="836"/>
      <point x="755" y="813" type="curve"/>
      <point x="807" y="664" type="line"/>
      <point x="918" y="667" type="line"/>
      <point x="911" y="900" type="line"/>
      <point x="849" y="932"/>
      <point x="743" y="956"/>
      <point x="643" y="956" type="curve" smooth="yes"/>
      <point x="317" y="956"/>
      <point x="67" y="776"/>
      <point x="67" y="444" type="curve" smooth="yes"/>
      <point x="67" y="158"/>
      <point x="280" y="-14"/>
    </contour>
  </outline>
</glyph>
<glyph name="M" format="2">
  <advance width="1456"/>
  <unicode hex="004D"/>
  <note>
M
</note>
  <anchor x="675" y="942" name="above"/>
  <anchor x="675" y="0" name="below"/>
  <outline>
    <contour>
      <point x="73" y="942" type="line"/>
      <point x="69" y="855" type="line"/>
      <point x="171" y="828" type="line"/>
      <point x="171" y="802"/>
      <point x="173" y="736"/>
      <point x="171" y="629" type="curve" smooth="yes"/>
      <point x="166" y="337" type="line" smooth="yes"/>
      <point x="165" y="243"/>
      <point x="163" y="131"/>
      <point x="160" y="113" type="curve"/>
      <point x="48" y="86" type="line"/>
      <point x="52" y="0" type="line"/>
      <point x="415" y="0" type="line"/>
      <point x="420" y="86" type="line"/>
      <point x="308" y="113" type="line"/>
      <point x="304" y="123"/>
      <point x="303" y="181"/>
      <point x="303" y="340" type="curve" smooth="yes"/>
      <point x="301" y="895" type="line"/>
      <point x="181" y="895" type="line"/>
      <point x="619" y="-4" type="line"/>
      <point x="736" y="-4" type="line"/>
      <point x="1117" y="895" type="line"/>
      <point x="1032" y="895" type="line"/>
      <point x="1038" y="362" type="line" smooth="yes"/>
      <point x="1040" y="229"/>
      <point x="1038" y="126"/>
      <point x="1035" y="113" type="curve"/>
      <point x="930" y="86" type="line"/>
      <point x="935" y="0" type="line"/>
      <point x="1404" y="0" type="line"/>
      <point x="1409" y="86" type="line"/>
      <point x="1304" y="113" type="line"/>
      <point x="1301" y="125"/>
      <point x="1292" y="229"/>
      <point x="1287" y="356" type="curve" smooth="yes"/>
      <point x="1277" y="632" type="line" smooth="yes"/>
      <point x="1274" y="730"/>
      <point x="1272" y="792"/>
      <point x="1274" y="829" type="curve"/>
      <point x="1377" y="855" type="line"/>
      <point x="1372" y="942" type="line"/>
      <point x="1007" y="942" type="line"/>
      <point x="714" y="250" type="line"/>
      <point x="767" y="250" type="line"/>
      <point x="431" y="942" type="line"/>
    </contour>
  </outline>
</glyph>
<glyph name="T" format="2">
  <advance width="1017"/>
  <unicode hex="0054"/>
  <note>
T
</note>
  <anchor x="508" y="942" name="above"/>
  <anchor x="507" y="0" name="below"/>
  <anchor x="508" y="486" name="stroke"/>
  <outline>
    <contour>
      <point x="950" y="951" type="line"/>
      <point x="906" y="950"/>
      <point x="760" y="942"/>
      <point x="701" y="942" type="curve" smooth="yes"/>
      <point x="309" y="942" type="line" smooth="yes"/>
      <point x="248" y="942"/>
      <point x="104" y="950"/>
      <point x="60" y="951" type="curve"/>
      <point x="27" y="656" type="line"/>
      <point x="136" y="646" type="line"/>
      <point x="194" y="836" type="line"/>
      <point x="215" y="839"/>
      <point x="245" y="841"/>
      <point x="277" y="841" type="curve" smooth="yes"/>
      <point x="330" y="841" type="line" smooth="yes"/>
      <point x="348" y="841"/>
      <point x="372" y="841"/>
      <point x="381" y="837" type="curve"/>
      <point x="383" y="818"/>
      <point x="385" y="659"/>
      <point x="385" y="510" type="curve" smooth="yes"/>
      <point x="385" y="383" type="line" smooth="yes"/>
      <point x="385" y="268"/>
      <point x="381" y="168"/>
      <point x="380" y="113" type="curve"/>
      <point x="239" y="89" type="line"/>
      <point x="243" y="0" type="line"/>
      <point x="773" y="0" type="line"/>
      <point x="778" y="89" type="line"/>
      <point x="637" y="113" type="line"/>
      <point x="635" y="168"/>
      <point x="632" y="268"/>
      <point x="632" y="383" type="curve" smooth="yes"/>
      <point x="632" y="510" type="line" smooth="yes"/>
      <point x="632" y="659"/>
      <point x="633" y="818"/>
      <point x="635" y="837" type="curve"/>
      <point x="645" y="841"/>
      <point x="667" y="841"/>
      <point x="686" y="841" type="curve" smooth="yes"/>
      <point x="738" y="841" type="line" smooth="yes"/>
      <point x="770" y="841"/>
      <point x="794" y="839"/>
      <point x="815" y="836" type="curve"/>
      <point x="879" y="650" type="line"/>
      <point x="988" y="658" type="line"/>
    </contour>
  </outline>
</glyph>
<glyph name="W" format="2">
  <advance width="1594"/>
  <unicode hex="0057"/>
  <note>
W
</note>
  <anchor x="810" y="942" name="above"/>
  <anchor x="810" y="0" name="below"/>
  <outline>
    <contour>
      <point x="813" y="625" type="line"/>
      <point x="736" y="773" type="line"/>
      <point x="520" y="231" type="line"/>
      <point x="613" y="231" type="line"/>
      <point x="361" y="828" type="line"/>
      <point x="441" y="855" type="line"/>
      <point x="436" y="942" type="line"/>
      <point x="0" y="942" type="line"/>
      <point x="-4" y="855" type="line"/>
      <point x="78" y="828" type="line"/>
      <point x="449" y="-4" type="line"/>
      <point x="542" y="-4" type="line"/>
    </contour>
    <contour>
      <point x="1051" y="-4" type="line"/>
      <point x="1142" y="-4" type="line"/>
      <point x="1511" y="828" type="line"/>
      <point x="1596" y="855" type="line"/>
      <point x="1592" y="942" type="line"/>
      <point x="1250" y="942" type="line"/>
      <point x="1245" y="855" type="line"/>
      <point x="1354" y="828" type="line"/>
      <point x="1126" y="231" type="line"/>
      <point x="1203" y="231" type="line"/>
      <point x="948" y="828" type="line"/>
      <point x="1051" y="855" type="line"/>
      <point x="1046" y="942" type="line"/>
      <point x="598" y="942" type="line"/>
      <point x="593" y="855" type="line"/>
      <point x="674" y="828" type="line"/>
    </contour>
  </outline>
</glyph>
<glyph name="Z" format="2">
  <advance width="901"/>
  <unicode hex="005A"/>
  <note>
Z
</note>
  <anchor x="446" y="942" name="above"/>
  <anchor x="446" y="0" name="below"/>
  <outline>
    <contour>
      <point x="824" y="-9" type="curve"/>
      <point x="876" y="285" type="line"/>
      <point x="768" y="300" type="line"/>
      <point x="701" y="115" type="line"/>
      <point x="669" y="109"/>
      <point x="651" y="107"/>
      <point x="601" y="107" type="curve" smooth="yes"/>
      <point x="333" y="107" type="line"/>
      <point x="333" y="38" type="line"/>
      <point x="823" y="852" type="line"/>
      <point x="823" y="945" type="line"/>
      <point x="781" y="943"/>
      <point x="736" y="942"/>
      <point x="694" y="942" type="curve" smooth="yes"/>
      <point x="229" y="942" type="line" smooth="yes"/>
      <point x="189" y="942"/>
      <point x="115" y="942"/>
      <point x="64" y="946" type="curve"/>
      <point x="67" y="667" type="line"/>
      <point x="178" y="667" type="line"/>
      <point x="210" y="832" type="line"/>
      <point x="247" y="837"/>
      <point x="280" y="842"/>
      <point x="351" y="842" type="curve" smooth="yes"/>
      <point x="593" y="842" type="line"/>
      <point x="593" y="914" type="line"/>
      <point x="93" y="86" type="line"/>
      <point x="93" y="-6" type="line"/>
      <point x="134" y="-1"/>
      <point x="181" y="0"/>
      <point x="226" y="0" type="curve" smooth="yes"/>
      <point x="589" y="0" type="line" smooth="yes"/>
      <point x="648" y="0"/>
      <point x="781" y="-8"/>
    </contour>
  </outline>
</glyph>
<glyph name="asciicircum" format="2">
  <advance width="866"/>
  <unicode hex="005E"/>
  <outline>
    <contour>
      <point x="511" y="902" type="line"/>
      <point x="353" y="902" type="line"/>
      <point x="69" y="205" type="line"/>
      <point x="227" y="205" type="line"/>
      <point x="486" y="841" type="line"/>
      <point x="380" y="841" type="line"/>
      <point x="637" y="205" type="line"/>
      <point x="799" y="205" type="line"/>
    </contour>
  </outline>
</glyph>
<glyph name="underscore" format="2">
  <advance width="811"/>
  <unicode hex="005F"/>
  <note>
underscore
</note>
  <outline>
    <contour>
      <point x="51" y="-125" type="line"/>
      <point x="760" y="-125" type="line"/>
      <point x="760" y="0" type="line"/>
      <point x="51" y="0" type="line"/>
    </contour>
  </outline>
</glyph>
<glyph name="e" format="2">
  <advance width="782"/>
  <unicode hex="0065"/>
  <note>
e
</note>
  <anchor x="414" y="711" name="above"/>
  <anchor x="414" y="0" name="below"/>
  <anchor x="643" y="0" name="ogonek"/>
  <outline>
    <contour>
      <point x="420" y="-12" type="curve" smooth="yes"/>
      <point x="563" y="-12"/>
      <point x="683" y="59"/>
      <point x="743" y="192" type="curve"/>
      <point x="691" y="243" type="line"/>
      <point x="635" y="181"/>
      <point x="577" y="157"/>
      <point x="505" y="157" type="curve" smooth="yes"/>
      <point x="370" y="157"/>
      <point x="285" y="255"/>
      <point x="285" y="396" type="curve" smooth="yes"/>
      <point x="285" y="433" type="line" smooth="yes"/>
      <point x="285" y="564"/>
      <point x="340" y="625"/>
      <point x="414" y="625" type="curve" smooth="yes"/>
      <point x="487" y="625"/>
      <point x="529" y="566"/>
      <point x="529" y="471" type="curve" smooth="yes"/>
      <point x="529" y="409" type="line"/>
      <point x="558" y="454" type="line"/>
      <point x="264" y="454" type="line"/>
      <point x="264" y="365" type="line"/>
      <point x="733" y="365" type="line"/>
      <point x="733" y="407" type="line" smooth="yes"/>
      <point x="733" y="595"/>
      <point x="619" y="723"/>
      <point x="426" y="723" type="curve" smooth="yes"/>
      <point x="234" y="723"/>
      <point x="52" y="566"/>
      <point x="52" y="345" type="curve" smooth="yes"/>
      <point x="52" y="147"/>
      <point x="203" y="-12"/>
    </contour>
  </outline>
</glyph>
<glyph name="g" format="2">
  <advance width="849"/>
  <unicode hex="0067"/>
  <note>
g
</note>
  <anchor x="414" y="711" name="above"/>
  <anchor x="423" y="-353" name="below"/>
  <outline>
    <contour>
      <point x="398" y="-365" type="curve" smooth="yes"/>
      <point x="640" y="-365"/>
      <point x="816" y="-245"/>
      <point x="816" y="-93" type="curve" smooth="yes"/>
      <point x="816" y="17"/>
      <point x="743" y="91"/>
      <point x="582" y="107" type="curve" smooth="yes"/>
      <point x="317" y="133" type="line" smooth="yes"/>
      <point x="293" y="136"/>
      <point x="280" y="147"/>
      <point x="280" y="170" type="curve" smooth="yes"/>
      <point x="280" y="187"/>
      <point x="295" y="203"/>
      <point x="314" y="215" type="curve"/>
      <point x="287" y="240" type="line"/>
      <point x="162" y="207"/>
      <point x="85" y="142"/>
      <point x="85" y="72" type="curve" smooth="yes"/>
      <point x="85" y="3"/>
      <point x="149" y="-41"/>
      <point x="268" y="-41" type="curve"/>
      <point x="279" y="-49" type="line"/>
      <point x="499" y="-69" type="line" smooth="yes"/>
      <point x="579" y="-77"/>
      <point x="609" y="-99"/>
      <point x="609" y="-147" type="curve" smooth="yes"/>
      <point x="609" y="-215"/>
      <point x="526" y="-268"/>
      <point x="417" y="-268" type="curve" smooth="yes"/>
      <point x="303" y="-268"/>
      <point x="242" y="-229"/>
      <point x="242" y="-160" type="curve" smooth="yes"/>
      <point x="242" y="-115"/>
      <point x="272" y="-67"/>
      <point x="316" y="-32" type="curve"/>
      <point x="245" y="-28" type="line"/>
      <point x="113" y="-54"/>
      <point x="22" y="-121"/>
      <point x="22" y="-192" type="curve" smooth="yes"/>
      <point x="22" y="-301"/>
      <point x="160" y="-365"/>
    </contour>
    <contour>
      <point x="402" y="186" type="curve" smooth="yes"/>
      <point x="603" y="186"/>
      <point x="739" y="293"/>
      <point x="739" y="449" type="curve" smooth="yes"/>
      <point x="739" y="605"/>
      <point x="600" y="727"/>
      <point x="412" y="727" type="curve" smooth="yes"/>
      <point x="218" y="727"/>
      <point x="69" y="613"/>
      <point x="69" y="454" type="curve" smooth="yes"/>
      <point x="69" y="292"/>
      <point x="199" y="186"/>
    </contour>
    <contour>
      <point x="417" y="288" type="curve" smooth="yes"/>
      <point x="356" y="288"/>
      <point x="314" y="357"/>
      <point x="314" y="459" type="curve" smooth="yes"/>
      <point x="314" y="556"/>
      <point x="353" y="624"/>
      <point x="410" y="624" type="curve" smooth="yes"/>
      <point x="471" y="624"/>
      <point x="511" y="553"/>
      <point x="511" y="449" type="curve" smooth="yes"/>
      <point x="511" y="349"/>
      <point x="475" y="288"/>
    </contour>
    <contour>
      <point x="824" y="568" type="line"/>
      <point x="824" y="706" type="line"/>
      <point x="563" y="672" type="line"/>
      <point x="600" y="592" type="line"/>
    </contour>
  </outline>
</glyph>
<glyph name="p" format="2">
  <advance width="921"/>
  <unicode hex="0070"/>
  <note>
p
</note>
  <anchor x="465" y="711" name="above"/>
  <outline>
    <contour>
      <point x="19" y="-353" type="line"/>
      <point x="494" y="-353" type="line"/>
      <point x="499" y="-272" type="line"/>
      <point x="367" y="-245" type="line"/>
      <point x="362" y="-227"/>
      <point x="359" y="-157"/>
      <point x="359" y="-89" type="curve" smooth="yes"/>
      <point x="359" y="4" type="line"/>
      <point x="396" y="-6"/>
      <point x="431" y="-11"/>
      <point x="460" y="-11" type="curve" smooth="yes"/>
      <point x="714" y="-11"/>
      <point x="866" y="179"/>
      <point x="866" y="388" type="curve" smooth="yes"/>
      <point x="866" y="606"/>
      <point x="722" y="723"/>
      <point x="574" y="723" type="curve" smooth="yes"/>
      <point x="487" y="723"/>
      <point x="404" y="669"/>
      <point x="356" y="585" type="curve"/>
      <point x="351" y="589" type="line"/>
      <point x="364" y="691" type="line"/>
      <point x="314" y="720" type="line"/>
      <point x="11" y="643" type="line"/>
      <point x="11" y="564" type="line"/>
      <point x="113" y="542" type="line"/>
      <point x="123" y="483"/>
      <point x="126" y="444"/>
      <point x="126" y="381" type="curve" smooth="yes"/>
      <point x="123" y="88" type="line" smooth="yes"/>
      <point x="121" y="-33"/>
      <point x="115" y="-215"/>
      <point x="113" y="-245" type="curve"/>
      <point x="14" y="-274" type="line"/>
    </contour>
    <contour>
      <point x="462" y="113" type="curve" smooth="yes"/>
      <point x="426" y="113"/>
      <point x="388" y="125"/>
      <point x="359" y="142" type="curve"/>
      <point x="359" y="500" type="line"/>
      <point x="386" y="532"/>
      <point x="426" y="555"/>
      <point x="465" y="555" type="curve" smooth="yes"/>
      <point x="537" y="555"/>
      <point x="614" y="502"/>
      <point x="614" y="332" type="curve" smooth="yes"/>
      <point x="614" y="170"/>
      <point x="547" y="113"/>
    </contour>
  </outline>
</glyph>
<glyph name="q" format="2">
  <advance width="899"/>
  <unicode hex="0071"/>
  <note>
q
</note>
  <anchor x="459" y="711" name="above"/>
  <outline>
    <contour>
      <point x="441" y="-353" type="line"/>
      <point x="887" y="-353" type="line"/>
      <point x="892" y="-274" type="line"/>
      <point x="792" y="-245" type="line"/>
      <point x="789" y="-227"/>
      <point x="786" y="-150"/>
      <point x="784" y="-25" type="curve" smooth="yes"/>
      <point x="783" y="415" type="line" smooth="yes"/>
      <point x="781" y="521"/>
      <point x="784" y="672"/>
      <point x="788" y="751" type="curve"/>
      <point x="720" y="751" type="line"/>
      <point x="642" y="685" type="line"/>
      <point x="592" y="707"/>
      <point x="531" y="720"/>
      <point x="462" y="720" type="curve" smooth="yes"/>
      <point x="248" y="720"/>
      <point x="52" y="574"/>
      <point x="52" y="332" type="curve" smooth="yes"/>
      <point x="52" y="120"/>
      <point x="203" y="-17"/>
      <point x="367" y="-17" type="curve" smooth="yes"/>
      <point x="433" y="-17"/>
      <point x="500" y="12"/>
      <point x="552" y="113" type="curve"/>
      <point x="556" y="110" type="line"/>
      <point x="555" y="-91" type="line" smooth="yes"/>
      <point x="555" y="-168"/>
      <point x="553" y="-223"/>
      <point x="552" y="-245" type="curve"/>
      <point x="436" y="-274" type="line"/>
    </contour>
    <contour>
      <point x="455" y="155" type="curve" smooth="yes"/>
      <point x="377" y="155"/>
      <point x="303" y="237"/>
      <point x="303" y="393" type="curve" smooth="yes"/>
      <point x="303" y="534"/>
      <point x="367" y="616"/>
      <point x="459" y="616" type="curve" smooth="yes"/>
      <point x="491" y="616"/>
      <point x="526" y="605"/>
      <point x="552" y="579" type="curve"/>
      <point x="550" y="215" type="line"/>
      <point x="528" y="173"/>
      <point x="476" y="155"/>
    </contour>
  </outline>
</glyph>
<glyph name="r" format="2">
  <advance width="687"/>
  <unicode hex="0072"/>
  <note>
r
</note>
  <anchor x="327" y="711" name="above"/>
  <anchor x="250" y="0" name="below"/>
  <outline>
    <contour>
      <point x="25" y="0" type="line"/>
      <point x="510" y="0" type="line"/>
      <point x="515" y="81" type="line"/>
      <point x="375" y="107" type="line"/>
      <point x="373" y="123"/>
      <point x="370" y="207"/>
      <point x="369" y="337" type="curve" smooth="yes"/>
      <point x="367" y="457" type="line"/>
      <point x="386" y="495"/>
      <point x="414" y="531"/>
      <point x="447" y="553" type="curve"/>
      <point x="394" y="556" type="line"/>
      <point x="447" y="502"/>
      <point x="486" y="487"/>
      <point x="540" y="487" type="curve" smooth="yes"/>
      <point x="606" y="487"/>
      <point x="666" y="534"/>
      <point x="666" y="608" type="curve" smooth="yes"/>
      <point x="666" y="683"/>
      <point x="609" y="717"/>
      <point x="550" y="717" type="curve" smooth="yes"/>
      <point x="479" y="717"/>
      <point x="418" y="682"/>
      <point x="359" y="563" type="curve"/>
      <point x="354" y="564" type="line"/>
      <point x="361" y="691" type="line"/>
      <point x="312" y="720" type="line"/>
      <point x="14" y="643" type="line"/>
      <point x="14" y="564" type="line"/>
      <point x="117" y="542" type="line"/>
      <point x="126" y="479"/>
      <point x="130" y="444"/>
      <point x="130" y="385" type="curve"/>
      <point x="128" y="264" type="line" smooth="yes"/>
      <point x="126" y="202"/>
      <point x="121" y="121"/>
      <point x="120" y="107" type="curve"/>
      <point x="20" y="78" type="line"/>
    </contour>
  </outline>
</glyph>
<glyph name="braceleft" format="2">
  <advance width="617"/>
  <unicode hex="007B"/>
  <note>
braceleft
</note>
  <outline>
    <contour>
      <point x="414" y="-120" type="curve" smooth="yes"/>
      <point x="414" y="-14"/>
      <point x="476" y="60"/>
      <point x="476" y="189" type="curve" smooth="yes"/>
      <point x="476" y="312"/>
      <point x="380" y="409"/>
      <point x="245" y="425" type="curve"/>
      <point x="245" y="402" type="line"/>
      <point x="378" y="417"/>
      <point x="476" y="491"/>
      <point x="476" y="616" type="curve" smooth="yes"/>
      <point x="476" y="744"/>
      <point x="414" y="820"/>
      <point x="414" y="926" type="curve" smooth="yes"/>
      <point x="414" y="1030"/>
      <point x="483" y="1072"/>
      <point x="569" y="1081" type="curve"/>
      <point x="545" y="1171" type="line"/>
      <point x="303" y="1145"/>
      <point x="142" y="1068"/>
      <point x="142" y="897" type="curve" smooth="yes"/>
      <point x="142" y="778"/>
      <point x="234" y="667"/>
      <point x="234" y="572" type="curve" smooth="yes"/>
      <point x="234" y="502"/>
      <point x="208" y="463"/>
      <point x="72" y="459" type="curve"/>
      <point x="72" y="346" type="line"/>
      <point x="208" y="341"/>
      <point x="234" y="303"/>
      <point x="234" y="232" type="curve" smooth="yes"/>
      <point x="234" y="138"/>
      <point x="142" y="27"/>
      <point x="142" y="-91" type="curve" smooth="yes"/>
      <point x="142" y="-263"/>
      <point x="303" y="-340"/>
      <point x="545" y="-365" type="curve"/>
      <point x="569" y="-276" type="line"/>
      <point x="483" y="-266"/>
      <point x="414" y="-224"/>
    </contour>
  </outline>
</glyph>
<glyph name="braceright" format="2">
  <advance width="617"/>
  <unicode hex="007D"/>
  <note>
braceright
</note>
  <outline>
    <contour>
      <point x="202" y="-120" type="curve" smooth="yes"/>
      <point x="202" y="-224"/>
      <point x="131" y="-266"/>
      <point x="48" y="-276" type="curve"/>
      <point x="72" y="-365" type="line"/>
      <point x="314" y="-340"/>
      <point x="473" y="-263"/>
      <point x="473" y="-91" type="curve" smooth="yes"/>
      <point x="473" y="27"/>
      <point x="383" y="138"/>
      <point x="383" y="232" type="curve" smooth="yes"/>
      <point x="383" y="303"/>
      <point x="406" y="341"/>
      <point x="545" y="346" type="curve"/>
      <point x="545" y="459" type="line"/>
      <point x="406" y="463"/>
      <point x="383" y="502"/>
      <point x="383" y="572" type="curve" smooth="yes"/>
      <point x="383" y="667"/>
      <point x="473" y="778"/>
      <point x="473" y="897" type="curve" smooth="yes"/>
      <point x="473" y="1068"/>
      <point x="314" y="1145"/>
      <point x="72" y="1171" type="curve"/>
      <point x="48" y="1081" type="line"/>
      <point x="131" y="1072"/>
      <point x="202" y="1030"/>
      <point x="202" y="926" type="curve" smooth="yes"/>
      <point x="202" y="820"/>
      <point x="139" y="744"/>
      <point x="139" y="616" type="curve" smooth="yes"/>
      <point x="139" y="491"/>
      <point x="235" y="417"/>
      <point x="372" y="402" type="curve"/>
      <point x="372" y="425" type="line"/>
      <point x="235" y="409"/>
      <point x="139" y="312"/>
      <point x="139" y="189" type="curve" smooth="yes"/>
      <point x="139" y="60"/>
      <point x="202" y="-14"/>
    </contour>
  </outline>
</glyph>
<glyph name="asciitilde" format="2">
  <advance width="866"/>
  <unicode hex="007E"/>
  <outline>
    <contour>
      <point x="707" y="502" type="line"/>
      <point x="683" y="457"/>
      <point x="650" y="431"/>
      <point x="608" y="431" type="curve" smooth="yes"/>
      <point x="537" y="431"/>
      <point x="394" y="532"/>
      <point x="279" y="532" type="curve" smooth="yes"/>
      <point x="192" y="532"/>
      <point x="115" y="470"/>
      <point x="85" y="365" type="curve"/>
      <point x="158" y="316" type="line"/>
      <point x="186" y="365"/>
      <point x="219" y="390"/>
      <point x="258" y="390" type="curve" smooth="yes"/>
      <point x="329" y="390"/>
      <point x="471" y="288"/>
      <point x="587" y="288" type="curve" smooth="yes"/>
      <point x="674" y="288"/>
      <point x="751" y="353"/>
      <point x="781" y="454" type="curve"/>
    </contour>
  </outline>
</glyph>
<glyph name="sterling" format="2">
  <advance width="935"/>
  <unicode hex="00A3"/>
  <note>
sterling
</note>
  <outline>
    <contour>
      <point x="83" y="-22" type="line"/>
      <point x="247" y="28"/>
      <point x="282" y="32"/>
      <point x="330" y="32" type="curve" smooth="yes"/>
      <point x="455" y="32"/>
      <point x="473" y="-16"/>
      <point x="654" y="-16" type="curve" smooth="yes"/>
      <point x="791" y="-16"/>
      <point x="892" y="94"/>
      <point x="937" y="243" type="curve"/>
      <point x="860" y="280" type="line"/>
      <point x="824" y="210"/>
      <point x="800" y="184"/>
      <point x="722" y="184" type="curve" smooth="yes"/>
      <point x="646" y="184"/>
      <point x="577" y="216"/>
      <point x="510" y="216" type="curve" smooth="yes"/>
      <point x="430" y="216"/>
      <point x="380" y="178"/>
      <point x="235" y="77" type="curve"/>
      <point x="247" y="51" type="line"/>
      <point x="446" y="232"/>
      <point x="471" y="282"/>
      <point x="471" y="410" type="curve" smooth="yes"/>
      <point x="471" y="526"/>
      <point x="399" y="624"/>
      <point x="399" y="715" type="curve" smooth="yes"/>
      <point x="399" y="799"/>
      <point x="452" y="874"/>
      <point x="569" y="860" type="curve"/>
      <point x="489" y="906" type="line"/>
      <point x="654" y="757" type="line" smooth="yes"/>
      <point x="690" y="727"/>
      <point x="719" y="715"/>
      <point x="763" y="715" type="curve" smooth="yes"/>
      <point x="816" y="715"/>
      <point x="855" y="755"/>
      <point x="855" y="805" type="curve" smooth="yes"/>
      <point x="855" y="898"/>
      <point x="743" y="956"/>
      <point x="572" y="956" type="curve" smooth="yes"/>
      <point x="312" y="956"/>
      <point x="139" y="826"/>
      <point x="139" y="645" type="curve" smooth="yes"/>
      <point x="139" y="563"/>
      <point x="247" y="428"/>
      <point x="247" y="271" type="curve" smooth="yes"/>
      <point x="247" y="157"/>
      <point x="202" y="107"/>
      <point x="65" y="72" type="curve"/>
    </contour>
    <contour>
      <point x="41" y="436" type="line"/>
      <point x="717" y="436" type="line"/>
      <point x="717" y="540" type="line"/>
      <point x="41" y="540" type="line"/>
    </contour>
  </outline>
</glyph>
<glyph name="yen" format="2">
  <advance width="970"/>
  <unicode hex="00A5"/>
  <note>
yen
</note>
  <outline>
    <contour>
      <point x="128" y="394" type="line"/>
      <point x="837" y="394" type="line"/>
      <point x="837" y="495" type="line"/>
      <point x="128" y="495" type="line"/>
    </contour>
    <contour>
      <point x="128" y="210" type="line"/>
      <point x="837" y="210" type="line"/>
      <point x="837" y="311" type="line"/>
      <point x="128" y="311" type="line"/>
    </contour>
    <contour>
      <point x="868" y="828" type="line"/>
      <point x="950" y="855" type="line"/>
      <point x="943" y="942" type="line"/>
      <point x="617" y="942" type="line"/>
      <point x="613" y="855" type="line"/>
      <point x="725" y="828" type="line"/>
      <point x="531" y="487" type="line"/>
      <point x="574" y="487" type="line"/>
      <point x="378" y="828" type="line"/>
      <point x="483" y="855" type="line"/>
      <point x="478" y="942" type="line"/>
      <point x="24" y="942" type="line"/>
      <point x="19" y="855" type="line"/>
      <point x="99" y="828" type="line"/>
      <point x="420" y="274" type="line"/>
      <point x="362" y="452" type="line"/>
      <point x="362" y="288" type="line" smooth="yes"/>
      <point x="362" y="240"/>
      <point x="361" y="126"/>
      <point x="354" y="113" type="curve"/>
      <point x="242" y="88" type="line"/>
      <point x="247" y="0" type="line"/>
      <point x="722" y="0" type="line"/>
      <point x="727" y="88" type="line"/>
      <point x="614" y="113" type="line"/>
      <point x="606" y="126"/>
      <point x="605" y="240"/>
      <point x="605" y="288" type="curve" smooth="yes"/>
      <point x="605" y="452" type="line"/>
      <point x="523" y="274" type="line"/>
    </contour>
  </outline>
</glyph>
<glyph name="section" format="2">
  <advance width="767"/>
  <unicode hex="00A7"/>
  <note>
section
</note>
  <outline>
    <contour>
      <point x="375" y="388" type="line"/>
      <point x="516" y="386"/>
      <point x="711" y="454"/>
      <point x="711" y="608" type="curve" smooth="yes"/>
      <point x="711" y="858"/>
      <point x="319" y="824"/>
      <point x="319" y="951" type="curve" smooth="yes"/>
      <point x="319" y="1001"/>
      <point x="361" y="1025"/>
      <point x="420" y="1025" type="curve" smooth="yes"/>
      <point x="441" y="1025"/>
      <point x="479" y="1022"/>
      <point x="502" y="1011" type="curve"/>
      <point x="529" y="910" type="line"/>
      <point x="643" y="910" type="line"/>
      <point x="627" y="1084" type="line"/>
      <point x="581" y="1105"/>
      <point x="495" y="1121"/>
      <point x="409" y="1121" type="curve" smooth="yes"/>
      <point x="242" y="1121"/>
      <point x="96" y="1028"/>
      <point x="96" y="903" type="curve" smooth="yes"/>
      <point x="96" y="675"/>
      <point x="507" y="699"/>
      <point x="507" y="540" type="curve" smooth="yes"/>
      <point x="507" y="478"/>
      <point x="452" y="434"/>
      <point x="346" y="418" type="curve"/>
    </contour>
    <contour>
      <point x="340" y="-12" type="curve" smooth="yes"/>
      <point x="518" y="-12"/>
      <point x="664" y="83"/>
      <point x="664" y="208" type="curve" smooth="yes"/>
      <point x="664" y="431"/>
      <point x="264" y="407"/>
      <point x="264" y="561" type="curve" smooth="yes"/>
      <point x="264" y="627"/>
      <point x="319" y="670"/>
      <point x="434" y="690" type="curve"/>
      <point x="406" y="720" type="line"/>
      <point x="258" y="720"/>
      <point x="56" y="646"/>
      <point x="56" y="486" type="curve" smooth="yes"/>
      <point x="56" y="251"/>
      <point x="436" y="280"/>
      <point x="436" y="162" type="curve" smooth="yes"/>
      <point x="436" y="117"/>
      <point x="398" y="86"/>
      <point x="322" y="86" type="curve" smooth="yes"/>
      <point x="303" y="86"/>
      <point x="268" y="93"/>
      <point x="245" y="105" type="curve"/>
      <point x="223" y="207" type="line"/>
      <point x="107" y="207" type="line"/>
      <point x="113" y="28" type="line"/>
      <point x="160" y="4"/>
      <point x="242" y="-12"/>
    </contour>
  </outline>
</glyph>
<glyph name="guillemetleft" format="2">
  <advance width="487"/>
  <unicode hex="00AB"/>
  <guideline x="214" y="-82" angle="37.0885"/>
  <outline>
    <component base="guilsinglleft" xOffset="167"/>
    <contour>
      <point x="179" y="-29" type="curve"/>
      <point x="267" y="38" type="line"/>
      <point x="102" y="204"/>
      <point x="105" y="431"/>
      <point x="270" y="597" type="curve"/>
      <point x="218" y="636" type="line"/>
      <point x="37" y="445"/>
      <point x="-4" y="161"/>
    </contour>
  </outline>
</glyph>
<glyph name="plusminus" format="2">
  <advance width="866"/>
  <unicode hex="00B1"/>
  <outline>
    <contour>
      <point x="781" y="555" type="line"/>
      <point x="85" y="555" type="line"/>
      <point x="85" y="409" type="line"/>
      <point x="781" y="409" type="line"/>
    </contour>
    <contour>
      <point x="357" y="759" type="line"/>
      <point x="357" y="203" type="line"/>
      <point x="507" y="203" type="line"/>
      <point x="507" y="759" type="line"/>
    </contour>
    <contour>
      <point x="781" y="149" type="line"/>
      <point x="85" y="149" type="line"/>
      <point x="85" y="0" type="line"/>
      <point x="781" y="0" type="line"/>
    </contour>
  </outline>
</glyph>
<glyph name="twosuperior" format="2">
  <advance width="642"/>
  <unicode hex="00B2"/>
  <note>
uni2082
</note>
  <outline>
    <contour>
      <point x="51" y="394" type="curve"/>
      <point x="52" y="312" type="line"/>
      <point x="83" y="317"/>
      <point x="113" y="319"/>
      <point x="142" y="319" type="curve" smooth="yes"/>
      <point x="383" y="319" type="line" smooth="yes"/>
      <point x="399" y="319"/>
      <point x="528" y="314"/>
      <point x="577" y="311" type="curve"/>
      <point x="621" y="520" type="line"/>
      <point x="529" y="532" type="line"/>
      <point x="497" y="468" type="line"/>
      <point x="462" y="465"/>
      <point x="454" y="463"/>
      <point x="410" y="463" type="curve" smooth="yes"/>
      <point x="235" y="463" type="line"/>
      <point x="232" y="451" type="line"/>
      <point x="426" y="526"/>
      <point x="537" y="637"/>
      <point x="537" y="752" type="curve" smooth="yes"/>
      <point x="537" y="873"/>
      <point x="442" y="951"/>
      <point x="301" y="951" type="curve" smooth="yes"/>
      <point x="176" y="951"/>
      <point x="75" y="893"/>
      <point x="22" y="781" type="curve"/>
      <point x="89" y="735" type="line"/>
      <point x="120" y="783"/>
      <point x="165" y="807"/>
      <point x="216" y="807" type="curve" smooth="yes"/>
      <point x="284" y="807"/>
      <point x="322" y="770"/>
      <point x="322" y="711" type="curve" smooth="yes"/>
      <point x="322" y="616"/>
      <point x="235" y="508"/>
    </contour>
  </outline>
</glyph>
<glyph name="threesuperior" format="2">
  <advance width="642"/>
  <unicode hex="00B3"/>
  <note>
uni2083
</note>
  <outline>
    <contour>
      <point x="330" y="658" type="curve"/>
      <point x="295" y="632" type="line"/>
      <point x="436" y="654"/>
      <point x="534" y="715"/>
      <point x="534" y="805" type="curve" smooth="yes"/>
      <point x="534" y="890"/>
      <point x="447" y="951"/>
      <point x="321" y="951" type="curve" smooth="yes"/>
      <point x="207" y="951"/>
      <point x="105" y="895"/>
      <point x="54" y="804" type="curve"/>
      <point x="121" y="759" type="line"/>
      <point x="149" y="794"/>
      <point x="190" y="812"/>
      <point x="237" y="812" type="curve" smooth="yes"/>
      <point x="296" y="812"/>
      <point x="321" y="786"/>
      <point x="321" y="755" type="curve" smooth="yes"/>
      <point x="321" y="707"/>
      <point x="279" y="672"/>
      <point x="165" y="659" type="curve"/>
      <point x="174" y="579" type="line"/>
      <point x="174" y="579"/>
      <point x="187" y="581"/>
      <point x="208" y="581" type="curve" smooth="yes"/>
      <point x="298" y="581"/>
      <point x="356" y="545"/>
      <point x="356" y="483" type="curve" smooth="yes"/>
      <point x="356" y="412"/>
      <point x="296" y="380"/>
      <point x="231" y="407" type="curve"/>
      <point x="282" y="381" type="line"/>
      <point x="194" y="457" type="line" smooth="yes"/>
      <point x="158" y="486"/>
      <point x="139" y="494"/>
      <point x="115" y="494" type="curve" smooth="yes"/>
      <point x="75" y="494"/>
      <point x="43" y="463"/>
      <point x="43" y="422" type="curve" smooth="yes"/>
      <point x="43" y="359"/>
      <point x="131" y="309"/>
      <point x="248" y="309" type="curve" smooth="yes"/>
      <point x="433" y="309"/>
      <point x="574" y="393"/>
      <point x="574" y="503" type="curve" smooth="yes"/>
      <point x="574" y="605"/>
      <point x="486" y="659"/>
    </contour>
  </outline>
</glyph>
<glyph name="paragraph" format="2">
  <advance width="963"/>
  <unicode hex="00B6"/>
  <note>
paragraph
</note>
  <outline>
    <contour>
      <point x="908" y="0" type="line"/>
      <point x="913" y="86" type="line"/>
      <point x="810" y="113" type="line"/>
      <point x="805" y="130"/>
      <point x="800" y="251"/>
      <point x="800" y="364" type="curve" smooth="yes"/>
      <point x="800" y="577" type="line" smooth="yes"/>
      <point x="800" y="693"/>
      <point x="805" y="813"/>
      <point x="810" y="828" type="curve"/>
      <point x="913" y="855" type="line"/>
      <point x="908" y="942" type="line"/>
      <point x="446" y="942" type="line" smooth="yes"/>
      <point x="211" y="942"/>
      <point x="35" y="823"/>
      <point x="35" y="642" type="curve" smooth="yes"/>
      <point x="35" y="446"/>
      <point x="195" y="338"/>
      <point x="479" y="338" type="curve" smooth="yes"/>
      <point x="560" y="338"/>
      <point x="622" y="346"/>
      <point x="741" y="375" type="curve"/>
      <point x="741" y="499" type="line"/>
      <point x="645" y="471"/>
      <point x="576" y="460"/>
      <point x="489" y="460" type="curve" smooth="yes"/>
      <point x="364" y="460"/>
      <point x="293" y="539"/>
      <point x="293" y="675" type="curve" smooth="yes"/>
      <point x="293" y="786"/>
      <point x="370" y="845"/>
      <point x="475" y="845" type="curve" smooth="yes"/>
      <point x="495" y="845" type="line"/>
      <point x="497" y="815"/>
      <point x="495" y="751"/>
      <point x="495" y="520" type="curve" smooth="yes"/>
      <point x="495" y="264" type="line" smooth="yes"/>
      <point x="495" y="223"/>
      <point x="487" y="125"/>
      <point x="484" y="113" type="curve"/>
      <point x="354" y="89" type="line"/>
      <point x="359" y="0" type="line"/>
    </contour>
    <contour>
      <point x="613" y="845" type="line"/>
      <point x="701" y="845" type="line"/>
      <point x="693" y="96" type="line"/>
      <point x="613" y="96" type="line"/>
    </contour>
  </outline>
</glyph>
<glyph name="questiondown" format="2">
  <advance width="622"/>
  <unicode hex="00BF"/>
  <note>
questiondown
</note>
  <outline>
    <contour>
      <point x="454" y="322" type="curve"/>
      <point x="346" y="322" type="line"/>
      <point x="349" y="296"/>
      <point x="351" y="280"/>
      <point x="351" y="272" type="curve" smooth="yes"/>
      <point x="351" y="158"/>
      <point x="54" y="199"/>
      <point x="54" y="-9" type="curve" smooth="yes"/>
      <point x="54" y="-200"/>
      <point x="251" y="-370"/>
      <point x="467" y="-370" type="curve" smooth="yes"/>
      <point x="558" y="-370"/>
      <point x="616" y="-324"/>
      <point x="616" y="-256" type="curve" smooth="yes"/>
      <point x="616" y="-186"/>
      <point x="553" y="-136"/>
      <point x="470" y="-136" type="curve" smooth="yes"/>
      <point x="409" y="-136"/>
      <point x="357" y="-163"/>
      <point x="303" y="-163" type="curve" smooth="yes"/>
      <point x="250" y="-163"/>
      <point x="221" y="-141"/>
      <point x="221" y="-105" type="curve" smooth="yes"/>
      <point x="221" y="-12"/>
      <point x="486" y="3"/>
      <point x="486" y="170" type="curve" smooth="yes"/>
      <point x="486" y="219"/>
      <point x="475" y="261"/>
    </contour>
    <contour>
      <point x="401" y="723" type="curve" smooth="yes"/>
      <point x="308" y="723"/>
      <point x="234" y="653"/>
      <point x="234" y="561" type="curve" smooth="yes"/>
      <point x="234" y="468"/>
      <point x="308" y="394"/>
      <point x="401" y="394" type="curve" smooth="yes"/>
      <point x="492" y="394"/>
      <point x="568" y="468"/>
      <point x="568" y="561" type="curve" smooth="yes"/>
      <point x="568" y="650"/>
      <point x="494" y="723"/>
    </contour>
  </outline>
</glyph>
<glyph name="multiply" format="2">
  <advance width="866"/>
  <unicode hex="00D7"/>
  <outline>
    <contour>
      <point x="662" y="744" type="line"/>
      <point x="99" y="182" type="line"/>
      <point x="202" y="77" type="line"/>
      <point x="767" y="637" type="line"/>
    </contour>
    <contour>
      <point x="202" y="744" type="line"/>
      <point x="99" y="637" type="line"/>
      <point x="662" y="77" type="line"/>
      <point x="767" y="182" type="line"/>
    </contour>
  </outline>
</glyph>
<glyph name="Thorn" format="2">
  <advance width="949"/>
  <unicode hex="00DE"/>
  <note>
Thorn
</note>
  <outline>
    <contour>
      <point x="60" y="0" type="line"/>
      <point x="537" y="0" type="line"/>
      <point x="542" y="89" type="line"/>
      <point x="412" y="113" type="line"/>
      <point x="410" y="125"/>
      <point x="410" y="163"/>
      <point x="410" y="213" type="curve" smooth="yes"/>
      <point x="410" y="694" type="line"/>
      <point x="442" y="694" type="line" smooth="yes"/>
      <point x="569" y="694"/>
      <point x="637" y="632"/>
      <point x="637" y="491" type="curve" smooth="yes"/>
      <point x="637" y="373"/>
      <point x="585" y="301"/>
      <point x="479" y="301" type="curve" smooth="yes"/>
      <point x="441" y="301"/>
      <point x="406" y="311"/>
      <point x="390" y="324" type="curve"/>
      <point x="390" y="208" type="line"/>
      <point x="420" y="202"/>
      <point x="457" y="195"/>
      <point x="489" y="195" type="curve" smooth="yes"/>
      <point x="755" y="195"/>
      <point x="897" y="335"/>
      <point x="897" y="511" type="curve" smooth="yes"/>
      <point x="897" y="693"/>
      <point x="765" y="791"/>
      <point x="486" y="791" type="curve" smooth="yes"/>
      <point x="346" y="791" type="line"/>
      <point x="409" y="730" type="line"/>
      <point x="409" y="772" type="line" smooth="yes"/>
      <point x="409" y="794"/>
      <point x="410" y="820"/>
      <point x="412" y="831" type="curve"/>
      <point x="515" y="855" type="line"/>
      <point x="510" y="942" type="line"/>
      <point x="56" y="942" type="line"/>
      <point x="51" y="855" type="line"/>
      <point x="154" y="831" type="line"/>
      <point x="160" y="818"/>
      <point x="166" y="712"/>
      <point x="166" y="577" type="curve" smooth="yes"/>
      <point x="166" y="364" type="line" smooth="yes"/>
      <point x="166" y="232"/>
      <point x="160" y="126"/>
      <point x="154" y="113" type="curve"/>
      <point x="56" y="86" type="line"/>
    </contour>
  </outline>
</glyph>
<glyph name="germandbls" format="2">
  <advance width="1040"/>
  <unicode hex="00DF"/>
  <note>
germandbls
</note>
  <outline>
    <contour>
      <point x="714" y="-12" type="curve" smooth="yes"/>
      <point x="900" y="-12"/>
      <point x="1017" y="80"/>
      <point x="1017" y="231" type="curve" smooth="yes"/>
      <point x="1017" y="478"/>
      <point x="686" y="454"/>
      <point x="686" y="595" type="curve" smooth="yes"/>
      <point x="686" y="686"/>
      <point x="829" y="767"/>
      <point x="831" y="889" type="curve" smooth="yes"/>
      <point x="832" y="1032"/>
      <point x="707" y="1120"/>
      <point x="523" y="1120" type="curve" smooth="yes"/>
      <point x="279" y="1120"/>
      <point x="125" y="966"/>
      <point x="125" y="751" type="curve" smooth="yes"/>
      <point x="125" y="598" type="line"/>
      <point x="128" y="333" type="line" smooth="yes"/>
      <point x="130" y="256"/>
      <point x="125" y="147"/>
      <point x="121" y="107" type="curve"/>
      <point x="38" y="78" type="line"/>
      <point x="43" y="0" type="line"/>
      <point x="446" y="0" type="line"/>
      <point x="451" y="78" type="line"/>
      <point x="372" y="107" type="line"/>
      <point x="370" y="115"/>
      <point x="367" y="176"/>
      <point x="365" y="394" type="curve" smooth="yes"/>
      <point x="362" y="839" type="line"/>
      <point x="362" y="958"/>
      <point x="417" y="1022"/>
      <point x="502" y="1022" type="curve" smooth="yes"/>
      <point x="585" y="1022"/>
      <point x="627" y="967"/>
      <point x="627" y="863" type="curve" smooth="yes"/>
      <point x="627" y="696"/>
      <point x="478" y="642"/>
      <point x="478" y="516" type="curve" smooth="yes"/>
      <point x="478" y="282"/>
      <point x="802" y="322"/>
      <point x="802" y="165" type="curve" smooth="yes"/>
      <point x="802" y="117"/>
      <point x="773" y="86"/>
      <point x="723" y="86" type="curve" smooth="yes"/>
      <point x="693" y="86"/>
      <point x="650" y="93"/>
      <point x="611" y="118" type="curve"/>
      <point x="587" y="234" type="line"/>
      <point x="483" y="234" type="line"/>
      <point x="492" y="43" type="line"/>
      <point x="553" y="11"/>
      <point x="633" y="-12"/>
    </contour>
    <contour>
      <point x="4" y="598" type="line"/>
      <point x="227" y="598" type="line"/>
      <point x="227" y="707" type="line"/>
      <point x="125" y="714" type="line"/>
      <point x="4" y="680" type="line"/>
    </contour>
  </outline>
</glyph>
<glyph name="divide" format="2">
  <advance width="866"/>
  <unicode hex="00F7"/>
  <outline>
    <contour>
      <point x="781" y="484" type="line"/>
      <point x="85" y="484" type="line"/>
      <point x="85" y="333" type="line"/>
      <point x="781" y="333" type="line"/>
    </contour>
    <contour>
      <point x="423" y="19" type="curve" smooth="yes"/>
      <point x="486" y="19"/>
      <point x="537" y="69"/>
      <point x="537" y="131" type="curve" smooth="yes"/>
      <point x="537" y="195"/>
      <point x="486" y="250"/>
      <point x="423" y="250" type="curve" smooth="yes"/>
      <point x="362" y="250"/>
      <point x="311" y="195"/>
      <point x="311" y="131" type="curve" smooth="yes"/>
      <point x="311" y="69"/>
      <point x="362" y="19"/>
    </contour>
    <contour>
      <point x="423" y="569" type="curve" smooth="yes"/>
      <point x="486" y="569"/>
      <point x="537" y="617"/>
      <point x="537" y="682" type="curve" smooth="yes"/>
      <point x="537" y="747"/>
      <point x="486" y="799"/>
      <point x="423" y="799" type="curve" smooth="yes"/>
      <point x="362" y="799"/>
      <point x="311" y="747"/>
      <point x="311" y="682" type="curve" smooth="yes"/>
      <point x="311" y="617"/>
      <point x="362" y="569"/>
    </contour>
  </outline>
</glyph>
<glyph name="florin" format="2">
  <advance width="640"/>
  <unicode hex="0192"/>
  <outline>
    <contour>
      <point x="124" y="-370" type="curve" smooth="yes"/>
      <point x="291" y="-370"/>
      <point x="430" y="-216"/>
      <point x="430" y="118" type="curve" smooth="yes"/>
      <point x="430" y="598" type="line"/>
      <point x="427" y="707" type="line"/>
      <point x="427" y="823" type="line" smooth="yes"/>
      <point x="427" y="934"/>
      <point x="443" y="991"/>
      <point x="466" y="1020" type="curve"/>
      <point x="531" y="961" type="line" smooth="yes"/>
      <point x="564" y="930"/>
      <point x="592" y="916"/>
      <point x="631" y="916" type="curve" smooth="yes"/>
      <point x="681" y="916"/>
      <point x="713" y="943"/>
      <point x="713" y="995" type="curve" smooth="yes"/>
      <point x="713" y="1068"/>
      <point x="631" y="1120"/>
      <point x="517" y="1120" type="curve" smooth="yes"/>
      <point x="339" y="1120"/>
      <point x="191" y="967"/>
      <point x="191" y="743" type="curve" smooth="yes"/>
      <point x="191" y="-11" type="line"/>
      <point x="191" y="-184"/>
      <point x="186" y="-240"/>
      <point x="173" y="-271" type="curve"/>
      <point x="109" y="-211" type="line" smooth="yes"/>
      <point x="77" y="-181"/>
      <point x="48" y="-166"/>
      <point x="8" y="-166" type="curve" smooth="yes"/>
      <point x="-41" y="-166"/>
      <point x="-73" y="-192"/>
      <point x="-73" y="-243" type="curve" smooth="yes"/>
      <point x="-73" y="-317"/>
      <point x="10" y="-370"/>
    </contour>
    <contour>
      <point x="72" y="598" type="line"/>
      <point x="594" y="598" type="line"/>
      <point x="594" y="707" type="line"/>
      <point x="279" y="707" type="line"/>
      <point x="191" y="714" type="line"/>
      <point x="151" y="698"/>
      <point x="113" y="686"/>
      <point x="72" y="680" type="curve"/>
    </contour>
  </outline>
</glyph>
<glyph name="footnotemarker-ar" format="2">
  <advance width="1450"/>
  <unicode hex="0602"/>
  <anchor x="550" y="0" name="digitR"/>
  <outline>
    <contour>
      <point x="682" y="-460" type="curve" smooth="yes"/>
      <point x="1029" y="-460"/>
      <point x="1218" y="-360"/>
      <point x="1386" y="-193" type="curve"/>
      <point x="1410" y="-70" type="line"/>
      <point x="1336" y="-124"/>
      <point x="1023" y="-175"/>
      <point x="727" y="-175" type="curve" smooth="yes"/>
      <point x="425" y="-175"/>
      <point x="139" y="-140"/>
      <point x="139" y="-56" type="curve" smooth="yes"/>
      <point x="139" y="-20"/>
      <point x="180" y="52"/>
      <point x="236" y="52" type="curve" smooth="yes"/>
      <point x="300" y="52"/>
      <point x="342" y="-21"/>
      <point x="342" y="-89" type="curve" smooth="yes"/>
      <point x="342" y="-155"/>
      <point x="318" y="-234"/>
      <point x="280" y="-290" type="curve"/>
      <point x="313" y="-313" type="line"/>
      <point x="382" y="-201"/>
      <point x="440" y="-2"/>
      <point x="440" y="137" type="curve" smooth="yes"/>
      <point x="440" y="229"/>
      <point x="415" y="295"/>
      <point x="351" y="295" type="curve" smooth="yes"/>
      <point x="219" y="295"/>
      <point x="40" y="-20"/>
      <point x="40" y="-187" type="curve" smooth="yes"/>
      <point x="40" y="-377"/>
      <point x="356" y="-460"/>
    </contour>
  </outline>
</glyph>
<glyph name="cuberoot-ar" format="2">
  <advance width="1054"/>
  <unicode hex="0606"/>
  <outline>
    <component base="three-ar.small" xOffset="281" yOffset="582"/>
    <contour>
      <point x="461" y="-150" type="line"/>
      <point x="547" y="-150" type="line"/>
      <point x="896" y="600" type="line"/>
      <point x="998" y="624" type="line"/>
      <point x="994" y="711" type="line"/>
      <point x="653" y="714" type="line"/>
      <point x="642" y="675"/>
      <point x="629" y="645"/>
      <point x="608" y="593" type="curve" smooth="yes"/>
      <point x="401" y="99" type="line"/>
      <point x="469" y="101" type="line"/>
      <point x="133" y="1104" type="line"/>
      <point x="-10" y="1104" type="line"/>
    </contour>
  </outline>
</glyph>
<glyph name="ray-ar" format="2">
  <advance width="919"/>
  <unicode hex="0608"/>
  <outline>
    <component base="_tail" xOffset="-32" yOffset="52"/>
    <contour>
      <point x="353" y="-330" type="curve" smooth="yes"/>
      <point x="603" y="-330"/>
      <point x="815" y="-130"/>
      <point x="815" y="94" type="curve"/>
      <point x="812" y="369"/>
      <point x="783" y="645"/>
      <point x="675" y="645" type="curve" smooth="yes"/>
      <point x="560" y="645"/>
      <point x="510" y="340"/>
      <point x="510" y="270" type="curve" smooth="yes"/>
      <point x="510" y="5"/>
      <point x="761" y="2"/>
      <point x="909" y="242" type="curve"/>
      <point x="885" y="287" type="line"/>
      <point x="691" y="133"/>
      <point x="565" y="273"/>
      <point x="565" y="323" type="curve" smooth="yes"/>
      <point x="565" y="350"/>
      <point x="614" y="405"/>
      <point x="641" y="405" type="curve" smooth="yes"/>
      <point x="675" y="405"/>
      <point x="767" y="323"/>
      <point x="767" y="84" type="curve" smooth="yes"/>
      <point x="767" y="2"/>
      <point x="540" y="-50"/>
      <point x="402" y="-50" type="curve" smooth="yes"/>
      <point x="243" y="-50"/>
      <point x="103" y="7"/>
      <point x="103" y="125" type="curve" smooth="yes"/>
      <point x="103" y="181"/>
      <point x="118" y="246"/>
      <point x="148" y="317" type="curve"/>
      <point x="134" y="323" type="line"/>
      <point x="70" y="232"/>
      <point x="40" y="126"/>
      <point x="40" y="26" type="curve" smooth="yes"/>
      <point x="40" y="-163"/>
      <point x="149" y="-330"/>
    </contour>
  </outline>
</glyph>
<glyph name="afghani-ar" format="2">
  <advance width="721"/>
  <unicode hex="060B"/>
  <outline>
    <component base="_dot1" xScale="1.5656" yScale="1.5656" xOffset="417" yOffset="1425"/>
    <component base="_fehHead" xScale="1.3708" yScale="1.3702" xOffset="278" yOffset="438"/>
    <component base="alefbelow-ar" xOffset="433" yOffset="-68"/>
    <contour>
      <point x="40" y="0" type="line"/>
      <point x="379" y="0"/>
      <point x="550" y="162"/>
      <point x="592" y="226" type="curve" smooth="yes"/>
      <point x="630" y="284"/>
      <point x="681" y="458"/>
      <point x="681" y="644" type="curve"/>
      <point x="605" y="431" type="line"/>
      <point x="526" y="355"/>
      <point x="442" y="280"/>
      <point x="136" y="280" type="curve"/>
    </contour>
  </outline>
</glyph>
<glyph name="takhallusabove-ar" format="2">
  <unicode hex="0614"/>
  <anchor x="26" y="1369" name="_diaA"/>
  <anchor x="26" y="1727" name="diaA"/>
  <outline>
    <contour>
      <point x="-454" y="1489" type="line"/>
      <point x="-252" y="1473"/>
      <point x="-48" y="1480"/>
      <point x="160" y="1523" type="curve"/>
      <point x="148" y="1534" type="line"/>
      <point x="184" y="1287"/>
      <point x="457" y="1355"/>
      <point x="405" y="1707" type="curve"/>
      <point x="369" y="1689" type="line"/>
      <point x="402" y="1430"/>
      <point x="149" y="1428"/>
      <point x="185" y="1635" type="curve"/>
      <point x="-27" y="1565"/>
      <point x="-259" y="1535"/>
      <point x="-510" y="1529" type="curve"/>
    </contour>
  </outline>
</glyph>
<glyph name="endoftext-ar" format="2">
  <advance width="934"/>
  <unicode hex="061D"/>
  <outline>
    <contour>
      <point x="466" y="1157" type="curve" smooth="yes"/>
      <point x="268" y="1157"/>
      <point x="70" y="943"/>
      <point x="70" y="724" type="curve" smooth="yes"/>
      <point x="70" y="652"/>
      <point x="114" y="582"/>
      <point x="196" y="511" type="curve" smooth="yes"/>
      <point x="254" y="461"/>
      <point x="327" y="398"/>
      <point x="376" y="325" type="curve" smooth="yes"/>
      <point x="438" y="232"/>
      <point x="479" y="115"/>
      <point x="499" y="85" type="curve" smooth="yes"/>
      <point x="559" y="-3"/>
      <point x="648" y="1"/>
      <point x="695" y="1" type="curve" smooth="yes"/>
      <point x="782" y="1"/>
      <point x="862" y="132"/>
      <point x="862" y="228" type="curve" smooth="yes"/>
      <point x="862" y="282"/>
      <point x="817" y="332"/>
      <point x="768" y="332" type="curve" smooth="yes"/>
      <point x="719" y="332"/>
      <point x="672" y="287"/>
      <point x="672" y="246" type="curve" smooth="yes"/>
      <point x="672" y="217"/>
      <point x="682" y="176"/>
      <point x="704" y="157" type="curve"/>
      <point x="663" y="151"/>
      <point x="617" y="174"/>
      <point x="597" y="225" type="curve" smooth="yes"/>
      <point x="558" y="322"/>
      <point x="574" y="424"/>
      <point x="515" y="521" type="curve" smooth="yes"/>
      <point x="442" y="642"/>
      <point x="146" y="735"/>
      <point x="146" y="803" type="curve" smooth="yes"/>
      <point x="146" y="867"/>
      <point x="267" y="913"/>
      <point x="391" y="913" type="curve" smooth="yes"/>
      <point x="464" y="913"/>
      <point x="507" y="898"/>
      <point x="507" y="857" type="curve" smooth="yes"/>
      <point x="507" y="818"/>
      <point x="497" y="756"/>
      <point x="482" y="727" type="curve"/>
      <point x="512" y="698" type="line"/>
      <point x="561" y="761"/>
      <point x="591" y="857"/>
      <point x="591" y="954" type="curve" smooth="yes"/>
      <point x="591" y="1019"/>
      <point x="559" y="1157"/>
    </contour>
  </outline>
</glyph>
<glyph name="question-ar" format="2">
  <advance width="564"/>
  <unicode hex="061F"/>
  <outline>
    <component base="_dot_punct" xOffset="128" yOffset="116"/>
    <contour>
      <point x="526" y="1041" type="line"/>
      <point x="320" y="1186"/>
      <point x="83" y="1035"/>
      <point x="83" y="832" type="curve" smooth="yes"/>
      <point x="83" y="563"/>
      <point x="462" y="469"/>
      <point x="344" y="337" type="curve"/>
      <point x="366" y="320" type="line"/>
      <point x="581" y="547"/>
      <point x="224" y="635"/>
      <point x="224" y="764" type="curve" smooth="yes"/>
      <point x="224" y="823"/>
      <point x="305" y="857"/>
      <point x="379" y="804" type="curve"/>
    </contour>
  </outline>
</glyph>
<glyph name="alef-ar" format="2">
  <advance width="354"/>
  <unicode hex="0627"/>
  <anchor x="180" y="1186" name="above"/>
  <anchor x="-39" y="756" name="aboveLeft"/>
  <anchor x="152" y="121" name="attBottom"/>
  <anchor x="313" y="222" name="attBottomRight"/>
  <anchor x="-35" y="424" name="attLeftMid"/>
  <anchor x="431" y="494" name="attRtMid"/>
  <anchor x="174" y="997" name="attTop"/>
  <anchor x="391" y="1066" name="attTopRight"/>
  <anchor x="182" y="-50" name="below"/>
  <anchor x="180" y="1176" name="diaA"/>
  <anchor x="149" y="-202" name="diaB"/>
  <outline>
    <contour>
      <point x="107" y="916" type="line"/>
      <point x="97" y="603"/>
      <point x="132" y="465"/>
      <point x="122" y="-5" type="curve"/>
      <point x="169" y="5"/>
      <point x="203" y="51"/>
      <point x="215" y="107" type="curve" smooth="yes"/>
      <point x="279" y="408"/>
      <point x="232" y="778"/>
      <point x="242" y="1093" type="curve"/>
    </contour>
  </outline>
</glyph>
<glyph name="dal-ar" format="2">
  <advance width="554"/>
  <unicode hex="062F"/>
  <guideline x="330" y="258" angle="180"/>
  <anchor x="255" y="758" name="above"/>
  <anchor x="116" y="817" name="alefUnused"/>
  <anchor x="278" y="-89" name="below"/>
  <anchor x="255" y="834" name="diaA"/>
  <anchor x="199" y="-200" name="diaB"/>
  <anchor x="243" y="88" name="ring"/>
  <outline>
    <contour>
      <point x="204" y="708" type="curve"/>
      <point x="171" y="428" type="line"/>
      <point x="306" y="408"/>
      <point x="454" y="331"/>
      <point x="454" y="304" type="curve" smooth="yes"/>
      <point x="454" y="273"/>
      <point x="339" y="257"/>
      <point x="251" y="257" type="curve" smooth="yes"/>
      <point x="158" y="257"/>
      <point x="115" y="269"/>
      <point x="90" y="304" type="curve"/>
      <point x="60" y="33" type="line"/>
      <point x="85" y="-2"/>
      <point x="130" y="-15"/>
      <point x="198" y="-15" type="curve" smooth="yes"/>
      <point x="387" y="-15"/>
      <point x="494" y="151"/>
      <point x="494" y="370" type="curve" smooth="yes"/>
      <point x="494" y="533"/>
      <point x="339" y="688"/>
    </contour>
  </outline>
</glyph>
<glyph name="lam-ar" format="2">
  <advance width="713"/>
  <unicode hex="0644"/>
  <anchor x="531" y="1192" name="above"/>
  <anchor x="308" y="727" name="alef"/>
  <anchor x="521" y="-264" name="below"/>
  <anchor x="349" y="1227" name="diaA"/>
  <anchor x="221" y="-454" name="diaB"/>
  <anchor x="585" y="460" name="diaO"/>
  <anchor x="572" y="492" name="through"/>
  <outline>
    <component base="_strokeHead" xOffset="298" yOffset="793"/>
    <contour>
      <point x="501" y="897" type="line"/>
      <point x="563" y="265"/>
      <point x="591" y="177"/>
      <point x="576" y="129" type="curve"/>
      <point x="585" y="164" type="line"/>
      <point x="557" y="61"/>
      <point x="395" y="14"/>
      <point x="318" y="14" type="curve" smooth="yes"/>
      <point x="198" y="14"/>
      <point x="114" y="81"/>
      <point x="114" y="222" type="curve" smooth="yes"/>
      <point x="114" y="295"/>
      <point x="133" y="356"/>
      <point x="157" y="416" type="curve"/>
      <point x="139" y="421" type="line"/>
      <point x="97" y="365"/>
      <point x="40" y="182"/>
      <point x="40" y="54" type="curve" smooth="yes"/>
      <point x="40" y="-109"/>
      <point x="134" y="-266"/>
      <point x="280" y="-266" type="curve" smooth="yes"/>
      <point x="555" y="-266"/>
      <point x="659" y="-41"/>
      <point x="644" y="222" type="curve" smooth="yes"/>
      <point x="608" y="835" type="line"/>
    </contour>
  </outline>
</glyph>
<glyph name="waw-ar" format="2">
  <advance width="658"/>
  <unicode hex="0648"/>
  <anchor x="469" y="611" name="above"/>
  <anchor x="184" y="694" name="alefUnused"/>
  <anchor x="485" y="-330" name="below"/>
  <anchor x="198" y="26" name="center"/>
  <anchor x="402" y="697" name="diaA"/>
  <anchor x="180" y="-470" name="diaB"/>
  <anchor x="275" y="77" name="ring"/>
  <anchor x="476" y="-61" name="through"/>
  <outline>
    <contour>
      <point x="618" y="184" type="curve"/>
      <point x="572" y="79" type="line"/>
      <point x="467" y="-135"/>
      <point x="338" y="-175"/>
      <point x="79" y="-175" type="curve" smooth="yes"/>
      <point x="37" y="-175"/>
      <point x="-4" y="-171"/>
      <point x="-44" y="-162" type="curve"/>
      <point x="-51" y="-176" type="line"/>
      <point x="14" y="-236"/>
      <point x="153" y="-330"/>
      <point x="247" y="-330" type="curve" smooth="yes"/>
      <point x="466" y="-330"/>
      <point x="618" y="-44"/>
    </contour>
    <contour>
      <point x="557" y="4" type="curve"/>
      <point x="585" y="50"/>
      <point x="608" y="107"/>
      <point x="618" y="184" type="curve"/>
      <point x="618" y="346"/>
      <point x="560" y="559"/>
      <point x="469" y="559" type="curve" smooth="yes"/>
      <point x="364" y="559"/>
      <point x="344" y="289"/>
      <point x="344" y="219" type="curve" smooth="yes"/>
      <point x="344" y="125"/>
      <point x="381" y="34"/>
      <point x="447" y="34" type="curve" smooth="yes"/>
      <point x="517" y="34"/>
      <point x="559" y="146"/>
      <point x="571" y="202" type="curve"/>
      <point x="530" y="302" type="line"/>
      <point x="520" y="264"/>
      <point x="506" y="234"/>
      <point x="456" y="234" type="curve" smooth="yes"/>
      <point x="432" y="234"/>
      <point x="399" y="245"/>
      <point x="399" y="280" type="curve" smooth="yes"/>
      <point x="399" y="312"/>
      <point x="428" y="339"/>
      <point x="455" y="339" type="curve" smooth="yes"/>
      <point x="528" y="339"/>
      <point x="564" y="196"/>
      <point x="564" y="83" type="curve" smooth="yes"/>
      <point x="564" y="53"/>
      <point x="562" y="26"/>
    </contour>
  </outline>
</glyph>
<glyph name="dammatan-ar" format="2">
  <unicode hex="064C"/>
  <anchor x="0" y="1027" name="_diaA"/>
  <anchor x="0" y="1492" name="diaA"/>
  <outline>
    <component base="damma-ar" xOffset="20"/>
    <contour>
      <point x="-239" y="1010" type="curve"/>
      <point x="-199" y="1025"/>
      <point x="-172" y="1037"/>
      <point x="-137" y="1055" type="curve"/>
      <point x="-140" y="1096" type="line"/>
      <point x="-36" y="1180"/>
      <point x="-114" y="1338"/>
      <point x="-226" y="1258" type="curve"/>
      <point x="-245" y="1191" type="line"/>
      <point x="-117" y="1276"/>
      <point x="-137" y="1085"/>
    </contour>
  </outline>
</glyph>
<glyph name="dammareversed-ar" format="2">
  <unicode hex="065D"/>
  <anchor x="191" y="1048" name="_diaA"/>
  <anchor x="191" y="1492" name="diaA"/>
  <outline>
    <contour>
      <point x="29" y="1166" type="line"/>
      <point x="164" y="1245"/>
      <point x="218" y="1298"/>
      <point x="218" y="1399" type="curve" smooth="yes"/>
      <point x="218" y="1443"/>
      <point x="185" y="1472"/>
      <point x="139" y="1472" type="curve" smooth="yes"/>
      <point x="79" y="1472"/>
      <point x="-14" y="1445"/>
      <point x="-14" y="1339" type="curve" smooth="yes"/>
      <point x="-14" y="1235"/>
      <point x="189" y="1095"/>
      <point x="292" y="1034" type="curve"/>
      <point x="347" y="1118" type="line"/>
      <point x="215" y="1183"/>
      <point x="66" y="1294"/>
      <point x="66" y="1356" type="curve" smooth="yes"/>
      <point x="66" y="1389"/>
      <point x="96" y="1413"/>
      <point x="118" y="1413" type="curve" smooth="yes"/>
      <point x="136" y="1413"/>
      <point x="152" y="1398"/>
      <point x="152" y="1372" type="curve" smooth="yes"/>
      <point x="152" y="1324"/>
      <point x="117" y="1280"/>
      <point x="-1" y="1212" type="curve"/>
    </contour>
  </outline>
</glyph>
<glyph name="zero-ar" format="2">
  <advance width="496"/>
  <unicode hex="0660"/>
  <outline>
    <contour>
      <point x="250" y="735" type="curve"/>
      <point x="222" y="735"/>
      <point x="70" y="584"/>
      <point x="70" y="545" type="curve" smooth="yes"/>
      <point x="70" y="512"/>
      <point x="222" y="353"/>
      <point x="250" y="353" type="curve" smooth="yes"/>
      <point x="284" y="353"/>
      <point x="426" y="514"/>
      <point x="426" y="548" type="curve" smooth="yes"/>
      <point x="426" y="580"/>
      <point x="279" y="735"/>
    </contour>
  </outline>
</glyph>
<glyph name="one-ar" format="2">
  <advance width="498"/>
  <unicode hex="0661"/>
  <outline>
    <contour>
      <point x="70" y="789" type="line"/>
      <point x="266" y="562"/>
      <point x="347" y="272"/>
      <point x="373" y="-23" type="curve"/>
      <point x="388" y="-23" type="line"/>
      <point x="479" y="411"/>
      <point x="418" y="823"/>
      <point x="161" y="1158" type="curve"/>
    </contour>
  </outline>
</glyph>
<glyph name="three-ar" format="2">
  <advance width="925"/>
  <unicode hex="0663"/>
  <outline>
    <component base="one-ar"/>
    <contour>
      <point x="840" y="1142" type="line"/>
      <point x="794" y="994"/>
      <point x="761" y="931"/>
      <point x="662" y="931" type="curve" smooth="yes"/>
      <point x="588" y="931"/>
      <point x="565" y="1003"/>
      <point x="565" y="1142" type="curve"/>
      <point x="550" y="1142" type="line"/>
      <point x="499" y="978"/>
      <point x="437" y="929"/>
      <point x="382" y="929" type="curve" smooth="yes"/>
      <point x="326" y="929"/>
      <point x="277" y="981"/>
      <point x="258" y="1012" type="curve"/>
      <point x="308" y="686" type="line"/>
      <point x="334" y="659"/>
      <point x="353" y="651"/>
      <point x="391" y="651" type="curve" smooth="yes"/>
      <point x="441" y="651"/>
      <point x="484" y="672"/>
      <point x="517" y="719" type="curve"/>
      <point x="557" y="675"/>
      <point x="606" y="651"/>
      <point x="661" y="651" type="curve" smooth="yes"/>
      <point x="776" y="651"/>
      <point x="855" y="864"/>
      <point x="855" y="1142" type="curve"/>
    </contour>
  </outline>
</glyph>
<glyph name="six-ar" format="2">
  <advance width="822"/>
  <unicode hex="0666"/>
  <outline>
    <contour>
      <point x="83" y="1143" type="line"/>
      <point x="51" y="965"/>
      <point x="69" y="791"/>
      <point x="259" y="791" type="curve" smooth="yes"/>
      <point x="336" y="791"/>
      <point x="426" y="818"/>
      <point x="502" y="866" type="curve"/>
      <point x="492" y="871" type="line"/>
      <point x="492" y="569"/>
      <point x="513" y="199"/>
      <point x="661" y="-15" type="curve"/>
      <point x="752" y="339" type="line"/>
      <point x="621" y="516"/>
      <point x="541" y="783"/>
      <point x="541" y="1122" type="curve"/>
      <point x="455" y="1090"/>
      <point x="374" y="1071"/>
      <point x="300" y="1071" type="curve" smooth="yes"/>
      <point x="223" y="1071"/>
      <point x="154" y="1092"/>
      <point x="98" y="1143" type="curve"/>
    </contour>
  </outline>
</glyph>
<glyph name="seven-ar" format="2">
  <advance width="883"/>
  <unicode hex="0667"/>
  <outline>
    <contour>
      <point x="465" y="0" type="line"/>
      <point x="488" y="358"/>
      <point x="576" y="636"/>
      <point x="763" y="795" type="curve"/>
      <point x="813" y="1148" type="line"/>
      <point x="592" y="984"/>
      <point x="528" y="735"/>
      <point x="463" y="368" type="curve"/>
      <point x="468" y="370" type="line"/>
      <point x="394" y="726"/>
      <point x="311" y="959"/>
      <point x="120" y="1148" type="curve"/>
      <point x="70" y="795" type="line"/>
      <point x="233" y="636"/>
      <point x="399" y="434"/>
      <point x="450" y="0" type="curve"/>
    </contour>
  </outline>
</glyph>
<glyph name="nine-ar" format="2">
  <advance width="664"/>
  <unicode hex="0669"/>
  <outline>
    <contour>
      <point x="444" y="488" type="curve"/>
      <point x="383" y="727" type="line"/>
      <point x="357" y="696"/>
      <point x="310" y="684"/>
      <point x="262" y="684" type="curve" smooth="yes"/>
      <point x="188" y="684"/>
      <point x="122" y="715"/>
      <point x="122" y="750" type="curve" smooth="yes"/>
      <point x="122" y="770"/>
      <point x="151" y="868"/>
      <point x="251" y="868" type="curve" smooth="yes"/>
      <point x="421" y="868"/>
      <point x="374" y="208"/>
      <point x="551" y="-15" type="curve"/>
      <point x="594" y="354" type="line"/>
      <point x="424" y="561"/>
      <point x="453" y="1148"/>
      <point x="291" y="1148" type="curve" smooth="yes"/>
      <point x="133" y="1148"/>
      <point x="70" y="810"/>
      <point x="70" y="671" type="curve" smooth="yes"/>
      <point x="70" y="574"/>
      <point x="103" y="404"/>
      <point x="247" y="404" type="curve" smooth="yes"/>
      <point x="349" y="404"/>
      <point x="422" y="445"/>
    </contour>
  </outline>
</glyph>
<glyph name="decimalseparator-ar" format="2">
  <advance width="663"/>
  <unicode hex="066B"/>
  <outline>
    <contour>
      <point x="115" y="-158" type="line"/>
      <point x="154" y="-210"/>
      <point x="235" y="-249"/>
      <point x="291" y="-249" type="curve" smooth="yes"/>
      <point x="434" y="-249"/>
      <point x="548" y="-42"/>
      <point x="548" y="138" type="curve" smooth="yes"/>
      <point x="548" y="209"/>
      <point x="526" y="273"/>
      <point x="492" y="333" type="curve"/>
      <point x="403" y="161" type="line"/>
      <point x="457" y="124"/>
      <point x="486" y="79"/>
      <point x="486" y="48" type="curve" smooth="yes"/>
      <point x="486" y="-15"/>
      <point x="366" y="-153"/>
      <point x="190" y="-153" type="curve" smooth="yes"/>
      <point x="168" y="-153"/>
      <point x="145" y="-150"/>
      <point x="124" y="-143" type="curve"/>
    </contour>
  </outline>
</glyph>
<glyph name="kafswash-ar" format="2">
  <advance width="1383"/>
  <unicode hex="06AA"/>
  <anchor x="268" y="841" name="alefUnused"/>
  <anchor x="464" y="988" name="diaA"/>
  <anchor x="310" y="-202" name="diaB"/>
  <outline>
    <component base="_absSwashKaf" xOffset="258" yOffset="-2"/>
    <contour>
      <point x="460" y="0" type="curve" smooth="yes"/>
      <point x="480" y="0" type="line"/>
      <point x="480" y="280" type="line"/>
      <point x="48" y="280" type="line"/>
      <point x="48" y="260" type="line"/>
      <point x="101" y="162"/>
      <point x="349" y="0"/>
    </contour>
  </outline>
</glyph>
<glyph name="wawring-ar" format="2">
  <advance width="678"/>
  <unicode hex="06C4"/>
  <anchor x="469" y="611" name="above"/>
  <anchor x="184" y="694" name="alefUnused"/>
  <anchor x="485" y="-330" name="below"/>
  <anchor x="198" y="26" name="center"/>
  <anchor x="313" y="697" name="diaA"/>
  <anchor x="180" y="-470" name="diaB"/>
  <anchor x="253" y="72" name="ring"/>
  <anchor x="516" y="-61" name="through"/>
  <outline>
    <component base="_ring" xOffset="148" yOffset="-119"/>
    <contour>
      <point x="54" y="-234" type="curve"/>
      <point x="80" y="-274"/>
      <point x="162" y="-330"/>
      <point x="220" y="-330" type="curve" smooth="yes"/>
      <point x="469" y="-330"/>
      <point x="618" y="-44"/>
      <point x="618" y="184" type="curve"/>
      <point x="572" y="79" type="line"/>
      <point x="477" y="-115"/>
      <point x="364" y="-167"/>
      <point x="129" y="-175" type="curve" smooth="yes"/>
      <point x="104" y="-176"/>
      <point x="57" y="-239"/>
    </contour>
    <contour>
      <point x="557" y="4" type="curve"/>
      <point x="585" y="50"/>
      <point x="608" y="107"/>
      <point x="618" y="184" type="curve"/>
      <point x="618" y="346"/>
      <point x="560" y="559"/>
      <point x="469" y="559" type="curve" smooth="yes"/>
      <point x="364" y="559"/>
      <point x="344" y="289"/>
      <point x="344" y="219" type="curve" smooth="yes"/>
      <point x="344" y="125"/>
      <point x="381" y="34"/>
      <point x="447" y="34" type="curve" smooth="yes"/>
      <point x="517" y="34"/>
      <point x="559" y="146"/>
      <point x="571" y="202" type="curve"/>
      <point x="530" y="302" type="line"/>
      <point x="520" y="264"/>
      <point x="506" y="234"/>
      <point x="456" y="234" type="curve" smooth="yes"/>
      <point x="432" y="234"/>
      <point x="399" y="245"/>
      <point x="399" y="280" type="curve" smooth="yes"/>
      <point x="399" y="312"/>
      <point x="428" y="339"/>
      <point x="455" y="339" type="curve" smooth="yes"/>
      <point x="528" y="339"/>
      <point x="564" y="196"/>
      <point x="564" y="83" type="curve" smooth="yes"/>
      <point x="564" y="53"/>
      <point x="562" y="26"/>
    </contour>
  </outline>
</glyph>
<glyph name="fullstop-ar" format="2">
  <advance width="461"/>
  <unicode hex="06D4"/>
  <outline>
    <contour>
      <point x="332" y="0" type="line"/>
      <point x="381" y="212" type="line"/>
      <point x="131" y="212" type="line"/>
      <point x="80" y="0" type="line"/>
    </contour>
  </outline>
</glyph>
<glyph name="sadLamAlefMaksuraabove-ar" format="2">
  <unicode hex="06D6"/>
  <anchor x="-20" y="1007" name="_diaA"/>
  <anchor x="-20" y="1734" name="diaA"/>
  <outline>
    <component base="_lamAlefMaksura"/>
    <contour>
      <point x="147" y="1174" type="curve" smooth="yes"/>
      <point x="283" y="1174"/>
      <point x="415" y="1270"/>
      <point x="415" y="1356" type="curve" smooth="yes"/>
      <point x="415" y="1393"/>
      <point x="398" y="1426"/>
      <point x="340" y="1426" type="curve" smooth="yes"/>
      <point x="282" y="1426"/>
      <point x="217" y="1365"/>
      <point x="122" y="1263" type="curve"/>
      <point x="145" y="1261" type="line"/>
      <point x="181" y="1300"/>
      <point x="277" y="1349"/>
      <point x="302" y="1349" type="curve" smooth="yes"/>
      <point x="350" y="1349"/>
      <point x="369" y="1328"/>
      <point x="369" y="1310" type="curve" smooth="yes"/>
      <point x="369" y="1285"/>
      <point x="255" y="1275"/>
      <point x="133" y="1275" type="curve" smooth="yes"/>
      <point x="85" y="1275"/>
      <point x="54" y="1285"/>
      <point x="47" y="1334" type="curve"/>
      <point x="42" y="1334" type="line"/>
      <point x="33" y="1302"/>
      <point x="17" y="1280"/>
      <point x="-20" y="1280" type="curve" smooth="yes"/>
      <point x="-75" y="1280"/>
      <point x="-101" y="1317"/>
      <point x="-109" y="1454" type="curve"/>
      <point x="-124" y="1283" type="line"/>
      <point x="-105" y="1220"/>
      <point x="-70" y="1179"/>
      <point x="-20" y="1179" type="curve" smooth="yes"/>
      <point x="10" y="1179"/>
      <point x="29" y="1192"/>
      <point x="47" y="1230" type="curve"/>
      <point x="37" y="1224" type="line"/>
      <point x="46" y="1193"/>
      <point x="82" y="1174"/>
    </contour>
  </outline>
</glyph>
<glyph name="hizb-ar" format="2">
  <advance width="1585"/>
  <unicode hex="06DE"/>
  <outline>
    <contour>
      <point x="1518" y="444" type="curve"/>
      <point x="1425" y="471"/>
      <point x="1405" y="469"/>
      <point x="1346" y="553" type="curve" smooth="yes"/>
      <point x="1311" y="604"/>
      <point x="1278" y="627"/>
      <point x="1243" y="631" type="curve"/>
      <point x="1264" y="659"/>
      <point x="1272" y="698"/>
      <point x="1262" y="760" type="curve" smooth="yes"/>
      <point x="1243" y="860"/>
      <point x="1260" y="874"/>
      <point x="1307" y="956" type="curve"/>
      <point x="1223" y="909"/>
      <point x="1208" y="893"/>
      <point x="1108" y="911" type="curve" smooth="yes"/>
      <point x="1047" y="924"/>
      <point x="1008" y="915"/>
      <point x="979" y="893" type="curve"/>
      <point x="981" y="954"/>
      <point x="958" y="1010"/>
      <point x="899" y="1083" type="curve" smooth="yes"/>
      <point x="842" y="1155"/>
      <point x="817" y="1235"/>
      <point x="793" y="1319" type="curve"/>
      <point x="770" y="1235"/>
      <point x="743" y="1155"/>
      <point x="688" y="1083" type="curve" smooth="yes"/>
      <point x="629" y="1010"/>
      <point x="606" y="954"/>
      <point x="608" y="893" type="curve"/>
      <point x="580" y="915"/>
      <point x="541" y="924"/>
      <point x="479" y="911" type="curve" smooth="yes"/>
      <point x="377" y="893"/>
      <point x="365" y="909"/>
      <point x="281" y="956" type="curve"/>
      <point x="328" y="874"/>
      <point x="344" y="860"/>
      <point x="326" y="760" type="curve" smooth="yes"/>
      <point x="313" y="698"/>
      <point x="322" y="659"/>
      <point x="342" y="631" type="curve"/>
      <point x="307" y="627"/>
      <point x="274" y="604"/>
      <point x="240" y="553" type="curve" smooth="yes"/>
      <point x="180" y="469"/>
      <point x="160" y="471"/>
      <point x="68" y="444" type="curve"/>
      <point x="160" y="418"/>
      <point x="180" y="420"/>
      <point x="240" y="336" type="curve" smooth="yes"/>
      <point x="274" y="285"/>
      <point x="307" y="262"/>
      <point x="342" y="258" type="curve"/>
      <point x="322" y="229"/>
      <point x="313" y="190"/>
      <point x="326" y="129" type="curve" smooth="yes"/>
      <point x="344" y="29"/>
      <point x="328" y="14"/>
      <point x="281" y="-70" type="curve"/>
      <point x="365" y="-23"/>
      <point x="377" y="-6"/>
      <point x="479" y="-25" type="curve" smooth="yes"/>
      <point x="541" y="-35"/>
      <point x="580" y="-27"/>
      <point x="608" y="-6" type="curve"/>
      <point x="606" y="-66"/>
      <point x="629" y="-121"/>
      <point x="688" y="-195" type="curve" smooth="yes"/>
      <point x="743" y="-266"/>
      <point x="770" y="-346"/>
      <point x="793" y="-432" type="curve"/>
      <point x="817" y="-346"/>
      <point x="842" y="-266"/>
      <point x="899" y="-195" type="curve" smooth="yes"/>
      <point x="958" y="-121"/>
      <point x="981" y="-66"/>
      <point x="979" y="-6" type="curve"/>
      <point x="1008" y="-27"/>
      <point x="1047" y="-35"/>
      <point x="1108" y="-25" type="curve" smooth="yes"/>
      <point x="1208" y="-6"/>
      <point x="1223" y="-23"/>
      <point x="1307" y="-70" type="curve"/>
      <point x="1260" y="14"/>
      <point x="1243" y="29"/>
      <point x="1262" y="129" type="curve" smooth="yes"/>
      <point x="1272" y="190"/>
      <point x="1264" y="229"/>
      <point x="1243" y="258" type="curve"/>
      <point x="1278" y="262"/>
      <point x="1311" y="285"/>
      <point x="1346" y="336" type="curve" smooth="yes"/>
      <point x="1405" y="420"/>
      <point x="1425" y="418"/>
    </contour>
    <contour>
      <point x="1223" y="752" type="curve"/>
      <point x="1237" y="674"/>
      <point x="1212" y="643"/>
      <point x="1165" y="621" type="curve" smooth="yes"/>
      <point x="1145" y="612"/>
      <point x="1122" y="602"/>
      <point x="1096" y="592" type="curve" smooth="yes"/>
      <point x="1060" y="578" type="line"/>
      <point x="1079" y="576" type="line"/>
      <point x="1072" y="592"/>
      <point x="1059" y="614"/>
      <point x="1047" y="632" type="curve"/>
      <point x="1045" y="620" type="line"/>
      <point x="1064" y="625"/>
      <point x="1080" y="637"/>
      <point x="1100" y="662" type="curve" smooth="yes"/>
      <point x="1112" y="680"/>
      <point x="1118" y="696"/>
      <point x="1114" y="715" type="curve" smooth="yes"/>
      <point x="1110" y="733"/>
      <point x="1108" y="750"/>
      <point x="1116" y="766" type="curve"/>
      <point x="1098" y="758"/>
      <point x="1081" y="762"/>
      <point x="1063" y="766" type="curve" smooth="yes"/>
      <point x="1044" y="770"/>
      <point x="1028" y="764"/>
      <point x="1010" y="750" type="curve" smooth="yes"/>
      <point x="985" y="732"/>
      <point x="973" y="714"/>
      <point x="968" y="693" type="curve"/>
      <point x="980" y="694" type="line"/>
      <point x="960" y="713"/>
      <point x="944" y="719"/>
      <point x="922" y="733" type="curve"/>
      <point x="922" y="704" type="line"/>
      <point x="976" y="832"/>
      <point x="984" y="847"/>
      <point x="1004" y="864" type="curve" smooth="yes"/>
      <point x="1049" y="899"/>
      <point x="1163" y="850"/>
      <point x="1228" y="873" type="curve"/>
      <point x="1222" y="878" type="line"/>
      <point x="1210" y="844"/>
      <point x="1211" y="805"/>
    </contour>
    <contour>
      <point x="904" y="738" type="line"/>
      <point x="885" y="744"/>
      <point x="863" y="751"/>
      <point x="839" y="757" type="curve"/>
      <point x="847" y="746" type="line"/>
      <point x="855" y="765"/>
      <point x="861" y="791"/>
      <point x="856" y="823" type="curve" smooth="yes"/>
      <point x="852" y="846"/>
      <point x="844" y="866"/>
      <point x="829" y="883" type="curve" smooth="yes"/>
      <point x="813" y="901"/>
      <point x="803" y="922"/>
      <point x="793" y="950" type="curve"/>
      <point x="784" y="922"/>
      <point x="772" y="901"/>
      <point x="758" y="883" type="curve" smooth="yes"/>
      <point x="743" y="866"/>
      <point x="733" y="846"/>
      <point x="729" y="823" type="curve" smooth="yes"/>
      <point x="724" y="791"/>
      <point x="730" y="765"/>
      <point x="738" y="746" type="curve"/>
      <point x="744" y="757" type="line"/>
      <point x="725" y="751"/>
      <point x="704" y="744"/>
      <point x="681" y="738" type="curve"/>
      <point x="697" y="728" type="line"/>
      <point x="636" y="875"/>
      <point x="620" y="934"/>
      <point x="719" y="1059" type="curve" smooth="yes"/>
      <point x="750" y="1096"/>
      <point x="778" y="1152"/>
      <point x="797" y="1197" type="curve"/>
      <point x="789" y="1197" type="line"/>
      <point x="807" y="1152"/>
      <point x="838" y="1096"/>
      <point x="868" y="1059" type="curve" smooth="yes"/>
      <point x="968" y="934"/>
      <point x="951" y="875"/>
      <point x="890" y="728" type="curve"/>
    </contour>
    <contour>
      <point x="1403" y="449" type="line"/>
      <point x="1370" y="431"/>
      <point x="1343" y="403"/>
      <point x="1313" y="358" type="curve" smooth="yes"/>
      <point x="1268" y="293"/>
      <point x="1229" y="289"/>
      <point x="1182" y="305" type="curve"/>
      <point x="1161" y="315"/>
      <point x="1137" y="324"/>
      <point x="1112" y="334" type="curve" smooth="yes"/>
      <point x="1076" y="351" type="line"/>
      <point x="1086" y="336" type="line"/>
      <point x="1095" y="352"/>
      <point x="1102" y="374"/>
      <point x="1103" y="398" type="curve"/>
      <point x="1094" y="390" type="line"/>
      <point x="1111" y="383"/>
      <point x="1135" y="376"/>
      <point x="1163" y="381" type="curve" smooth="yes"/>
      <point x="1186" y="385"/>
      <point x="1200" y="393"/>
      <point x="1210" y="408" type="curve" smooth="yes"/>
      <point x="1221" y="426"/>
      <point x="1231" y="438"/>
      <point x="1249" y="444" type="curve"/>
      <point x="1231" y="451"/>
      <point x="1221" y="463"/>
      <point x="1210" y="481" type="curve" smooth="yes"/>
      <point x="1200" y="496"/>
      <point x="1186" y="504"/>
      <point x="1163" y="508" type="curve" smooth="yes"/>
      <point x="1135" y="513"/>
      <point x="1111" y="506"/>
      <point x="1094" y="499" type="curve"/>
      <point x="1103" y="493" type="line"/>
      <point x="1102" y="512"/>
      <point x="1096" y="533"/>
      <point x="1085" y="556" type="curve"/>
      <point x="1067" y="535" type="line"/>
      <point x="1196" y="589"/>
      <point x="1212" y="594"/>
      <point x="1239" y="592" type="curve"/>
      <point x="1295" y="584"/>
      <point x="1344" y="469"/>
      <point x="1403" y="439" type="curve"/>
    </contour>
    <contour>
      <point x="661" y="733" type="line"/>
      <point x="644" y="720"/>
      <point x="626" y="714"/>
      <point x="607" y="693" type="curve"/>
      <point x="620" y="694" type="line"/>
      <point x="612" y="714"/>
      <point x="599" y="733"/>
      <point x="575" y="750" type="curve" smooth="yes"/>
      <point x="557" y="764"/>
      <point x="541" y="770"/>
      <point x="522" y="766" type="curve" smooth="yes"/>
      <point x="504" y="762"/>
      <point x="487" y="758"/>
      <point x="471" y="766" type="curve"/>
      <point x="479" y="750"/>
      <point x="477" y="733"/>
      <point x="471" y="715" type="curve" smooth="yes"/>
      <point x="467" y="696"/>
      <point x="473" y="680"/>
      <point x="487" y="662" type="curve" smooth="yes"/>
      <point x="505" y="637"/>
      <point x="523" y="625"/>
      <point x="544" y="620" type="curve"/>
      <point x="541" y="632" type="line"/>
      <point x="528" y="614"/>
      <point x="515" y="592"/>
      <point x="508" y="576" type="curve"/>
      <point x="535" y="575" type="line"/>
      <point x="405" y="626"/>
      <point x="390" y="636"/>
      <point x="375" y="655" type="curve" smooth="yes"/>
      <point x="338" y="700"/>
      <point x="387" y="815"/>
      <point x="364" y="879" type="curve"/>
      <point x="359" y="872" type="line"/>
      <point x="392" y="862"/>
      <point x="434" y="863"/>
      <point x="485" y="872" type="curve" smooth="yes"/>
      <point x="611" y="896"/>
      <point x="614" y="821"/>
      <point x="658" y="714" type="curve"/>
    </contour>
    <contour>
      <point x="1020" y="444" type="curve"/>
      <point x="1020" y="319"/>
      <point x="918" y="219"/>
      <point x="793" y="219" type="curve" smooth="yes"/>
      <point x="668" y="219"/>
      <point x="567" y="319"/>
      <point x="567" y="444" type="curve" smooth="yes"/>
      <point x="567" y="569"/>
      <point x="668" y="670"/>
      <point x="793" y="670" type="curve" smooth="yes"/>
      <point x="918" y="670"/>
      <point x="1020" y="569"/>
    </contour>
    <contour>
      <point x="1228" y="15" type="line"/>
      <point x="1192" y="27"/>
      <point x="1153" y="26"/>
      <point x="1100" y="16" type="curve" smooth="yes"/>
      <point x="976" y="-7"/>
      <point x="973" y="67"/>
      <point x="927" y="175" type="curve"/>
      <point x="922" y="156" type="line"/>
      <point x="943" y="169"/>
      <point x="961" y="177"/>
      <point x="980" y="190" type="curve"/>
      <point x="968" y="191" type="line"/>
      <point x="973" y="175"/>
      <point x="985" y="157"/>
      <point x="1010" y="137" type="curve" smooth="yes"/>
      <point x="1028" y="125"/>
      <point x="1044" y="119"/>
      <point x="1063" y="123" type="curve" smooth="yes"/>
      <point x="1081" y="127"/>
      <point x="1098" y="131"/>
      <point x="1116" y="121" type="curve"/>
      <point x="1108" y="139"/>
      <point x="1110" y="156"/>
      <point x="1114" y="174" type="curve" smooth="yes"/>
      <point x="1118" y="193"/>
      <point x="1112" y="209"/>
      <point x="1100" y="227" type="curve" smooth="yes"/>
      <point x="1080" y="252"/>
      <point x="1064" y="264"/>
      <point x="1045" y="269" type="curve"/>
      <point x="1047" y="257" type="line"/>
      <point x="1059" y="275"/>
      <point x="1072" y="297"/>
      <point x="1079" y="313" type="curve"/>
      <point x="1052" y="314" type="line"/>
      <point x="1182" y="263"/>
      <point x="1197" y="253"/>
      <point x="1212" y="233" type="curve" smooth="yes"/>
      <point x="1247" y="188"/>
      <point x="1200" y="74"/>
      <point x="1222" y="9" type="curve"/>
    </contour>
    <contour>
      <point x="499" y="556" type="line"/>
      <point x="493" y="533"/>
      <point x="486" y="512"/>
      <point x="480" y="493" type="curve"/>
      <point x="491" y="499" type="line"/>
      <point x="473" y="506"/>
      <point x="453" y="513"/>
      <point x="424" y="508" type="curve" smooth="yes"/>
      <point x="401" y="504"/>
      <point x="385" y="496"/>
      <point x="375" y="481" type="curve" smooth="yes"/>
      <point x="365" y="463"/>
      <point x="354" y="451"/>
      <point x="338" y="444" type="curve"/>
      <point x="354" y="438"/>
      <point x="365" y="426"/>
      <point x="375" y="408" type="curve" smooth="yes"/>
      <point x="385" y="393"/>
      <point x="401" y="385"/>
      <point x="424" y="381" type="curve" smooth="yes"/>
      <point x="453" y="376"/>
      <point x="473" y="383"/>
      <point x="491" y="390" type="curve"/>
      <point x="480" y="399" type="line"/>
      <point x="486" y="374"/>
      <point x="493" y="352"/>
      <point x="499" y="336" type="curve"/>
      <point x="519" y="354" type="line"/>
      <point x="389" y="297"/>
      <point x="373" y="295"/>
      <point x="348" y="297" type="curve" smooth="yes"/>
      <point x="290" y="305"/>
      <point x="244" y="420"/>
      <point x="182" y="448" type="curve"/>
      <point x="182" y="439" type="line"/>
      <point x="215" y="459"/>
      <point x="242" y="485"/>
      <point x="272" y="530" type="curve" smooth="yes"/>
      <point x="317" y="596"/>
      <point x="356" y="600"/>
      <point x="406" y="584" type="curve"/>
      <point x="426" y="573"/>
      <point x="449" y="565"/>
      <point x="475" y="555" type="curve" smooth="yes"/>
      <point x="510" y="538" type="line"/>
    </contour>
    <contour>
      <point x="890" y="160" type="line"/>
      <point x="951" y="14"/>
      <point x="968" y="-45"/>
      <point x="868" y="-170" type="curve" smooth="yes"/>
      <point x="838" y="-210"/>
      <point x="807" y="-263"/>
      <point x="789" y="-308" type="curve"/>
      <point x="797" y="-308" type="line"/>
      <point x="778" y="-263"/>
      <point x="750" y="-210"/>
      <point x="719" y="-170" type="curve" smooth="yes"/>
      <point x="620" y="-45"/>
      <point x="636" y="14"/>
      <point x="697" y="160" type="curve"/>
      <point x="681" y="152" type="line"/>
      <point x="705" y="141"/>
      <point x="725" y="139"/>
      <point x="745" y="132" type="curve"/>
      <point x="738" y="142" type="line"/>
      <point x="730" y="123"/>
      <point x="724" y="98"/>
      <point x="729" y="63" type="curve" smooth="yes"/>
      <point x="733" y="43"/>
      <point x="743" y="23"/>
      <point x="758" y="6" type="curve" smooth="yes"/>
      <point x="772" y="-12"/>
      <point x="784" y="-33"/>
      <point x="793" y="-61" type="curve"/>
      <point x="803" y="-33"/>
      <point x="813" y="-12"/>
      <point x="829" y="6" type="curve" smooth="yes"/>
      <point x="844" y="23"/>
      <point x="852" y="43"/>
      <point x="856" y="63" type="curve" smooth="yes"/>
      <point x="861" y="98"/>
      <point x="855" y="123"/>
      <point x="847" y="142" type="curve"/>
      <point x="839" y="132" type="line"/>
      <point x="863" y="140"/>
      <point x="885" y="140"/>
      <point x="904" y="152" type="curve"/>
    </contour>
    <contour>
      <point x="662" y="185" type="line"/>
      <point x="611" y="55"/>
      <point x="603" y="42"/>
      <point x="582" y="25" type="curve" smooth="yes"/>
      <point x="537" y="-10"/>
      <point x="422" y="37"/>
      <point x="358" y="15" type="curve"/>
      <point x="365" y="9" type="line"/>
      <point x="375" y="45"/>
      <point x="374" y="84"/>
      <point x="365" y="137" type="curve" smooth="yes"/>
      <point x="350" y="215"/>
      <point x="375" y="246"/>
      <point x="420" y="268" type="curve"/>
      <point x="442" y="276"/>
      <point x="465" y="287"/>
      <point x="489" y="297" type="curve" smooth="yes"/>
      <point x="527" y="310" type="line"/>
      <point x="509" y="313" type="line"/>
      <point x="515" y="297"/>
      <point x="528" y="275"/>
      <point x="541" y="257" type="curve"/>
      <point x="544" y="269" type="line"/>
      <point x="523" y="264"/>
      <point x="505" y="252"/>
      <point x="487" y="227" type="curve" smooth="yes"/>
      <point x="473" y="209"/>
      <point x="467" y="193"/>
      <point x="471" y="174" type="curve" smooth="yes"/>
      <point x="477" y="156"/>
      <point x="479" y="139"/>
      <point x="471" y="121" type="curve"/>
      <point x="487" y="131"/>
      <point x="504" y="127"/>
      <point x="522" y="123" type="curve" smooth="yes"/>
      <point x="541" y="119"/>
      <point x="557" y="125"/>
      <point x="575" y="137" type="curve" smooth="yes"/>
      <point x="600" y="157"/>
      <point x="612" y="175"/>
      <point x="620" y="191" type="curve"/>
      <point x="607" y="190" type="line"/>
      <point x="626" y="177"/>
      <point x="644" y="169"/>
      <point x="662" y="156" type="curve"/>
    </contour>
    <contour>
      <point x="889" y="444" type="curve"/>
      <point x="889" y="498"/>
      <point x="846" y="539"/>
      <point x="793" y="539" type="curve" smooth="yes"/>
      <point x="741" y="539"/>
      <point x="698" y="498"/>
      <point x="698" y="444" type="curve" smooth="yes"/>
      <point x="698" y="391"/>
      <point x="741" y="350"/>
      <point x="793" y="350" type="curve" smooth="yes"/>
      <point x="846" y="350"/>
      <point x="889" y="391"/>
    </contour>
  </outline>
</glyph>
<glyph name="yehSmall-ar" format="2">
  <advance width="627"/>
  <unicode hex="06E6"/>
  <anchor x="295" y="473" name="diaA"/>
  <anchor x="295" y="46" name="diaB"/>
  <outline>
    <contour>
      <point x="607" y="195" type="line"/>
      <point x="520" y="175"/>
      <point x="439" y="166"/>
      <point x="352" y="166" type="curve" smooth="yes"/>
      <point x="141" y="166"/>
      <point x="47" y="184"/>
      <point x="47" y="209" type="curve" smooth="yes"/>
      <point x="47" y="266"/>
      <point x="274" y="197"/>
      <point x="293" y="381" type="curve"/>
      <point x="286" y="373" type="line"/>
      <point x="294" y="342"/>
      <point x="318" y="278"/>
      <point x="347" y="263" type="curve"/>
      <point x="363" y="371" type="line"/>
      <point x="335" y="383"/>
      <point x="306" y="411"/>
      <point x="298" y="452" type="curve"/>
      <point x="290" y="452" type="line"/>
      <point x="257" y="281"/>
      <point x="20" y="420"/>
      <point x="20" y="183" type="curve" smooth="yes"/>
      <point x="20" y="96"/>
      <point x="71" y="66"/>
      <point x="282" y="66" type="curve" smooth="yes"/>
      <point x="396" y="66"/>
      <point x="484" y="82"/>
      <point x="553" y="109" type="curve"/>
    </contour>
  </outline>
</glyph>
<glyph name="four-persian" format="2">
  <advance width="881"/>
  <unicode hex="06F4"/>
  <outline>
    <component base="one-ar"/>
    <contour>
      <point x="577" y="589" type="line"/>
      <point x="735" y="798" type="line"/>
      <point x="703" y="773"/>
      <point x="641" y="754"/>
      <point x="583" y="754" type="curve" smooth="yes"/>
      <point x="514" y="754"/>
      <point x="449" y="780"/>
      <point x="441" y="852" type="curve"/>
      <point x="436" y="807" type="line"/>
      <point x="469" y="908"/>
      <point x="620" y="952"/>
      <point x="726" y="952" type="curve" smooth="yes"/>
      <point x="754" y="952"/>
      <point x="780" y="948"/>
      <point x="801" y="940" type="curve"/>
      <point x="811" y="953" type="line"/>
      <point x="797" y="1049"/>
      <point x="736" y="1154"/>
      <point x="628" y="1154" type="curve" smooth="yes"/>
      <point x="514" y="1154"/>
      <point x="393" y="975"/>
      <point x="393" y="695" type="curve"/>
    </contour>
    <contour>
      <point x="524" y="543" type="curve" smooth="yes"/>
      <point x="644" y="543"/>
      <point x="754" y="651"/>
      <point x="801" y="846" type="curve"/>
      <point x="784" y="856" type="line"/>
      <point x="746" y="781"/>
      <point x="659" y="751"/>
      <point x="569" y="751" type="curve" smooth="yes"/>
      <point x="456" y="751"/>
      <point x="342" y="773"/>
      <point x="302" y="859" type="curve"/>
      <point x="337" y="632" type="line"/>
      <point x="397" y="572"/>
      <point x="462" y="543"/>
    </contour>
  </outline>
</glyph>
<glyph name="kashidaHamza-ar" format="2">
  <advance width="600"/>
  <unicode hex="0883"/>
  <anchor x="300" y="700" name="diaA"/>
  <anchor x="300" y="-200" name="diaB"/>
  <outline>
    <contour>
      <point x="0" y="280" type="line"/>
      <point x="-38" y="280"/>
      <point x="-56" y="187"/>
      <point x="-56" y="140" type="curve" smooth="yes"/>
      <point x="-56" y="94"/>
      <point x="-38" y="0"/>
      <point x="0" y="0" type="curve" smooth="yes"/>
      <point x="600" y="0" type="line" smooth="yes"/>
      <point x="637" y="0"/>
      <point x="655" y="94"/>
      <point x="655" y="140" type="curve" smooth="yes"/>
      <point x="655" y="187"/>
      <point x="637" y="280"/>
      <point x="600" y="280" type="curve" smooth="yes"/>
    </contour>
    <contour>
      <point x="189" y="175" type="curve"/>
      <point x="406" y="327" type="line"/>
      <point x="368" y="318"/>
      <point x="329" y="312"/>
      <point x="294" y="312" type="curve" smooth="yes"/>
      <point x="228" y="312"/>
      <point x="176" y="334"/>
      <point x="168" y="400" type="curve"/>
      <point x="163" y="367" type="line"/>
      <point x="174" y="434"/>
      <point x="291" y="477"/>
      <point x="396" y="477" type="curve" smooth="yes"/>
      <point x="407" y="477"/>
      <point x="419" y="477"/>
      <point x="430" y="476" type="curve"/>
      <point x="449" y="512" type="line"/>
      <point x="414" y="567"/>
      <point x="358" y="602"/>
      <point x="307" y="602" type="curve" smooth="yes"/>
      <point x="193" y="602"/>
      <point x="131" y="493"/>
      <point x="131" y="283" type="curve" smooth="yes"/>
      <point x="131" y="238"/>
      <point x="142" y="199"/>
    </contour>
    <contour>
      <point x="568" y="369" type="line"/>
      <point x="328" y="369"/>
      <point x="131" y="75"/>
      <point x="30" y="-79" type="curve"/>
      <point x="80" y="-115" type="line"/>
      <point x="201" y="52"/>
      <point x="365" y="203"/>
      <point x="468" y="203" type="curve"/>
    </contour>
  </outline>
</glyph>
<glyph name="kashidaWaw-ar" format="2">
  <advance width="600"/>
  <unicode hex="0884"/>
  <anchor x="340" y="760" name="diaA"/>
  <anchor x="136" y="-368" name="diaB"/>
  <outline>
    <component base="waw-ar" yScale="1.1" xOffset="-70" yOffset="69"/>
    <contour>
      <point x="0" y="0" type="curve" smooth="yes"/>
      <point x="600" y="0" type="line" smooth="yes"/>
      <point x="637" y="0"/>
      <point x="655" y="94"/>
      <point x="655" y="140" type="curve" smooth="yes"/>
      <point x="655" y="187"/>
      <point x="637" y="280"/>
      <point x="600" y="280" type="curve" smooth="yes"/>
      <point x="0" y="280" type="line"/>
      <point x="-38" y="280"/>
      <point x="-56" y="187"/>
      <point x="-56" y="140" type="curve" smooth="yes"/>
      <point x="-56" y="94"/>
      <point x="-38" y="0"/>
    </contour>
  </outline>
</glyph>
<glyph name="yehthin-ar" format="2">
  <advance width="1095"/>
  <unicode hex="0886"/>
  <anchor x="355" y="539" name="alefUnused"/>
  <anchor x="498" y="700" name="diaA"/>
  <anchor x="359" y="-704" name="diaB"/>
  <outline>
    <component base="_dot2h" xScale="0.65" yScale="0.65" xOffset="377" yOffset="-557"/>
    <contour>
      <point x="948" y="612" type="curve" smooth="yes"/>
      <point x="763" y="612"/>
      <point x="564" y="399"/>
      <point x="564" y="172" type="curve" smooth="yes"/>
      <point x="564" y="-6"/>
      <point x="925" y="64"/>
      <point x="909" y="12" type="curve" smooth="yes"/>
      <point x="901" y="-14"/>
      <point x="741" y="-200"/>
      <point x="484" y="-200" type="curve" smooth="yes"/>
      <point x="236" y="-200"/>
      <point x="126" y="-59"/>
      <point x="126" y="137" type="curve" smooth="yes"/>
      <point x="126" y="191"/>
      <point x="139" y="259"/>
      <point x="172" y="342" type="curve"/>
      <point x="154" y="351" type="line"/>
      <point x="66" y="207"/>
      <point x="40" y="96"/>
      <point x="40" y="6" type="curve" smooth="yes"/>
      <point x="40" y="-204"/>
      <point x="166" y="-380"/>
      <point x="451" y="-380" type="curve" smooth="yes"/>
      <point x="812" y="-380"/>
      <point x="1023" y="-93"/>
      <point x="1023" y="72" type="curve" smooth="yes"/>
      <point x="1023" y="218"/>
      <point x="646" y="102"/>
      <point x="646" y="252" type="curve" smooth="yes"/>
      <point x="646" y="367"/>
      <point x="794" y="441"/>
      <point x="888" y="441" type="curve" smooth="yes"/>
      <point x="947" y="441"/>
      <point x="969" y="423"/>
      <point x="969" y="372" type="curve"/>
      <point x="1027" y="457"/>
      <point x="1035" y="492"/>
      <point x="1035" y="530" type="curve" smooth="yes"/>
      <point x="1035" y="600"/>
      <point x="999" y="612"/>
    </contour>
  </outline>
</glyph>
<glyph name="verticaltail-ar" format="2">
  <advance width="499"/>
  <unicode hex="088E"/>
  <anchor x="230" y="552" name="diaA"/>
  <anchor x="183" y="-671" name="diaB"/>
  <outline>
    <contour>
      <point x="241" y="72" type="curve"/>
      <point x="267" y="26"/>
      <point x="360" y="-46"/>
      <point x="424" y="-46" type="curve"/>
      <point x="461" y="234" type="line"/>
      <point x="407" y="234"/>
      <point x="260" y="267"/>
      <point x="241" y="310" type="curve"/>
      <point x="106" y="133" type="line"/>
      <point x="100" y="-69"/>
      <point x="128" y="-248"/>
      <point x="121" y="-598" type="curve"/>
      <point x="168" y="-588"/>
      <point x="207" y="-543"/>
      <point x="214" y="-486" type="curve" smooth="yes"/>
      <point x="233" y="-336"/>
      <point x="239" y="-120"/>
    </contour>
  </outline>
</glyph>
<glyph name="poundmarkabove-ar" format="2">
  <advance width="1323"/>
  <unicode hex="0890"/>
  <anchor x="370" y="0" name="digitR"/>
  <outline>
    <contour>
      <point x="800" y="1213" type="curve"/>
      <point x="1159" y="1234" type="line"/>
      <point x="878" y="1308"/>
      <point x="748" y="1621"/>
      <point x="476" y="1621" type="curve" smooth="yes"/>
      <point x="351" y="1621"/>
      <point x="280" y="1505"/>
      <point x="280" y="1425" type="curve" smooth="yes"/>
      <point x="280" y="1345"/>
      <point x="312" y="1288"/>
      <point x="358" y="1232" type="curve"/>
      <point x="439" y="1227" type="line"/>
      <point x="401" y="1273"/>
      <point x="395" y="1296"/>
      <point x="395" y="1331" type="curve" smooth="yes"/>
      <point x="395" y="1358"/>
      <point x="412" y="1388"/>
      <point x="466" y="1388" type="curve" smooth="yes"/>
      <point x="601" y="1388"/>
      <point x="643" y="1286"/>
    </contour>
    <contour>
      <point x="705" y="967" type="curve" smooth="yes"/>
      <point x="901" y="967"/>
      <point x="1131" y="967"/>
      <point x="1324" y="967" type="curve"/>
      <point x="1242" y="1282" type="line"/>
      <point x="1085" y="1198"/>
      <point x="822" y="1226"/>
      <point x="616" y="1226" type="curve" smooth="yes"/>
      <point x="423" y="1226"/>
      <point x="218" y="1238"/>
      <point x="24" y="1291" type="curve"/>
      <point x="0" y="1258" type="line"/>
      <point x="185" y="1043"/>
      <point x="437" y="967"/>
    </contour>
  </outline>
</glyph>
<glyph name="piastremarkabove-ar" format="2">
  <advance width="1323"/>
  <unicode hex="0891"/>
  <anchor x="370" y="0" name="digitR"/>
  <outline>
    <contour>
      <point x="619" y="967" type="curve" smooth="yes"/>
      <point x="887" y="967"/>
      <point x="1139" y="1043"/>
      <point x="1324" y="1258" type="curve"/>
      <point x="1300" y="1291" type="line"/>
      <point x="1106" y="1238"/>
      <point x="881" y="1226"/>
      <point x="708" y="1226" type="curve" smooth="yes"/>
      <point x="502" y="1226"/>
      <point x="239" y="1198"/>
      <point x="82" y="1282" type="curve"/>
      <point x="0" y="967" type="line"/>
      <point x="193" y="967"/>
      <point x="423" y="967"/>
    </contour>
    <contour>
      <point x="404" y="1213" type="line"/>
      <point x="611" y="1296"/>
      <point x="663" y="1424"/>
      <point x="798" y="1424" type="curve" smooth="yes"/>
      <point x="918" y="1424"/>
      <point x="933" y="1369"/>
      <point x="933" y="1336" type="curve" smooth="yes"/>
      <point x="933" y="1297"/>
      <point x="930" y="1265"/>
      <point x="910" y="1227" type="curve"/>
      <point x="1066" y="1232" type="line"/>
      <point x="1112" y="1288"/>
      <point x="1128" y="1351"/>
      <point x="1128" y="1431" type="curve" smooth="yes"/>
      <point x="1128" y="1531"/>
      <point x="1033" y="1647"/>
      <point x="888" y="1647" type="curve" smooth="yes"/>
      <point x="616" y="1647"/>
      <point x="481" y="1310"/>
      <point x="205" y="1229" type="curve"/>
    </contour>
  </outline>
</glyph>
<glyph name="pepet-ar" format="2">
  <unicode hex="0897"/>
  <anchor x="0" y="1094" name="_diaA"/>
  <anchor x="0" y="1356" name="diaA"/>
  <outline>
    <contour>
      <point x="-91" y="1223" type="curve"/>
      <point x="-36" y="1154"/>
      <point x="20" y="1134"/>
      <point x="31" y="1134" type="curve" smooth="yes"/>
      <point x="44" y="1134"/>
      <point x="155" y="1195"/>
      <point x="229" y="1290" type="curve"/>
      <point x="200" y="1313" type="line"/>
      <point x="148" y="1248"/>
      <point x="97" y="1220"/>
      <point x="87" y="1220" type="curve" smooth="yes"/>
      <point x="75" y="1220"/>
      <point x="19" y="1252"/>
      <point x="-32" y="1317" type="curve"/>
      <point x="-45" y="1317"/>
      <point x="-156" y="1256"/>
      <point x="-230" y="1161" type="curve"/>
      <point x="-201" y="1138" type="line"/>
      <point x="-149" y="1203"/>
      <point x="-101" y="1223"/>
    </contour>
  </outline>
</glyph>
<glyph name="maddawaajib-ar" format="2">
  <unicode hex="089C"/>
  <anchor x="-6" y="1029" name="_diaA"/>
  <anchor x="-10" y="1435" name="diaA"/>
  <outline>
    <contour>
      <point x="-215" y="1028" type="curve" smooth="yes"/>
      <point x="-213" y="1020"/>
      <point x="-173" y="1020"/>
      <point x="-173" y="1028" type="curve" smooth="yes"/>
      <point x="-168" y="1072"/>
      <point x="-177" y="1115"/>
      <point x="-187" y="1141" type="curve" smooth="yes"/>
      <point x="-199" y="1173"/>
      <point x="-204" y="1183"/>
      <point x="-214" y="1214" type="curve"/>
      <point x="-164" y="1186"/>
      <point x="-107" y="1170"/>
      <point x="-50" y="1170" type="curve" smooth="yes"/>
      <point x="65" y="1170"/>
      <point x="182" y="1232"/>
      <point x="240" y="1349" type="curve"/>
      <point x="225" y="1368" type="line"/>
      <point x="146" y="1327"/>
      <point x="69" y="1309"/>
      <point x="0" y="1309" type="curve" smooth="yes"/>
      <point x="-70" y="1309"/>
      <point x="-182" y="1328"/>
      <point x="-233" y="1361" type="curve"/>
      <point x="-271" y="1321"/>
      <point x="-297" y="1278"/>
      <point x="-315" y="1225" type="curve"/>
      <point x="-264" y="1154"/>
      <point x="-230" y="1087"/>
    </contour>
  </outline>
</glyph>
<glyph name="alefmokhassasabove-ar" format="2">
  <unicode hex="089D"/>
  <anchor x="0" y="-15" name="_diaA"/>
  <anchor x="0" y="700" name="diaA"/>
  <outline>
    <contour>
      <point x="-225" y="585" type="line"/>
      <point x="-232" y="382"/>
      <point x="-209" y="292"/>
      <point x="-216" y="-13" type="curve"/>
      <point x="-185" y="-7"/>
      <point x="-163" y="23"/>
      <point x="-155" y="60" type="curve" smooth="yes"/>
      <point x="-114" y="255"/>
      <point x="-144" y="496"/>
      <point x="-138" y="700" type="curve"/>
    </contour>
    <contour>
      <point x="265" y="491" type="curve" smooth="yes"/>
      <point x="157" y="484"/>
      <point x="-6" y="454"/>
      <point x="-36" y="431" type="curve" smooth="yes"/>
      <point x="-94" y="388"/>
      <point x="-199" y="83"/>
      <point x="-193" y="15" type="curve" smooth="yes"/>
      <point x="-193" y="14"/>
      <point x="-177" y="9"/>
      <point x="-176" y="13" type="curve" smooth="yes"/>
      <point x="-118" y="171"/>
      <point x="-58" y="280"/>
      <point x="-4" y="319" type="curve" smooth="yes"/>
      <point x="33" y="346"/>
      <point x="161" y="364"/>
      <point x="243" y="364" type="curve" smooth="yes"/>
      <point x="255" y="364"/>
      <point x="290" y="493"/>
    </contour>
  </outline>
</glyph>
<glyph name="maddadoubled-ar" format="2">
  <unicode hex="089E"/>
  <anchor x="0" y="1123" name="_diaA"/>
  <anchor x="0" y="1368" name="diaA"/>
  <outline>
    <component base="_madda" xOffset="-4" yOffset="1181"/>
    <contour>
      <point x="-241" y="1328" type="line"/>
      <point x="-218" y="1355"/>
      <point x="-212" y="1371"/>
      <point x="-201" y="1400" type="curve"/>
      <point x="-151" y="1349"/>
      <point x="-60" y="1342"/>
      <point x="0" y="1342" type="curve" smooth="yes"/>
      <point x="74" y="1342"/>
      <point x="159" y="1366"/>
      <point x="225" y="1414" type="curve"/>
      <point x="207" y="1437" type="line"/>
      <point x="149" y="1400"/>
      <point x="63" y="1387"/>
      <point x="1" y="1387" type="curve" smooth="yes"/>
      <point x="-68" y="1387"/>
      <point x="-152" y="1414"/>
      <point x="-212" y="1466" type="curve"/>
      <point x="-222" y="1420"/>
      <point x="-233" y="1386"/>
      <point x="-257" y="1341" type="curve"/>
    </contour>
  </outline>
</glyph>
<glyph name="halfmaddaovermadda-ar" format="2">
  <unicode hex="089F"/>
  <anchor x="0" y="1123" name="_diaA"/>
  <anchor x="0" y="1368" name="diaA"/>
  <outline>
    <component base="_madda" xOffset="-4" yOffset="1181"/>
    <contour>
      <point x="34" y="1389" type="line"/>
      <point x="19" y="1387"/>
      <point x="14" y="1387"/>
      <point x="1" y="1387" type="curve" smooth="yes"/>
      <point x="-68" y="1387"/>
      <point x="-152" y="1414"/>
      <point x="-212" y="1466" type="curve"/>
      <point x="-222" y="1420"/>
      <point x="-233" y="1386"/>
      <point x="-257" y="1341" type="curve"/>
      <point x="-241" y="1328" type="line"/>
      <point x="-218" y="1355"/>
      <point x="-212" y="1371"/>
      <point x="-201" y="1400" type="curve"/>
      <point x="-151" y="1349"/>
      <point x="-60" y="1342"/>
      <point x="0" y="1342" type="curve" smooth="yes"/>
      <point x="18" y="1342"/>
      <point x="26" y="1343"/>
      <point x="45" y="1346" type="curve"/>
    </contour>
  </outline>
</glyph>
<glyph name="rehLoop-ar" format="2">
  <advance width="604"/>
  <unicode hex="08AA"/>
  <anchor x="136" y="698" name="alefUnused"/>
  <anchor x="294" y="697" name="diaA"/>
  <anchor x="236" y="-516" name="diaB"/>
  <outline>
    <contour>
      <point x="453" y="-318" type="curve"/>
      <point x="465" y="-308" type="line"/>
      <point x="369" y="-200"/>
      <point x="179" y="-15"/>
      <point x="40" y="-15" type="curve" smooth="yes"/>
      <point x="-39" y="-15"/>
      <point x="-111" y="-70"/>
      <point x="-111" y="-158" type="curve" smooth="yes"/>
      <point x="-111" y="-265"/>
      <point x="119" y="-380"/>
      <point x="199" y="-380" type="curve" smooth="yes"/>
      <point x="312" y="-380"/>
      <point x="396" y="-307"/>
      <point x="448" y="-204" type="curve" smooth="yes"/>
      <point x="488" y="-126"/>
      <point x="521" y="49"/>
      <point x="521" y="142" type="curve" smooth="yes"/>
      <point x="521" y="245"/>
      <point x="503" y="425"/>
      <point x="392" y="477" type="curve"/>
      <point x="325" y="211" type="line"/>
      <point x="388" y="179"/>
      <point x="476" y="108"/>
      <point x="476" y="74" type="curve" smooth="yes"/>
      <point x="476" y="-35"/>
      <point x="247" y="-201"/>
      <point x="78" y="-201" type="curve" smooth="yes"/>
      <point x="44" y="-201"/>
      <point x="25" y="-189"/>
      <point x="25" y="-167" type="curve" smooth="yes"/>
      <point x="25" y="-154"/>
      <point x="37" y="-128"/>
      <point x="87" y="-128" type="curve" smooth="yes"/>
      <point x="178" y="-128"/>
      <point x="312" y="-185"/>
    </contour>
  </outline>
</glyph>
<glyph name="yehRohingya-ar" format="2">
  <advance width="1021"/>
  <unicode hex="08AC"/>
  <anchor x="462" y="880" name="diaA"/>
  <anchor x="508" y="-381" name="diaB"/>
  <outline>
    <component base="_dot2h" xOffset="508" yOffset="-230"/>
    <contour>
      <point x="743" y="-8" type="curve" smooth="yes"/>
      <point x="788" y="-8"/>
      <point x="837" y="4"/>
      <point x="889" y="31" type="curve"/>
      <point x="1002" y="301" type="line"/>
      <point x="948" y="280"/>
      <point x="883" y="271"/>
      <point x="818" y="271" type="curve" smooth="yes"/>
      <point x="652" y="271"/>
      <point x="484" y="330"/>
      <point x="484" y="407" type="curve" smooth="yes"/>
      <point x="484" y="458"/>
      <point x="560" y="540"/>
      <point x="606" y="540" type="curve" smooth="yes"/>
      <point x="651" y="540"/>
      <point x="698" y="467"/>
      <point x="698" y="419" type="curve" smooth="yes"/>
      <point x="698" y="290"/>
      <point x="508" y="226"/>
      <point x="310" y="226" type="curve" smooth="yes"/>
      <point x="198" y="226"/>
      <point x="84" y="247"/>
      <point x="1" y="288" type="curve"/>
      <point x="-7" y="272" type="line"/>
      <point x="49" y="85"/>
      <point x="195" y="-12"/>
      <point x="344" y="-12" type="curve" smooth="yes"/>
      <point x="544" y="-12"/>
      <point x="748" y="162"/>
      <point x="748" y="528" type="curve" smooth="yes"/>
      <point x="748" y="655"/>
      <point x="711" y="780"/>
      <point x="633" y="780" type="curve" smooth="yes"/>
      <point x="527" y="780"/>
      <point x="437" y="554"/>
      <point x="437" y="366" type="curve" smooth="yes"/>
      <point x="437" y="179"/>
      <point x="562" y="-8"/>
    </contour>
  </outline>
</glyph>
<glyph name="aleflow-ar" format="2">
  <advance width="189"/>
  <unicode hex="08AD"/>
  <anchor x="97" y="50" name="diaA"/>
  <anchor x="97" y="-500" name="diaB"/>
  <outline>
    <contour>
      <point x="15" y="-148" type="line"/>
      <point x="82" y="-225"/>
      <point x="111" y="-328"/>
      <point x="120" y="-434" type="curve"/>
      <point x="145" y="-434" type="line"/>
      <point x="178" y="-278"/>
      <point x="157" y="-132"/>
      <point x="50" y="-4" type="curve"/>
    </contour>
  </outline>
</glyph>
<glyph name="wawStraight-ar" format="2">
  <advance width="371"/>
  <unicode hex="08B1"/>
  <anchor x="143" y="697" name="diaA"/>
  <anchor x="162" y="-544" name="diaB"/>
  <outline>
    <contour>
      <point x="259" y="-471" type="curve"/>
      <point x="334" y="-329" type="line"/>
      <point x="334" y="-314"/>
      <point x="311" y="-265"/>
      <point x="311" y="-141" type="curve" smooth="yes"/>
      <point x="311" y="-52"/>
      <point x="324" y="34"/>
      <point x="324" y="184" type="curve" smooth="yes"/>
      <point x="324" y="346"/>
      <point x="256" y="559"/>
      <point x="165" y="559" type="curve" smooth="yes"/>
      <point x="60" y="559"/>
      <point x="40" y="289"/>
      <point x="40" y="219" type="curve" smooth="yes"/>
      <point x="40" y="125"/>
      <point x="77" y="34"/>
      <point x="143" y="34" type="curve" smooth="yes"/>
      <point x="213" y="34"/>
      <point x="255" y="146"/>
      <point x="267" y="202" type="curve"/>
      <point x="226" y="302" type="line"/>
      <point x="216" y="264"/>
      <point x="202" y="234"/>
      <point x="152" y="234" type="curve" smooth="yes"/>
      <point x="128" y="234"/>
      <point x="95" y="245"/>
      <point x="95" y="280" type="curve" smooth="yes"/>
      <point x="95" y="312"/>
      <point x="124" y="339"/>
      <point x="151" y="339" type="curve" smooth="yes"/>
      <point x="243" y="339"/>
      <point x="262" y="127"/>
      <point x="262" y="79" type="curve" smooth="yes"/>
      <point x="262" y="0"/>
      <point x="223" y="-151"/>
      <point x="223" y="-321" type="curve" smooth="yes"/>
      <point x="223" y="-400"/>
      <point x="247" y="-471"/>
    </contour>
  </outline>
</glyph>
<glyph name="yehSmall-farsi" format="2">
  <advance width="446"/>
  <unicode hex="08C9"/>
  <anchor x="184" y="282" name="diaA"/>
  <anchor x="189" y="-192" name="diaB"/>
  <outline>
    <contour>
      <point x="391" y="272" type="curve" smooth="yes"/>
      <point x="301" y="272"/>
      <point x="230" y="147"/>
      <point x="230" y="56" type="curve" smooth="yes"/>
      <point x="230" y="-15"/>
      <point x="374" y="13"/>
      <point x="368" y="-8" type="curve" smooth="yes"/>
      <point x="364" y="-19"/>
      <point x="300" y="-53"/>
      <point x="198" y="-53" type="curve" smooth="yes"/>
      <point x="126" y="-53"/>
      <point x="54" y="-37"/>
      <point x="54" y="42" type="curve" smooth="yes"/>
      <point x="54" y="63"/>
      <point x="60" y="91"/>
      <point x="73" y="124" type="curve"/>
      <point x="66" y="127" type="line"/>
      <point x="30" y="70"/>
      <point x="20" y="25"/>
      <point x="20" y="-11" type="curve" smooth="yes"/>
      <point x="20" y="-95"/>
      <point x="70" y="-165"/>
      <point x="184" y="-165" type="curve" smooth="yes"/>
      <point x="329" y="-165"/>
      <point x="413" y="-61"/>
      <point x="413" y="56" type="curve" smooth="yes"/>
      <point x="413" y="114"/>
      <point x="270" y="79"/>
      <point x="270" y="123" type="curve" smooth="yes"/>
      <point x="270" y="145"/>
      <point x="322" y="163"/>
      <point x="359" y="163" type="curve" smooth="yes"/>
      <point x="383" y="163"/>
      <point x="392" y="156"/>
      <point x="392" y="136" type="curve"/>
      <point x="415" y="173"/>
      <point x="426" y="202"/>
      <point x="426" y="227" type="curve" smooth="yes"/>
      <point x="426" y="255"/>
      <point x="412" y="272"/>
    </contour>
  </outline>
</glyph>
<glyph name="largerounddotabove-ar" format="2">
  <unicode hex="08CE"/>
  <anchor x="0" y="916" name="_diaA"/>
  <anchor x="0" y="1284" name="diaA"/>
  <outline>
    <contour>
      <point x="0" y="949" type="curve" smooth="yes"/>
      <point x="86" y="949"/>
      <point x="157" y="1020"/>
      <point x="157" y="1107" type="curve" smooth="yes"/>
      <point x="157" y="1193"/>
      <point x="86" y="1264"/>
      <point x="0" y="1264" type="curve" smooth="yes"/>
      <point x="-87" y="1264"/>
      <point x="-158" y="1193"/>
      <point x="-158" y="1107" type="curve" smooth="yes"/>
      <point x="-158" y="1020"/>
      <point x="-87" y="949"/>
    </contour>
  </outline>
</glyph>
<glyph name="largecirclebelow-ar" format="2">
  <unicode hex="08D1"/>
  <anchor x="0" y="172" name="_diaB"/>
  <anchor x="0" y="-364" name="diaB"/>
  <outline>
    <contour>
      <point x="0" y="-349" type="curve" smooth="yes"/>
      <point x="140" y="-349"/>
      <point x="253" y="-236"/>
      <point x="253" y="-96" type="curve" smooth="yes"/>
      <point x="253" y="44"/>
      <point x="140" y="157"/>
      <point x="0" y="157" type="curve" smooth="yes"/>
      <point x="-140" y="157"/>
      <point x="-253" y="44"/>
      <point x="-253" y="-96" type="curve" smooth="yes"/>
      <point x="-253" y="-236"/>
      <point x="-140" y="-349"/>
    </contour>
    <contour>
      <point x="0" y="-293" type="curve" smooth="yes"/>
      <point x="-109" y="-293"/>
      <point x="-197" y="-205"/>
      <point x="-197" y="-96" type="curve" smooth="yes"/>
      <point x="-197" y="13"/>
      <point x="-109" y="101"/>
      <point x="0" y="101" type="curve" smooth="yes"/>
      <point x="109" y="101"/>
      <point x="197" y="13"/>
      <point x="197" y="-96" type="curve" smooth="yes"/>
      <point x="197" y="-205"/>
      <point x="109" y="-293"/>
    </contour>
  </outline>
</glyph>
<glyph name="arrubabove-ar" format="2">
  <unicode hex="08D4"/>
  <anchor x="0" y="-373" name="_diaA"/>
  <anchor x="0" y="518" name="diaA"/>
  <outline>
    <component base="alef-ar" xScale="0.45" yScale="0.45" xOffset="344"/>
    <component base="lam-ar.init" xScale="0.45" yScale="0.45" xOffset="164"/>
    <component base="reh-ar.fina" xScale="0.45" yScale="0.45" xOffset="-75"/>
    <component base="behDotless-ar.init" xScale="0.45" yScale="0.45" xOffset="-145" yOffset="60"/>
    <component base="_dot1" xScale="0.45" yScale="0.45" xOffset="-35" yOffset="-12"/>
    <contour>
      <point x="-211" y="-355" type="curve"/>
      <point x="-51" y="-239" type="line"/>
      <point x="-51" y="-229" type="line"/>
      <point x="-182" y="-229" type="line" smooth="yes"/>
      <point x="-300" y="-229"/>
      <point x="-423" y="-202"/>
      <point x="-423" y="-56" type="curve" smooth="yes"/>
      <point x="-423" y="155"/>
      <point x="-177" y="183"/>
      <point x="-177" y="267" type="curve" smooth="yes"/>
      <point x="-177" y="311"/>
      <point x="-221" y="335"/>
      <point x="-299" y="335" type="curve" smooth="yes"/>
      <point x="-377" y="335"/>
      <point x="-434" y="281"/>
      <point x="-427" y="209" type="curve"/>
      <point x="-381" y="207"/>
      <point x="-358" y="197"/>
      <point x="-354" y="191" type="curve"/>
      <point x="-353" y="207" type="line"/>
      <point x="-430" y="164"/>
      <point x="-457" y="53"/>
      <point x="-457" y="-78" type="curve" smooth="yes"/>
      <point x="-457" y="-260"/>
      <point x="-366" y="-358"/>
    </contour>
    <contour>
      <point x="-118" y="60" type="curve" smooth="yes"/>
      <point x="-101" y="60"/>
      <point x="-84" y="88"/>
      <point x="-84" y="123" type="curve" smooth="yes"/>
      <point x="-84" y="176"/>
      <point x="-101" y="186"/>
      <point x="-118" y="186" type="curve" smooth="yes"/>
      <point x="-201" y="186"/>
      <point x="-263" y="191"/>
      <point x="-302" y="232" type="curve"/>
      <point x="-358" y="203" type="line"/>
      <point x="-297" y="114"/>
      <point x="-227" y="60"/>
    </contour>
  </outline>
</glyph>
<glyph name="dammaCurly-ar" format="2">
  <unicode hex="08E5"/>
  <anchor x="0" y="1048" name="_diaA"/>
  <anchor x="0" y="1512" name="diaA"/>
  <outline>
    <contour>
      <point x="-93" y="1068" type="curve"/>
      <point x="31" y="1068"/>
      <point x="194" y="1262"/>
      <point x="194" y="1389" type="curve" smooth="yes"/>
      <point x="194" y="1433"/>
      <point x="161" y="1462"/>
      <point x="115" y="1462" type="curve" smooth="yes"/>
      <point x="55" y="1462"/>
      <point x="-30" y="1435"/>
      <point x="-30" y="1329" type="curve" smooth="yes"/>
      <point x="-30" y="1258"/>
      <point x="43" y="1198"/>
      <point x="146" y="1137" type="curve"/>
      <point x="201" y="1221" type="line"/>
      <point x="69" y="1286"/>
      <point x="42" y="1311"/>
      <point x="42" y="1346" type="curve" smooth="yes"/>
      <point x="42" y="1379"/>
      <point x="72" y="1403"/>
      <point x="94" y="1403" type="curve" smooth="yes"/>
      <point x="112" y="1403"/>
      <point x="128" y="1388"/>
      <point x="128" y="1362" type="curve" smooth="yes"/>
      <point x="128" y="1278"/>
      <point x="6" y="1118"/>
      <point x="-90" y="1118" type="curve" smooth="yes"/>
      <point x="-134" y="1118"/>
      <point x="-171" y="1178"/>
      <point x="-185" y="1256" type="curve"/>
      <point x="-198" y="1248" type="line"/>
      <point x="-195" y="1140"/>
      <point x="-150" y="1068"/>
    </contour>
  </outline>
</glyph>
<glyph name="fathaRing-ar" format="2">
  <unicode hex="08F4"/>
  <anchor x="-1" y="942" name="_diaA"/>
  <anchor x="0" y="1365" name="diaA"/>
  <outline>
    <component base="_ring" xScale="1.1" yScale="1.1" xOffset="14" yOffset="1157"/>
    <contour>
      <point x="-196" y="1023" type="line"/>
      <point x="148" y="1193" type="line"/>
      <point x="196" y="1308" type="line"/>
      <point x="-146" y="1138" type="line"/>
    </contour>
  </outline>
</glyph>
<glyph name="endash" format="2">
  <advance width="802"/>
  <unicode hex="2013"/>
  <note>
endash
</note>
  <outline>
    <contour>
      <point x="0" y="312" type="line"/>
      <point x="802" y="312" type="line"/>
      <point x="802" y="422" type="line"/>
      <point x="0" y="422" type="line"/>
    </contour>
  </outline>
</glyph>
<glyph name="emdash" format="2">
  <advance width="1605"/>
  <unicode hex="2014"/>
  <note>
emdash
</note>
  <outline>
    <contour>
      <point x="0" y="312" type="line"/>
      <point x="1605" y="312" type="line"/>
      <point x="1605" y="422" type="line"/>
      <point x="0" y="422" type="line"/>
    </contour>
  </outline>
</glyph>
<glyph name="guilsinglleft" format="2">
  <advance width="320"/>
  <unicode hex="2039"/>
  <outline>
    <contour>
      <point x="181" y="25" type="curve"/>
      <point x="297" y="112" type="line"/>
      <point x="104" y="250"/>
      <point x="77" y="451"/>
      <point x="249" y="611" type="curve"/>
      <point x="181" y="660" type="line"/>
      <point x="-12" y="475"/>
      <point x="-15" y="215"/>
    </contour>
  </outline>
</glyph>
<glyph name="foursuperior" format="2">
  <advance width="642"/>
  <unicode hex="2074"/>
  <outline>
    <contour>
      <point x="518" y="414" type="line"/>
      <point x="518" y="743" type="line"/>
      <point x="518" y="820"/>
      <point x="520" y="896"/>
      <point x="526" y="947" type="curve"/>
      <point x="393" y="947" type="line"/>
      <point x="13" y="539" type="line"/>
      <point x="24" y="475" type="line"/>
      <point x="608" y="475" type="line"/>
      <point x="608" y="589" type="line"/>
      <point x="152" y="589" type="line"/>
      <point x="148" y="573" type="line"/>
      <point x="323" y="761" type="line"/>
      <point x="306" y="756" type="line"/>
      <point x="306" y="414" type="line"/>
      <point x="215" y="397" type="line"/>
      <point x="220" y="320" type="line"/>
      <point x="591" y="320" type="line"/>
      <point x="594" y="397" type="line"/>
    </contour>
  </outline>
</glyph>
<glyph name="riyalSaudi" format="2">
  <advance width="1135"/>
  <unicode hex="20C1"/>
  <outline>
    <contour>
      <point x="98" y="58" type="curve"/>
      <point x="168" y="73"/>
      <point x="361" y="113"/>
      <point x="386" y="118" type="curve" smooth="yes"/>
      <point x="421" y="124"/>
      <point x="433" y="137"/>
      <point x="452" y="163" type="curve" smooth="yes"/>
      <point x="465" y="183"/>
      <point x="485" y="209"/>
      <point x="502" y="235" type="curve" smooth="yes"/>
      <point x="512" y="251"/>
      <point x="516" y="261"/>
      <point x="516" y="285" type="curve" smooth="yes"/>
      <point x="516" y="956" type="line"/>
      <point x="476" y="936"/>
      <point x="418" y="888"/>
      <point x="391" y="855" type="curve"/>
      <point x="391" y="247" type="line"/>
      <point x="135" y="194" type="line"/>
      <point x="117" y="163"/>
      <point x="100" y="96"/>
    </contour>
    <contour>
      <point x="613" y="-26" type="curve"/>
      <point x="938" y="42" type="line"/>
      <point x="955" y="73"/>
      <point x="972" y="140"/>
      <point x="975" y="178" type="curve"/>
      <point x="650" y="110" type="line"/>
      <point x="632" y="80"/>
      <point x="616" y="16"/>
    </contour>
    <contour>
      <point x="152" y="314" type="curve"/>
      <point x="938" y="482" type="line"/>
      <point x="954" y="513"/>
      <point x="972" y="589"/>
      <point x="975" y="619" type="curve"/>
      <point x="189" y="451" type="line"/>
      <point x="173" y="420"/>
      <point x="154" y="345"/>
    </contour>
    <contour>
      <point x="606" y="192" type="line"/>
      <point x="938" y="262" type="line"/>
      <point x="955" y="293"/>
      <point x="972" y="361"/>
      <point x="975" y="398" type="curve"/>
      <point x="730" y="347" type="line"/>
      <point x="730" y="904" type="line"/>
      <point x="690" y="884"/>
      <point x="633" y="835"/>
      <point x="606" y="802" type="curve"/>
    </contour>
  </outline>
</glyph>
<glyph name="rufiyaa" format="2">
  <advance width="929"/>
  <unicode hex="20C2"/>
  <outline>
    <contour>
      <point x="123" y="-6" type="curve" smooth="yes"/>
      <point x="166" y="-6"/>
      <point x="278" y="137"/>
      <point x="722" y="668" type="curve"/>
      <point x="857" y="807"/>
      <point x="929" y="868"/>
      <point x="929" y="896" type="curve" smooth="yes"/>
      <point x="929" y="928"/>
      <point x="908" y="956"/>
      <point x="852" y="956" type="curve" smooth="yes"/>
      <point x="819" y="956"/>
      <point x="766" y="951"/>
      <point x="730" y="913" type="curve" smooth="yes"/>
      <point x="566" y="737" type="line"/>
      <point x="113" y="192" type="line"/>
      <point x="103" y="181"/>
      <point x="65" y="182"/>
      <point x="42" y="182" type="curve" smooth="yes"/>
      <point x="20" y="182"/>
      <point x="0" y="180"/>
      <point x="0" y="135" type="curve" smooth="yes"/>
      <point x="0" y="18"/>
      <point x="99" y="-6"/>
    </contour>
    <contour>
      <point x="831" y="534" type="curve" smooth="yes"/>
      <point x="866" y="534"/>
      <point x="923" y="553"/>
      <point x="923" y="631" type="curve" smooth="yes"/>
      <point x="923" y="660"/>
      <point x="914" y="677"/>
      <point x="891" y="684" type="curve" smooth="yes"/>
      <point x="805" y="709"/>
      <point x="486" y="795"/>
      <point x="432" y="795" type="curve" smooth="yes"/>
      <point x="400" y="795"/>
      <point x="341" y="784"/>
      <point x="341" y="718" type="curve" smooth="yes"/>
      <point x="341" y="666"/>
      <point x="362" y="658"/>
      <point x="396" y="644" type="curve" smooth="yes"/>
      <point x="507" y="603"/>
      <point x="796" y="534"/>
    </contour>
    <contour>
      <point x="664" y="338" type="curve" smooth="yes"/>
      <point x="700" y="338"/>
      <point x="757" y="357"/>
      <point x="757" y="426" type="curve" smooth="yes"/>
      <point x="757" y="455"/>
      <point x="748" y="472"/>
      <point x="724" y="479" type="curve" smooth="yes"/>
      <point x="639" y="504"/>
      <point x="319" y="590"/>
      <point x="266" y="590" type="curve" smooth="yes"/>
      <point x="233" y="590"/>
      <point x="175" y="579"/>
      <point x="175" y="513" type="curve" smooth="yes"/>
      <point x="175" y="470"/>
      <point x="195" y="461"/>
      <point x="230" y="448" type="curve" smooth="yes"/>
      <point x="341" y="407"/>
      <point x="629" y="338"/>
    </contour>
  </outline>
</glyph>
<glyph name="uaeDirham" format="2">
  <advance width="1473"/>
  <unicode hex="20C3"/>
  <outline>
    <component base="D" xOffset="128"/>
    <contour>
      <point x="100" y="684" type="line"/>
      <point x="100" y="596"/>
      <point x="132" y="547"/>
      <point x="220" y="547" type="curve"/>
      <point x="1373" y="547" type="line"/>
      <point x="1373" y="623"/>
      <point x="1341" y="684"/>
      <point x="1253" y="684" type="curve"/>
    </contour>
    <contour>
      <point x="100" y="410" type="line"/>
      <point x="100" y="322"/>
      <point x="132" y="273"/>
      <point x="220" y="273" type="curve"/>
      <point x="1373" y="273" type="line"/>
      <point x="1373" y="349"/>
      <point x="1341" y="410"/>
      <point x="1253" y="410" type="curve"/>
    </contour>
  </outline>
</glyph>
<glyph name="omaniRial" format="2">
  <advance width="1529"/>
  <unicode hex="20C4"/>
  <outline>
    <contour>
      <point x="698" y="193" type="curve"/>
      <point x="1166" y="241" type="line"/>
      <point x="974" y="271"/>
      <point x="579" y="472"/>
      <point x="561" y="622" type="curve"/>
      <point x="553" y="567" type="line"/>
      <point x="571" y="678"/>
      <point x="765" y="749"/>
      <point x="938" y="749" type="curve" smooth="yes"/>
      <point x="956" y="749"/>
      <point x="976" y="749"/>
      <point x="994" y="748" type="curve"/>
      <point x="1026" y="807" type="line"/>
      <point x="968" y="898"/>
      <point x="875" y="956"/>
      <point x="791" y="956" type="curve" smooth="yes"/>
      <point x="603" y="956"/>
      <point x="500" y="766"/>
      <point x="500" y="479" type="curve" smooth="yes"/>
      <point x="500" y="404"/>
      <point x="550" y="313"/>
    </contour>
    <contour>
      <point x="1372" y="255" type="line"/>
      <point x="114" y="255" type="line"/>
      <point x="0" y="99" type="line"/>
      <point x="1258" y="99" type="line"/>
    </contour>
    <contour>
      <point x="1549" y="522" type="line"/>
      <point x="291" y="522" type="line"/>
      <point x="182" y="366" type="line"/>
      <point x="1440" y="366" type="line"/>
    </contour>
  </outline>
</glyph>
<glyph name="trademark" format="2">
  <advance width="1835"/>
  <unicode hex="2122"/>
  <outline>
    <contour>
      <point x="1417" y="478" type="line"/>
      <point x="1787" y="478" type="line"/>
      <point x="1792" y="552" type="line"/>
      <point x="1712" y="568" type="line"/>
      <point x="1693" y="1014" type="line"/>
      <point x="1773" y="1030" type="line"/>
      <point x="1768" y="1104" type="line"/>
      <point x="1462" y="1104" type="line"/>
      <point x="1272" y="678" type="line"/>
      <point x="1320" y="678" type="line"/>
      <point x="1086" y="1104" type="line"/>
      <point x="797" y="1104" type="line"/>
      <point x="792" y="1028" type="line"/>
      <point x="873" y="1011" type="line"/>
      <point x="866" y="568" type="line"/>
      <point x="786" y="552" type="line"/>
      <point x="791" y="478" type="line"/>
      <point x="1060" y="478" type="line"/>
      <point x="1065" y="552" type="line"/>
      <point x="985" y="568" type="line"/>
      <point x="980" y="1068" type="line"/>
      <point x="861" y="1068" type="line"/>
      <point x="1189" y="478" type="line"/>
      <point x="1295" y="478" type="line"/>
      <point x="1558" y="1072" type="line"/>
      <point x="1478" y="1072" type="line"/>
      <point x="1484" y="568" type="line"/>
      <point x="1412" y="552" type="line"/>
    </contour>
    <contour>
      <point x="165" y="478" type="line"/>
      <point x="617" y="478" type="line"/>
      <point x="622" y="552" type="line"/>
      <point x="505" y="568" type="line"/>
      <point x="500" y="613"/>
      <point x="502" y="677"/>
      <point x="502" y="746" type="curve" smooth="yes"/>
      <point x="502" y="792" type="line" smooth="yes"/>
      <point x="502" y="903"/>
      <point x="503" y="1014"/>
      <point x="503" y="1025" type="curve"/>
      <point x="511" y="1027"/>
      <point x="520" y="1027"/>
      <point x="532" y="1027" type="curve" smooth="yes"/>
      <point x="555" y="1027" type="line" smooth="yes"/>
      <point x="582" y="1027"/>
      <point x="589" y="1025"/>
      <point x="616" y="1023" type="curve"/>
      <point x="661" y="897" type="line"/>
      <point x="751" y="903" type="line"/>
      <point x="723" y="1112" type="line"/>
      <point x="685" y="1109"/>
      <point x="556" y="1104"/>
      <point x="513" y="1104" type="curve" smooth="yes"/>
      <point x="268" y="1104" type="line" smooth="yes"/>
      <point x="218" y="1104"/>
      <point x="93" y="1109"/>
      <point x="51" y="1112" type="curve"/>
      <point x="30" y="902" type="line"/>
      <point x="120" y="895" type="line"/>
      <point x="160" y="1023" type="line"/>
      <point x="187" y="1025"/>
      <point x="199" y="1027"/>
      <point x="227" y="1027" type="curve" smooth="yes"/>
      <point x="248" y="1027" type="line" smooth="yes"/>
      <point x="260" y="1027"/>
      <point x="269" y="1027"/>
      <point x="277" y="1025" type="curve"/>
      <point x="279" y="1015"/>
      <point x="280" y="903"/>
      <point x="280" y="792" type="curve" smooth="yes"/>
      <point x="280" y="746" type="line" smooth="yes"/>
      <point x="280" y="677"/>
      <point x="280" y="613"/>
      <point x="276" y="568" type="curve"/>
      <point x="160" y="550" type="line"/>
    </contour>
  </outline>
</glyph>
<glyph name="partialdiff" format="2">
  <advance width="891"/>
  <unicode hex="2202"/>
  <note>
partialdiff
</note>
  <outline>
    <contour>
      <point x="381" y="-17" type="curve" smooth="yes"/>
      <point x="643" y="-17"/>
      <point x="865" y="268"/>
      <point x="865" y="678" type="curve" smooth="yes"/>
      <point x="865" y="958"/>
      <point x="714" y="1131"/>
      <point x="425" y="1131" type="curve" smooth="yes"/>
      <point x="377" y="1131"/>
      <point x="340" y="1129"/>
      <point x="292" y="1123" type="curve"/>
      <point x="292" y="1032" type="line"/>
      <point x="340" y="1032" type="line" smooth="yes"/>
      <point x="545" y="1032"/>
      <point x="632" y="932"/>
      <point x="632" y="749" type="curve" smooth="yes"/>
      <point x="632" y="699"/>
      <point x="625" y="643"/>
      <point x="613" y="579" type="curve"/>
      <point x="637" y="579" type="line"/>
      <point x="619" y="669"/>
      <point x="547" y="728"/>
      <point x="441" y="728" type="curve" smooth="yes"/>
      <point x="235" y="728"/>
      <point x="60" y="537"/>
      <point x="60" y="292" type="curve" smooth="yes"/>
      <point x="60" y="99"/>
      <point x="186" y="-17"/>
    </contour>
    <contour>
      <point x="398" y="85" type="curve" smooth="yes"/>
      <point x="343" y="85"/>
      <point x="306" y="157"/>
      <point x="306" y="266" type="curve" smooth="yes"/>
      <point x="306" y="460"/>
      <point x="393" y="622"/>
      <point x="475" y="622" type="curve" smooth="yes"/>
      <point x="531" y="622"/>
      <point x="564" y="548"/>
      <point x="564" y="441" type="curve" smooth="yes"/>
      <point x="564" y="253"/>
      <point x="475" y="85"/>
    </contour>
  </outline>
</glyph>
<glyph name="Delta" format="2">
  <advance width="1082"/>
  <unicode hex="2206"/>
  <note>
uni2206
</note>
  <outline>
    <contour>
      <point x="4" y="0" type="line"/>
      <point x="1078" y="0" type="line"/>
      <point x="544" y="974" type="line"/>
    </contour>
    <contour>
      <point x="176" y="65" type="line"/>
      <point x="513" y="685" type="line"/>
      <point x="451" y="686" type="line"/>
      <point x="789" y="65" type="line"/>
      <point x="815" y="163" type="line"/>
      <point x="179" y="163" type="line"/>
    </contour>
  </outline>
</glyph>
<glyph name="summation" format="2">
  <advance width="839"/>
  <unicode hex="2211"/>
  <note>
summation
</note>
  <outline>
    <contour>
      <point x="675" y="200" type="line"/>
      <point x="640" y="60" type="line"/>
      <point x="606" y="57"/>
      <point x="572" y="54"/>
      <point x="502" y="54" type="curve" smooth="yes"/>
      <point x="115" y="54" type="line"/>
      <point x="131" y="-93" type="line"/>
      <point x="560" y="422" type="line"/>
      <point x="237" y="914" type="line"/>
      <point x="235" y="842" type="line"/>
      <point x="492" y="842" type="line" smooth="yes"/>
      <point x="563" y="842"/>
      <point x="598" y="841"/>
      <point x="630" y="836" type="curve"/>
      <point x="666" y="667" type="line"/>
      <point x="775" y="667" type="line"/>
      <point x="780" y="946" type="line"/>
      <point x="728" y="942"/>
      <point x="654" y="942"/>
      <point x="613" y="942" type="curve" smooth="yes"/>
      <point x="134" y="942" type="line" smooth="yes"/>
      <point x="91" y="942"/>
      <point x="49" y="943"/>
      <point x="6" y="945" type="curve"/>
      <point x="6" y="852" type="line"/>
      <point x="372" y="311" type="line"/>
      <point x="415" y="451" type="line"/>
      <point x="11" y="-52" type="line"/>
      <point x="11" y="-147" type="line"/>
      <point x="51" y="-146"/>
      <point x="94" y="-144"/>
      <point x="139" y="-144" type="curve" smooth="yes"/>
      <point x="617" y="-144" type="line" smooth="yes"/>
      <point x="661" y="-144"/>
      <point x="735" y="-144"/>
      <point x="784" y="-149" type="curve"/>
      <point x="781" y="200" type="line"/>
    </contour>
  </outline>
</glyph>
<glyph name="minus" format="2">
  <advance width="866"/>
  <unicode hex="2212"/>
  <outline>
    <contour>
      <point x="829" y="348" type="line"/>
      <point x="829" y="497" type="line"/>
      <point x="37" y="497" type="line"/>
      <point x="37" y="348" type="line"/>
    </contour>
  </outline>
</glyph>
<glyph name="bulletoperator" format="2">
  <advance width="866"/>
  <unicode hex="2219"/>
  <note>
periodcentered
</note>
  <outline>
    <contour>
      <point x="433" y="240" type="curve" smooth="yes"/>
      <point x="526" y="240"/>
      <point x="600" y="311"/>
      <point x="600" y="402" type="curve" smooth="yes"/>
      <point x="600" y="495"/>
      <point x="526" y="571"/>
      <point x="433" y="571" type="curve" smooth="yes"/>
      <point x="343" y="571"/>
      <point x="266" y="495"/>
      <point x="266" y="402" type="curve" smooth="yes"/>
      <point x="266" y="311"/>
      <point x="343" y="240"/>
    </contour>
  </outline>
</glyph>
<glyph name="integral" format="2">
  <advance width="592"/>
  <unicode hex="222B"/>
  <outline>
    <contour>
      <point x="124" y="-370" type="curve" smooth="yes"/>
      <point x="307" y="-370"/>
      <point x="448" y="-216"/>
      <point x="430" y="118" type="curve" smooth="yes"/>
      <point x="382" y="983" type="line" smooth="yes"/>
      <point x="374" y="1094"/>
      <point x="379" y="1152"/>
      <point x="417" y="1181" type="curve"/>
      <point x="483" y="1121" type="line" smooth="yes"/>
      <point x="515" y="1091"/>
      <point x="544" y="1076"/>
      <point x="583" y="1076" type="curve" smooth="yes"/>
      <point x="633" y="1076"/>
      <point x="665" y="1104"/>
      <point x="665" y="1155" type="curve" smooth="yes"/>
      <point x="665" y="1229"/>
      <point x="583" y="1280"/>
      <point x="469" y="1280" type="curve" smooth="yes"/>
      <point x="275" y="1280"/>
      <point x="132" y="1128"/>
      <point x="143" y="903" type="curve" smooth="yes"/>
      <point x="191" y="-11" type="line" smooth="yes"/>
      <point x="201" y="-184"/>
      <point x="202" y="-240"/>
      <point x="173" y="-271" type="curve"/>
      <point x="109" y="-211" type="line" smooth="yes"/>
      <point x="77" y="-181"/>
      <point x="48" y="-166"/>
      <point x="8" y="-166" type="curve" smooth="yes"/>
      <point x="-41" y="-166"/>
      <point x="-73" y="-192"/>
      <point x="-73" y="-243" type="curve" smooth="yes"/>
      <point x="-73" y="-317"/>
      <point x="10" y="-370"/>
    </contour>
  </outline>
</glyph>
<glyph name="approxequal" format="2">
  <advance width="866"/>
  <unicode hex="2248"/>
  <outline>
    <contour>
      <point x="707" y="643" type="line"/>
      <point x="683" y="597"/>
      <point x="650" y="571"/>
      <point x="608" y="571" type="curve" smooth="yes"/>
      <point x="537" y="571"/>
      <point x="394" y="674"/>
      <point x="279" y="674" type="curve" smooth="yes"/>
      <point x="192" y="674"/>
      <point x="115" y="609"/>
      <point x="85" y="505" type="curve"/>
      <point x="158" y="455" type="line"/>
      <point x="186" y="505"/>
      <point x="219" y="529"/>
      <point x="258" y="529" type="curve" smooth="yes"/>
      <point x="329" y="529"/>
      <point x="471" y="428"/>
      <point x="587" y="428" type="curve" smooth="yes"/>
      <point x="674" y="428"/>
      <point x="751" y="492"/>
      <point x="781" y="593" type="curve"/>
    </contour>
    <contour>
      <point x="707" y="357" type="line"/>
      <point x="683" y="311"/>
      <point x="650" y="285"/>
      <point x="608" y="285" type="curve" smooth="yes"/>
      <point x="537" y="285"/>
      <point x="394" y="388"/>
      <point x="279" y="388" type="curve" smooth="yes"/>
      <point x="192" y="388"/>
      <point x="115" y="324"/>
      <point x="85" y="219" type="curve"/>
      <point x="158" y="170" type="line"/>
      <point x="186" y="219"/>
      <point x="219" y="243"/>
      <point x="258" y="243" type="curve" smooth="yes"/>
      <point x="329" y="243"/>
      <point x="471" y="142"/>
      <point x="587" y="142" type="curve" smooth="yes"/>
      <point x="674" y="142"/>
      <point x="751" y="207"/>
      <point x="781" y="308" type="curve"/>
    </contour>
  </outline>
</glyph>
<glyph name="greaterequal" format="2">
  <advance width="866"/>
  <unicode hex="2265"/>
  <outline>
    <contour>
      <point x="781" y="396" type="line"/>
      <point x="781" y="563" type="line"/>
      <point x="85" y="775" type="line"/>
      <point x="85" y="617" type="line"/>
      <point x="743" y="426" type="line"/>
      <point x="743" y="536" type="line"/>
      <point x="85" y="345" type="line"/>
      <point x="85" y="189" type="line"/>
    </contour>
    <contour>
      <point x="781" y="149" type="line"/>
      <point x="85" y="149" type="line"/>
      <point x="85" y="0" type="line"/>
      <point x="781" y="0" type="line"/>
    </contour>
  </outline>
</glyph>
<glyph name="lozenge" format="2">
  <advance width="866"/>
  <unicode hex="25CA"/>
  <outline>
    <contour>
      <point x="799" y="398" type="line"/>
      <point x="511" y="1081" type="line"/>
      <point x="353" y="1081" type="line"/>
      <point x="69" y="398" type="line"/>
      <point x="353" y="-285" type="line"/>
      <point x="511" y="-285" type="line"/>
    </contour>
    <contour>
      <point x="629" y="398" type="line"/>
      <point x="431" y="-93" type="line"/>
      <point x="237" y="398" type="line"/>
      <point x="431" y="890" type="line"/>
    </contour>
  </outline>
</glyph>
<glyph name="rahmatuAllaahiAlayhim-ar" format="2">
  <advance width="2753"/>
  <unicode hex="FBC6"/>
  <outline>
    <component base="_allah.cal" xOffset="779" yOffset="416"/>
    <component base="_dot2h.cal" xOffset="1390" yOffset="-762"/>
    <component base="_smallv.cal" xOffset="193" yOffset="-107"/>
    <component base="_dot2h.cal" xOffset="483" yOffset="677"/>
    <contour>
      <point x="1822" y="275" type="curve" smooth="yes"/>
      <point x="1958" y="275"/>
      <point x="2063" y="470"/>
      <point x="2274" y="470" type="curve"/>
      <point x="2300" y="467"/>
      <point x="2326" y="465"/>
      <point x="2392" y="462" type="curve"/>
      <point x="2439" y="625" type="line"/>
      <point x="2301" y="629" type="line"/>
      <point x="2105" y="629"/>
      <point x="2068" y="710"/>
      <point x="1953" y="710" type="curve" smooth="yes"/>
      <point x="1868" y="710"/>
      <point x="1814" y="632"/>
      <point x="1798" y="514" type="curve"/>
      <point x="1812" y="509" type="line"/>
      <point x="1856" y="559"/>
      <point x="1886" y="575"/>
      <point x="1928" y="575" type="curve" smooth="yes"/>
      <point x="2035" y="575"/>
      <point x="2090" y="484"/>
      <point x="2255" y="484" type="curve"/>
      <point x="2275" y="605" type="line"/>
      <point x="2119" y="605"/>
      <point x="1942" y="442"/>
      <point x="1804" y="442" type="curve" smooth="yes"/>
      <point x="1731" y="442"/>
      <point x="1687" y="483"/>
      <point x="1640" y="518" type="curve"/>
      <point x="1643" y="503"/>
      <point x="1694" y="376"/>
      <point x="1694" y="311" type="curve"/>
      <point x="1694" y="303"/>
      <point x="1754" y="275"/>
    </contour>
    <contour>
      <point x="495" y="408" type="curve" smooth="yes"/>
      <point x="561" y="408"/>
      <point x="649" y="438"/>
      <point x="678" y="503" type="curve"/>
      <point x="650" y="591" type="line"/>
      <point x="653" y="574"/>
      <point x="589" y="555"/>
      <point x="557" y="555" type="curve" smooth="yes"/>
      <point x="529" y="555"/>
      <point x="518" y="561"/>
      <point x="518" y="571" type="curve" smooth="yes"/>
      <point x="518" y="595"/>
      <point x="585" y="645"/>
      <point x="641" y="655" type="curve"/>
      <point x="636" y="700" type="line"/>
      <point x="527" y="669"/>
      <point x="421" y="577"/>
      <point x="421" y="456" type="curve" smooth="yes"/>
      <point x="421" y="416"/>
      <point x="471" y="408"/>
    </contour>
    <contour>
      <point x="1636" y="344" type="curve" smooth="yes"/>
      <point x="1608" y="344"/>
      <point x="1543" y="371"/>
      <point x="1543" y="407" type="curve" smooth="yes"/>
      <point x="1543" y="417"/>
      <point x="1573" y="494"/>
      <point x="1596" y="494" type="curve" smooth="yes"/>
      <point x="1618" y="494"/>
      <point x="1655" y="384"/>
      <point x="1655" y="367" type="curve" smooth="yes"/>
      <point x="1655" y="354"/>
      <point x="1647" y="344"/>
    </contour>
    <contour>
      <point x="2384" y="261" type="curve" smooth="yes"/>
      <point x="2506" y="261"/>
      <point x="2580" y="413"/>
      <point x="2580" y="660" type="curve" smooth="yes"/>
      <point x="2580" y="741"/>
      <point x="2552" y="839"/>
      <point x="2503" y="871" type="curve"/>
      <point x="2457" y="709" type="line"/>
      <point x="2495" y="696"/>
      <point x="2553" y="659"/>
      <point x="2553" y="619" type="curve" smooth="yes"/>
      <point x="2553" y="452"/>
      <point x="2351" y="342"/>
      <point x="2214" y="342" type="curve" smooth="yes"/>
      <point x="2196" y="342"/>
      <point x="2179" y="344"/>
      <point x="2162" y="349" type="curve"/>
      <point x="2158" y="341" type="line"/>
      <point x="2196" y="304"/>
      <point x="2318" y="261"/>
    </contour>
    <contour>
      <point x="1710" y="614" type="curve"/>
      <point x="1738" y="620"/>
      <point x="1759" y="648"/>
      <point x="1766" y="681" type="curve" smooth="yes"/>
      <point x="1804" y="860"/>
      <point x="1775" y="1179"/>
      <point x="1782" y="1323" type="curve"/>
      <point x="1701" y="1217" type="line"/>
      <point x="1695" y="1061"/>
      <point x="1714" y="770"/>
    </contour>
    <contour>
      <point x="998" y="233" type="curve" smooth="yes"/>
      <point x="1215" y="233"/>
      <point x="1455" y="296"/>
      <point x="1519" y="362" type="curve"/>
      <point x="1439" y="344" type="line"/>
      <point x="1508" y="263"/>
      <point x="1587" y="206"/>
      <point x="1651" y="206" type="curve" smooth="yes"/>
      <point x="1669" y="206"/>
      <point x="1712" y="225"/>
      <point x="1712" y="283" type="curve" smooth="yes"/>
      <point x="1712" y="370"/>
      <point x="1681" y="543"/>
      <point x="1600" y="543" type="curve" smooth="yes"/>
      <point x="1532" y="543"/>
      <point x="1508" y="402"/>
      <point x="998" y="402" type="curve" smooth="yes"/>
      <point x="703" y="402"/>
      <point x="672" y="593"/>
      <point x="650" y="833" type="curve"/>
      <point x="614" y="786" type="line"/>
      <point x="654" y="499"/>
      <point x="666" y="233"/>
    </contour>
    <contour>
      <point x="2253" y="-166" type="curve"/>
      <point x="2458" y="-92" type="line"/>
      <point x="2347" y="-92"/>
      <point x="2256" y="-26"/>
      <point x="2256" y="-3" type="curve" smooth="yes"/>
      <point x="2256" y="20"/>
      <point x="2327" y="66"/>
      <point x="2397" y="66" type="curve" smooth="yes"/>
      <point x="2440" y="66"/>
      <point x="2483" y="53"/>
      <point x="2511" y="37" type="curve"/>
      <point x="2518" y="44" type="line"/>
      <point x="2518" y="155"/>
      <point x="2447" y="232"/>
      <point x="2382" y="232" type="curve" smooth="yes"/>
      <point x="2274" y="232"/>
      <point x="2210" y="53"/>
      <point x="2210" y="-54" type="curve" smooth="yes"/>
      <point x="2210" y="-85"/>
      <point x="2223" y="-138"/>
    </contour>
    <contour>
      <point x="1294" y="-103" type="curve" smooth="yes"/>
      <point x="1315" y="-103"/>
      <point x="1327" y="-128"/>
      <point x="1327" y="-168" type="curve" smooth="yes"/>
      <point x="1327" y="-191"/>
      <point x="1284" y="-227"/>
      <point x="1166" y="-236" type="curve"/>
      <point x="1188" y="-174"/>
      <point x="1240" y="-103"/>
    </contour>
    <contour>
      <point x="1284" y="-510" type="curve" smooth="yes"/>
      <point x="1254" y="-510"/>
      <point x="1213" y="-473"/>
      <point x="1185" y="-414" type="curve"/>
      <point x="1295" y="-426"/>
      <point x="1323" y="-452"/>
      <point x="1323" y="-493" type="curve" smooth="yes"/>
      <point x="1323" y="-502"/>
      <point x="1307" y="-510"/>
    </contour>
    <contour>
      <point x="1026" y="-241" type="curve" smooth="yes"/>
      <point x="858" y="-241"/>
      <point x="787" y="-136"/>
      <point x="727" y="37" type="curve"/>
      <point x="712" y="-122" type="line"/>
      <point x="778" y="-297"/>
      <point x="858" y="-407"/>
      <point x="1026" y="-407" type="curve" smooth="yes"/>
      <point x="1073" y="-407"/>
      <point x="1094" y="-408"/>
      <point x="1141" y="-410" type="curve"/>
      <point x="1161" y="-535"/>
      <point x="1206" y="-654"/>
      <point x="1260" y="-654" type="curve" smooth="yes"/>
      <point x="1324" y="-654"/>
      <point x="1352" y="-553"/>
      <point x="1352" y="-475" type="curve" smooth="yes"/>
      <point x="1352" y="-469"/>
      <point x="1347" y="-428"/>
      <point x="1325" y="-386" type="curve"/>
      <point x="1483" y="-386"/>
      <point x="1623" y="-369"/>
      <point x="1704" y="-245" type="curve"/>
      <point x="1647" y="-261" type="line"/>
      <point x="1647" y="-317"/>
      <point x="1708" y="-354"/>
      <point x="1778" y="-354" type="curve" smooth="yes"/>
      <point x="1903" y="-354"/>
      <point x="2020" y="-283"/>
      <point x="2020" y="-91" type="curve"/>
      <point x="2001" y="-93" type="line"/>
      <point x="2001" y="-215"/>
      <point x="2079" y="-342"/>
      <point x="2153" y="-342" type="curve" smooth="yes"/>
      <point x="2256" y="-342"/>
      <point x="2442" y="-261"/>
      <point x="2545" y="-207" type="curve"/>
      <point x="2603" y="-27" type="line"/>
      <point x="2413" y="-104"/>
      <point x="2217" y="-160"/>
      <point x="2153" y="-160" type="curve" smooth="yes"/>
      <point x="2083" y="-160"/>
      <point x="2040" y="-94"/>
      <point x="2036" y="-9" type="curve" smooth="yes"/>
      <point x="2015" y="440" type="line"/>
      <point x="1948" y="403" type="line"/>
      <point x="1953" y="324"/>
      <point x="1974" y="-3"/>
      <point x="1974" y="-30" type="curve" smooth="yes"/>
      <point x="1974" y="-99"/>
      <point x="1927" y="-171"/>
      <point x="1796" y="-171" type="curve" smooth="yes"/>
      <point x="1698" y="-171"/>
      <point x="1696" y="-136"/>
      <point x="1696" y="-99" type="curve" smooth="yes"/>
      <point x="1696" y="-64"/>
      <point x="1697" y="-57"/>
      <point x="1698" y="-51" type="curve"/>
      <point x="1688" y="-51" type="line"/>
      <point x="1620" y="-245"/>
      <point x="1482" y="-237"/>
      <point x="1327" y="-237" type="curve"/>
      <point x="1358" y="-185"/>
      <point x="1368" y="-122"/>
      <point x="1368" y="-61" type="curve" smooth="yes"/>
      <point x="1368" y="-1"/>
      <point x="1348" y="46"/>
      <point x="1323" y="46" type="curve" smooth="yes"/>
      <point x="1237" y="46"/>
      <point x="1156" y="-119"/>
      <point x="1135" y="-238" type="curve"/>
      <point x="1032" y="-240"/>
      <point x="1070" y="-241"/>
    </contour>
    <contour>
      <point x="289" y="-306" type="curve" smooth="yes"/>
      <point x="524" y="-306"/>
      <point x="603" y="73"/>
      <point x="631" y="72" type="curve" smooth="yes"/>
      <point x="652" y="71"/>
      <point x="696" y="-59"/>
      <point x="696" y="-80" type="curve" smooth="yes"/>
      <point x="696" y="-85"/>
      <point x="694" y="-87"/>
      <point x="688" y="-87" type="curve" smooth="yes"/>
      <point x="663" y="-87"/>
      <point x="573" y="-56"/>
      <point x="582" y="-25" type="curve"/>
      <point x="493" y="-132" type="line"/>
      <point x="498" y="-181"/>
      <point x="626" y="-233"/>
      <point x="701" y="-233" type="curve" smooth="yes"/>
      <point x="743" y="-233"/>
      <point x="754" y="-156"/>
      <point x="754" y="-108" type="curve" smooth="yes"/>
      <point x="754" y="3"/>
      <point x="697" y="138"/>
      <point x="645" y="138" type="curve" smooth="yes"/>
      <point x="536" y="138"/>
      <point x="437" y="-282"/>
      <point x="150" y="-282" type="curve"/>
      <point x="150" y="-292" type="line"/>
      <point x="190" y="-301"/>
      <point x="241" y="-306"/>
    </contour>
  </outline>
</glyph>
<glyph name="rahmatuAllaahiAlayhimaa-ar" format="2">
  <advance width="2515"/>
  <unicode hex="FBC7"/>
  <outline>
    <component base="_allah.cal" xOffset="541" yOffset="416"/>
    <component base="_dot2h.cal" xOffset="1206" yOffset="-792"/>
    <component base="_dot2h.cal" xOffset="245" yOffset="677"/>
    <contour>
      <point x="1584" y="275" type="curve" smooth="yes"/>
      <point x="1720" y="275"/>
      <point x="1825" y="470"/>
      <point x="2036" y="470" type="curve"/>
      <point x="2062" y="467"/>
      <point x="2088" y="465"/>
      <point x="2154" y="462" type="curve"/>
      <point x="2201" y="625" type="line"/>
      <point x="2063" y="629" type="line"/>
      <point x="1867" y="629"/>
      <point x="1830" y="710"/>
      <point x="1715" y="710" type="curve" smooth="yes"/>
      <point x="1630" y="710"/>
      <point x="1576" y="632"/>
      <point x="1560" y="514" type="curve"/>
      <point x="1574" y="509" type="line"/>
      <point x="1618" y="559"/>
      <point x="1648" y="575"/>
      <point x="1690" y="575" type="curve" smooth="yes"/>
      <point x="1797" y="575"/>
      <point x="1852" y="484"/>
      <point x="2017" y="484" type="curve"/>
      <point x="2037" y="605" type="line"/>
      <point x="1881" y="605"/>
      <point x="1704" y="442"/>
      <point x="1566" y="442" type="curve" smooth="yes"/>
      <point x="1493" y="442"/>
      <point x="1449" y="483"/>
      <point x="1402" y="518" type="curve"/>
      <point x="1405" y="503"/>
      <point x="1456" y="376"/>
      <point x="1456" y="311" type="curve"/>
      <point x="1456" y="303"/>
      <point x="1516" y="275"/>
    </contour>
    <contour>
      <point x="257" y="408" type="curve" smooth="yes"/>
      <point x="323" y="408"/>
      <point x="411" y="438"/>
      <point x="440" y="503" type="curve"/>
      <point x="412" y="591" type="line"/>
      <point x="415" y="574"/>
      <point x="351" y="555"/>
      <point x="319" y="555" type="curve" smooth="yes"/>
      <point x="291" y="555"/>
      <point x="280" y="561"/>
      <point x="280" y="571" type="curve" smooth="yes"/>
      <point x="280" y="595"/>
      <point x="347" y="645"/>
      <point x="403" y="655" type="curve"/>
      <point x="398" y="700" type="line"/>
      <point x="289" y="669"/>
      <point x="183" y="577"/>
      <point x="183" y="456" type="curve" smooth="yes"/>
      <point x="183" y="416"/>
      <point x="233" y="408"/>
    </contour>
    <contour>
      <point x="1398" y="344" type="curve" smooth="yes"/>
      <point x="1370" y="344"/>
      <point x="1305" y="371"/>
      <point x="1305" y="407" type="curve" smooth="yes"/>
      <point x="1305" y="417"/>
      <point x="1335" y="494"/>
      <point x="1358" y="494" type="curve" smooth="yes"/>
      <point x="1380" y="494"/>
      <point x="1417" y="384"/>
      <point x="1417" y="367" type="curve" smooth="yes"/>
      <point x="1417" y="354"/>
      <point x="1409" y="344"/>
    </contour>
    <contour>
      <point x="2146" y="261" type="curve" smooth="yes"/>
      <point x="2268" y="261"/>
      <point x="2342" y="413"/>
      <point x="2342" y="660" type="curve" smooth="yes"/>
      <point x="2342" y="741"/>
      <point x="2314" y="839"/>
      <point x="2265" y="871" type="curve"/>
      <point x="2219" y="709" type="line"/>
      <point x="2257" y="696"/>
      <point x="2315" y="659"/>
      <point x="2315" y="619" type="curve" smooth="yes"/>
      <point x="2315" y="452"/>
      <point x="2113" y="342"/>
      <point x="1976" y="342" type="curve" smooth="yes"/>
      <point x="1958" y="342"/>
      <point x="1941" y="344"/>
      <point x="1924" y="349" type="curve"/>
      <point x="1920" y="341" type="line"/>
      <point x="1958" y="304"/>
      <point x="2080" y="261"/>
    </contour>
    <contour>
      <point x="1472" y="614" type="curve"/>
      <point x="1500" y="620"/>
      <point x="1521" y="648"/>
      <point x="1528" y="681" type="curve" smooth="yes"/>
      <point x="1566" y="860"/>
      <point x="1537" y="1179"/>
      <point x="1544" y="1323" type="curve"/>
      <point x="1463" y="1217" type="line"/>
      <point x="1457" y="1061"/>
      <point x="1476" y="770"/>
    </contour>
    <contour>
      <point x="760" y="233" type="curve" smooth="yes"/>
      <point x="977" y="233"/>
      <point x="1217" y="296"/>
      <point x="1281" y="362" type="curve"/>
      <point x="1201" y="344" type="line"/>
      <point x="1270" y="263"/>
      <point x="1349" y="206"/>
      <point x="1413" y="206" type="curve" smooth="yes"/>
      <point x="1431" y="206"/>
      <point x="1474" y="225"/>
      <point x="1474" y="283" type="curve" smooth="yes"/>
      <point x="1474" y="370"/>
      <point x="1443" y="543"/>
      <point x="1362" y="543" type="curve" smooth="yes"/>
      <point x="1294" y="543"/>
      <point x="1270" y="402"/>
      <point x="760" y="402" type="curve" smooth="yes"/>
      <point x="465" y="402"/>
      <point x="434" y="593"/>
      <point x="412" y="833" type="curve"/>
      <point x="376" y="786" type="line"/>
      <point x="416" y="499"/>
      <point x="428" y="233"/>
    </contour>
    <contour>
      <point x="2015" y="-166" type="curve"/>
      <point x="2220" y="-92" type="line"/>
      <point x="2109" y="-92"/>
      <point x="2018" y="-26"/>
      <point x="2018" y="-3" type="curve" smooth="yes"/>
      <point x="2018" y="20"/>
      <point x="2089" y="66"/>
      <point x="2159" y="66" type="curve" smooth="yes"/>
      <point x="2202" y="66"/>
      <point x="2245" y="53"/>
      <point x="2273" y="37" type="curve"/>
      <point x="2280" y="44" type="line"/>
      <point x="2280" y="155"/>
      <point x="2209" y="232"/>
      <point x="2144" y="232" type="curve" smooth="yes"/>
      <point x="2036" y="232"/>
      <point x="1972" y="53"/>
      <point x="1972" y="-54" type="curve" smooth="yes"/>
      <point x="1972" y="-85"/>
      <point x="1985" y="-138"/>
    </contour>
    <contour>
      <point x="1116" y="-103" type="curve" smooth="yes"/>
      <point x="1137" y="-103"/>
      <point x="1149" y="-128"/>
      <point x="1149" y="-168" type="curve" smooth="yes"/>
      <point x="1149" y="-191"/>
      <point x="1106" y="-227"/>
      <point x="988" y="-236" type="curve"/>
      <point x="1010" y="-174"/>
      <point x="1062" y="-103"/>
    </contour>
    <contour>
      <point x="1106" y="-510" type="curve" smooth="yes"/>
      <point x="1076" y="-510"/>
      <point x="1035" y="-473"/>
      <point x="1007" y="-414" type="curve"/>
      <point x="1117" y="-426"/>
      <point x="1145" y="-452"/>
      <point x="1145" y="-493" type="curve" smooth="yes"/>
      <point x="1145" y="-502"/>
      <point x="1129" y="-510"/>
    </contour>
    <contour>
      <point x="707" y="-359"/>
      <point x="790" y="-407"/>
      <point x="963" y="-410" type="curve"/>
      <point x="983" y="-535"/>
      <point x="1028" y="-654"/>
      <point x="1082" y="-654" type="curve" smooth="yes"/>
      <point x="1146" y="-654"/>
      <point x="1174" y="-553"/>
      <point x="1174" y="-475" type="curve" smooth="yes"/>
      <point x="1174" y="-469"/>
      <point x="1169" y="-428"/>
      <point x="1147" y="-396" type="curve"/>
      <point x="1240" y="-396"/>
      <point x="1385" y="-369"/>
      <point x="1466" y="-245" type="curve"/>
      <point x="1409" y="-261" type="line"/>
      <point x="1456" y="-316"/>
      <point x="1511" y="-340"/>
      <point x="1565" y="-340" type="curve" smooth="yes"/>
      <point x="1677" y="-340"/>
      <point x="1782" y="-234"/>
      <point x="1782" y="-91" type="curve"/>
      <point x="1763" y="-93" type="line"/>
      <point x="1763" y="-215"/>
      <point x="1841" y="-329"/>
      <point x="1915" y="-329" type="curve" smooth="yes"/>
      <point x="2018" y="-329"/>
      <point x="2204" y="-261"/>
      <point x="2307" y="-207" type="curve"/>
      <point x="2365" y="-27" type="line"/>
      <point x="2175" y="-104"/>
      <point x="1979" y="-160"/>
      <point x="1915" y="-160" type="curve" smooth="yes"/>
      <point x="1845" y="-160"/>
      <point x="1802" y="-94"/>
      <point x="1798" y="-9" type="curve" smooth="yes"/>
      <point x="1777" y="440" type="line"/>
      <point x="1710" y="403" type="line"/>
      <point x="1715" y="324"/>
      <point x="1736" y="-3"/>
      <point x="1736" y="-30" type="curve" smooth="yes"/>
      <point x="1736" y="-99"/>
      <point x="1689" y="-171"/>
      <point x="1558" y="-171" type="curve" smooth="yes"/>
      <point x="1460" y="-171"/>
      <point x="1458" y="-136"/>
      <point x="1458" y="-99" type="curve" smooth="yes"/>
      <point x="1458" y="-64"/>
      <point x="1459" y="-57"/>
      <point x="1460" y="-51" type="curve"/>
      <point x="1450" y="-51" type="line"/>
      <point x="1396" y="-214"/>
      <point x="1214" y="-227"/>
      <point x="1149" y="-227" type="curve"/>
      <point x="1180" y="-175"/>
      <point x="1190" y="-122"/>
      <point x="1190" y="-61" type="curve" smooth="yes"/>
      <point x="1190" y="-1"/>
      <point x="1170" y="46"/>
      <point x="1145" y="46" type="curve" smooth="yes"/>
      <point x="1059" y="46"/>
      <point x="978" y="-119"/>
      <point x="957" y="-238" type="curve"/>
      <point x="831" y="-238"/>
      <point x="728" y="-228"/>
      <point x="687" y="-136" type="curve" smooth="yes"/>
      <point x="655" y="-64"/>
      <point x="612" y="1"/>
      <point x="570" y="1" type="curve" smooth="yes"/>
      <point x="492" y="1"/>
      <point x="490" y="-142"/>
      <point x="345" y="-142" type="curve" smooth="yes"/>
      <point x="275" y="-142"/>
      <point x="253" y="-52"/>
      <point x="246" y="10" type="curve" smooth="yes"/>
      <point x="206" y="354" type="line"/>
      <point x="150" y="281" type="line"/>
      <point x="190" y="-41" type="line" smooth="yes"/>
      <point x="208" y="-187"/>
      <point x="250" y="-324"/>
      <point x="345" y="-324" type="curve" smooth="yes"/>
      <point x="395" y="-324"/>
      <point x="426" y="-312"/>
      <point x="513" y="-246" type="curve"/>
      <point x="420" y="-238" type="line"/>
      <point x="493" y="-327"/>
      <point x="555" y="-364"/>
      <point x="628" y="-364" type="curve" smooth="yes"/>
      <point x="649" y="-364"/>
      <point x="687" y="-343"/>
      <point x="687" y="-276" type="curve"/>
      <point x="659" y="-276" type="line"/>
    </contour>
    <contour>
      <point x="504" y="-139" type="curve" smooth="yes"/>
      <point x="504" y="-126"/>
      <point x="539" y="-39"/>
      <point x="565" y="-39" type="curve" smooth="yes"/>
      <point x="590" y="-39"/>
      <point x="633" y="-164"/>
      <point x="633" y="-184" type="curve" smooth="yes"/>
      <point x="633" y="-198"/>
      <point x="624" y="-210"/>
      <point x="611" y="-210" type="curve" smooth="yes"/>
      <point x="578" y="-210"/>
      <point x="504" y="-179"/>
    </contour>
  </outline>
</glyph>
